<svg version="1.1" id="cart" xmlns="http://www.w3.org/2000/svg" xmlns:xlink="http://www.w3.org/1999/xlink" x="0px" y="0px"
	 viewBox="0 0 34.8 28" style="enable-background:new 0 0 34.8 28;" xml:space="preserve">
<style type="text/css">
	.st0{fill:#273142;}
</style>
<path class="st0" d="M26.9,18.6H13.9c-1.5,0-2.9-0.9-3.5-2.3l0-0.1L5.9,1.8H0V0h7.2l4.9,15.6c0.3,0.7,1,1.2,1.8,1.2h13.1
	c0.7,0,1.4-0.4,1.7-1l3.6-9.6H16.8V4.4h18.1l-4.5,12.1l0,0.1C29.6,17.8,28.3,18.6,26.9,18.6z M15.9,25c0-1.7-1.4-3-3-3s-3,1.4-3,3
	c0,1.7,1.4,3,3,3S15.9,26.6,15.9,25z M14.1,25c0,0.7-0.6,1.2-1.2,1.2c-0.7,0-1.2-0.6-1.2-1.2c0-0.7,0.6-1.2,1.2-1.2
	C13.5,23.7,14.1,24.3,14.1,25z M30.8,25c0-1.7-1.4-3-3-3c-1.7,0-3,1.4-3,3c0,1.7,1.4,3,3,3C29.4,28,30.8,26.6,30.8,25z M29,25
	c0,0.7-0.6,1.2-1.2,1.2c-0.7,0-1.2-0.6-1.2-1.2c0-0.7,0.6-1.2,1.2-1.2C28.4,23.7,29,24.3,29,25z"/>
</svg>
