<svg version="1.1" id="check" xmlns="http://www.w3.org/2000/svg" xmlns:xlink="http://www.w3.org/1999/xlink" x="0px" y="0px"
	 viewBox="0 0 11.6 8.2" style="enable-background:new 0 0 11.6 8.2;" xml:space="preserve">
<style type="text/css">
	.st0{fill:#DA1515;}
</style>
<path class="st0" d="M10.6,0c-0.2,0-0.5,0.1-0.7,0.3L4.4,5.9L1.6,3C1.4,2.8,1.2,2.7,0.9,2.7C0.4,2.8,0,3.2,0,3.7
	c0,0.2,0.1,0.5,0.3,0.6l3.5,3.6C4,8.1,4.2,8.2,4.4,8.2c0.2,0,0.5-0.1,0.7-0.3l6.2-6.3c0.2-0.2,0.3-0.4,0.3-0.7
	C11.6,0.4,11.1,0,10.6,0z"/>
</svg>
