<svg version="1.1" id="conditioning" xmlns="http://www.w3.org/2000/svg" xmlns:xlink="http://www.w3.org/1999/xlink" x="0px" y="0px"
	 viewBox="0 0 423.2 309.1" style="enable-background:new 0 0 423.2 309.1;" xml:space="preserve">
<style type="text/css">
	.st0{opacity:0.5;fill:#313D52;}
	.st1{opacity:0.5;}
	.st2{opacity:0.25;fill:#313D52;}
	.st3{fill:#313D52;}
</style>
<g id="XMLID_124_">
	<g id="LINES_19_">
		<path class="st0" d="M3.4,99.5l14-0.7l0.7,13.7l-14,0.7L3.4,99.5z"/>
		<g class="st1">
			<path class="st2" d="M233,295.4h14v13.7h-14V295.4z"/>
			<path class="st0" d="M233,267.9h14v13.7h-14V267.9z"/>
			<path class="st3" d="M233,240.4h14v13.7h-14V240.4z"/>
		</g>
		<path class="st0" d="M180.4,267.9h14v13.7h-14V267.9z"/>
		<path class="st2" d="M180.4,295.4h14v13.7h-14V295.4z"/>
		<path class="st3" d="M180.4,240.4h14v13.7h-14V240.4z"/>
		<g class="st1">
			<path class="st0" d="M127.8,267.9h14v13.7h-14V267.9z"/>
			<path class="st3" d="M127.8,240.4h14v13.7h-14V240.4z"/>
			<path class="st2" d="M127.8,295.4h14v13.7h-14V295.4z"/>
		</g>
		<path class="st2" d="M75.1,295.4h14v13.7h-14V295.4z"/>
		<path class="st3" d="M75.1,240.4h14v13.7h-14V240.4z"/>
		<path class="st0" d="M75.1,267.9h14v13.7h-14V267.9z"/>
		<path class="st0" d="M285.6,267.9h14v13.7h-14V267.9z"/>
		<path class="st3" d="M285.6,240.4h14v13.7h-14V240.4z"/>
		<path class="st2" d="M285.6,295.4h14v13.7h-14V295.4z"/>
		<g class="st1">
			<path class="st0" d="M338.2,267.9h14v13.7h-14V267.9z"/>
			<path class="st3" d="M338.2,240.4h14v13.7h-14V240.4z"/>
			<path class="st2" d="M338.2,295.4h14v13.7h-14V295.4z"/>
		</g>
		<path class="st3" d="M390.8,240.4h14v13.7h-14V240.4z"/>
		<path class="st2" d="M390.8,295.4h14v13.7h-14V295.4z"/>
		<path class="st0" d="M390.8,267.9h14v13.7h-14V267.9z"/>
		<path class="st3" d="M188.5,87.2h103v14h-103V87.2z"/>
		<g>
			<path class="st2" d="M100.2,30.6h13.7v14h-13.7V30.6z"/>
			<path class="st0" d="M72.7,30.6h13.7v14H72.7V30.6z"/>
			<path class="st3" d="M45.3,30.6H59v14H45.3V30.6z"/>
		</g>
	</g>
</g>
<g>
	<path class="st3" d="M14.1,36.2c-0.3-5.8,1.7-11.4,5.8-15.6S29.3,14,35.1,14h388.1V0H35.1C25.4,0,16.3,3.9,9.6,10.9
		C2.9,18-0.5,27.3,0.1,37l2.6,48.7l14-0.7L14.1,36.2z"/>
	<path class="st3" d="M423.2,205.7H46.9c-3.1,0-5.8-2-6.7-5l-2.6-8.5h5.2h380.4v-14H56.8v-42.3h366.4v-14.1H42.8v56.4H28.2
		c-3.7,0-6.8-2.9-7-6.7l-2.4-45.4l-14,0.7l2.4,45.4c0.5,9.3,6.9,16.9,15.5,19.2l4.1,13.4c2.7,8.9,10.8,14.9,20.1,14.9h376.3V205.7z"
		/>
</g>
</svg>
