<svg version="1.1" id="delivery" xmlns="http://www.w3.org/2000/svg" xmlns:xlink="http://www.w3.org/1999/xlink" x="0px" y="0px"
	 viewBox="0 0 26.6 17.3" style="enable-background:new 0 0 26.6 17.3;" xml:space="preserve">
<style type="text/css">
	.st0{fill:#273142;}
</style>
<path class="st0" d="M26.6,11.6c0-0.2,0.2-4-2.5-6.9c-1.7-1.8-4.2-2.8-7.4-3V0H0v15h2.8c0.3,1.3,1.5,2.3,2.9,2.3s2.6-1,2.9-2.3h7.6
	h0.5h1.4c0.3,1.3,1.5,2.3,2.9,2.3s2.6-1,2.9-2.3h2.7L26.6,11.6z M5.7,15.8c-0.8,0-1.5-0.7-1.5-1.5s0.7-1.5,1.5-1.5s1.5,0.7,1.5,1.5
	S6.5,15.8,5.7,15.8z M15.2,13.5H8.6c-0.3-1.3-1.5-2.3-2.9-2.3s-2.6,1-2.9,2.3H1.5v-12h13.7V13.5z M21,15.8c-0.8,0-1.5-0.7-1.5-1.5
	s0.7-1.5,1.5-1.5s1.5,0.7,1.5,1.5S21.8,15.8,21,15.8z M25.1,11.6v2h-1.2c-0.3-1.3-1.5-2.3-2.9-2.3s-2.6,1-2.9,2.3h-1.4V3.3
	c2.7,0.1,4.9,1,6.3,2.5C25.3,8.1,25.1,11.5,25.1,11.6z"/>
</svg>
