<svg version="1.1" id="eye" xmlns="http://www.w3.org/2000/svg" xmlns:xlink="http://www.w3.org/1999/xlink" x="0px" y="0px"
	 viewBox="0 0 27.6 16.1" enable-background="new 0 0 27.6 16.1" xml:space="preserve">
<g>
	<path fill="#7B818C" d="M27.5,7.6C27.3,7.3,22.6,0,14,0h-0.4C5,0,0.3,7.3,0.1,7.6L0,7.8v0.5l0.1,0.2c0.2,0.3,4.8,7.6,13.5,7.6H14
		c8.6,0,13.3-7.3,13.5-7.6l0.1-0.3V7.8L27.5,7.6z M20.1,13c1.1-1.4,1.7-3.1,1.7-4.9h-1.6c0,3.6-2.9,6.4-6.4,6.4h-0.2
		C7,14.5,2.8,9.5,1.8,8c0.7-0.9,2.6-3.3,5.6-4.9c-1,1.4-1.7,3-1.7,4.9h1.6c0-3.6,2.9-6.4,6.4-6.4v0H14c6.6,0,10.8,5,11.8,6.4
		C25.2,9,23.2,11.4,20.1,13z"/>
	<path fill="#7B818C" d="M13.8,4.3C11.7,4.3,10,6,10,8s1.7,3.8,3.8,3.8c2.1,0,3.8-1.7,3.8-3.8S15.8,4.3,13.8,4.3z M13.8,10.2
		c-1.2,0-2.2-1-2.2-2.2s1-2.2,2.2-2.2s2.2,1,2.2,2.2S15,10.2,13.8,10.2z"/>
</g>
</svg>
