<svg version="1.1" id="favorite" xmlns="http://www.w3.org/2000/svg" xmlns:xlink="http://www.w3.org/1999/xlink" x="0px" y="0px"
	 viewBox="0 0 22.1 21" style="enable-background:new 0 0 22.1 21;" xml:space="preserve">
<style type="text/css">
	.st0{fill:#7B818C;}
</style>
<g>
	<path class="st0" d="M17.9,21l-6.8-3.5c-0.1,0-0.1,0-0.2,0L4.2,21l1.3-7.5c0-0.1,0-0.1,0-0.1L0,8l7.6-1.1c0.1,0,0.1-0.1,0.1-0.1
		l1.4,0.7C8.8,8,8.4,8.4,7.8,8.4l0,0L3.3,9.1l3.3,3.2l0,0C7,12.7,7.1,13.2,7,13.7l0,0l-0.8,4.5l4.1-2.1c0.5-0.2,1-0.2,1.5,0l0,0
		l4,2.1l-0.8-4.5c-0.1-0.5,0.1-1,0.4-1.4l0,0l3.3-3.2l-4.5-0.7c-0.5-0.1-1-0.4-1.2-0.9l0,0l-2.7-5.4l-0.2-0.4L11.1,0l3.4,6.8
		c0,0.1,0.1,0.1,0.1,0.1L22.1,8l-5.5,5.3c0,0,0,0.1,0,0.1L17.9,21z"/>
</g>
</svg>
