<svg version="1.1" id="filter" xmlns="http://www.w3.org/2000/svg" xmlns:xlink="http://www.w3.org/1999/xlink" x="0px" y="0px"
	 viewBox="0 0 24 19.1" style="enable-background:new 0 0 24 19.1;" xml:space="preserve">
<style type="text/css">
	.st0{fill:#FFFFFF;}
</style>
<g>
	<path class="st0" d="M12.6,3.1c-0.4-1.8-2-3.1-4-3.1s-3.5,1.3-4,3.1H0v2h4.7c0.4,1.8,2,3.1,4,3.1s3.5-1.3,4-3.1H24v-2H12.6z
		 M8.7,6.2c-1.2,0-2.1-0.9-2.1-2.1S7.5,2,8.7,2s2.1,0.9,2.1,2.1S9.8,6.2,8.7,6.2z"/>
	<path class="st0" d="M15.3,10.9c-1.9,0-3.5,1.3-4,3.1H0v2h11.4c0.4,1.8,2,3.1,4,3.1s3.5-1.3,4-3.1H24v-2h-4.7
		C18.8,12.2,17.2,10.9,15.3,10.9z M15.3,17.1c-1.2,0-2.1-0.9-2.1-2.1s0.9-2.1,2.1-2.1s2.1,0.9,2.1,2.1S16.5,17.1,15.3,17.1z"/>
</g>
</svg>
