<svg version="1.1" id="inst" xmlns="http://www.w3.org/2000/svg" xmlns:xlink="http://www.w3.org/1999/xlink" x="0px" y="0px"
	 viewBox="0 0 19 19" style="enable-background:new 0 0 19 19;" xml:space="preserve">
<style type="text/css">
	.st0{fill:#FFDD4D;}
</style>
<g>
	<path class="st0" d="M13.5,0h-8C2.5,0,0,2.5,0,5.5v8c0,3,2.5,5.5,5.5,5.5h8c3,0,5.5-2.5,5.5-5.5v-8C19,2.5,16.5,0,13.5,0z
		 M17.1,13.7c0,1.9-1.5,3.4-3.4,3.4H5.3c0,0,0,0,0,0c-1.9,0-3.4-1.5-3.4-3.4V5.3c0-1.9,1.5-3.4,3.4-3.4h8.4c0,0,0,0,0,0
		c1.9,0,3.4,1.5,3.4,3.4V13.7z"/>
	<path class="st0" d="M9.5,4.8c-2.6,0-4.8,2.1-4.8,4.8s2.1,4.8,4.8,4.8s4.8-2.1,4.8-4.8S12.1,4.8,9.5,4.8z M12.4,9.5
		c0,1.6-1.3,2.9-2.9,2.9s-2.9-1.3-2.9-2.9c0-1.6,1.3-2.9,2.8-2.9C11.1,6.6,12.3,7.9,12.4,9.5C12.4,9.5,12.4,9.5,12.4,9.5z"/>
	<circle class="st0" cx="14.5" cy="4.5" r="1.2"/>
</g>
</svg>
