<svg version="1.1" id="link" xmlns="http://www.w3.org/2000/svg" xmlns:xlink="http://www.w3.org/1999/xlink" x="0px" y="0px"
	 viewBox="0 0 21.7 27.5" style="enable-background:new 0 0 21.7 27.5;" xml:space="preserve">
<style type="text/css">
	.st0{fill:#273142;}
</style>
<path class="st0" d="M17.2,9.2c-1.2,0-2.3,0.5-3.1,1.3l-5.6-4C8.8,5.9,9,5.2,9,4.5C9,2,7,0,4.5,0S0,2,0,4.5S2,9,4.5,9
	c1.2,0,2.3-0.5,3.1-1.3l5.6,4c-0.3,0.6-0.5,1.3-0.5,2c0,0.7,0.2,1.4,0.5,2l-5.6,4c-0.8-0.8-1.9-1.3-3.1-1.3C2,18.5,0,20.5,0,23
	s2,4.5,4.5,4.5S9,25.5,9,23c0-0.7-0.2-1.4-0.5-2l5.6-4c0.8,0.8,1.9,1.3,3.1,1.3c2.5,0,4.5-2,4.5-4.5S19.7,9.2,17.2,9.2z M4.5,7.5
	c-1.7,0-3-1.3-3-3s1.3-3,3-3s3,1.3,3,3S6.2,7.5,4.5,7.5z M4.5,26c-1.7,0-3-1.3-3-3s1.3-3,3-3s3,1.3,3,3S6.2,26,4.5,26z M17.2,16.8
	c-1.7,0-3-1.3-3-3s1.3-3,3-3s3,1.3,3,3S18.9,16.8,17.2,16.8z"/>
</svg>
