<svg version="1.1" id="login" xmlns="http://www.w3.org/2000/svg" xmlns:xlink="http://www.w3.org/1999/xlink" x="0px" y="0px"
	 viewBox="0 0 20 20" style="enable-background:new 0 0 20 20;" xml:space="preserve">
<style type="text/css">
	.st0{fill:#7B818C;}
</style>
<path class="st0" d="M14.6,10.3c1-1.1,1.6-2.5,1.6-4.1c0,0,0,0,0,0C16.2,2.8,13.4,0,10,0c0,0,0,0,0,0C6.6,0,3.8,2.8,3.8,6.2
	c0,3.4,2.8,6.2,6.2,6.2c0,0,0,0,0,0c1.2,0,2.3-0.4,3.3-1c2.9,1.2,4.9,4,5.2,7.1H1.6c0.2-2,1.1-3.9,2.6-5.4L3.1,12
	c-2,1.9-3.1,4.5-3.1,7.2V20h20v-0.8C20,15.5,17.9,12,14.6,10.3z M10,10.8c-2.6,0-4.7-2.1-4.7-4.7c0-2.6,2.1-4.7,4.7-4.7h0
	c2.6,0,4.7,2.1,4.7,4.7C14.7,8.7,12.6,10.8,10,10.8z"/>
</svg>
