<svg version="1.1" id="map" xmlns="http://www.w3.org/2000/svg" xmlns:xlink="http://www.w3.org/1999/xlink" x="0px" y="0px"
	 viewBox="57 120.7 723.1 460" style="enable-background:new 57 120.7 723.1 460;" xml:space="preserve">
<style type="text/css">
	.st0{fill:#CFD3E7;}
</style>
<g>
	<polygon class="st0" points="254.8,359.3 251.8,359.9 251.8,361.6 249.8,363.6 249.8,365.1 251.4,366.7 251.4,369.2 252.2,371.8 
		251.5,373.2 252.3,372.3 253.4,368.9 256.9,368.1 260.1,369.6 261.3,370.8 263.7,368.6 265.7,370.6 266.3,371.8 267.5,371.6 
		269,370.2 271.6,370.2 273.2,369.6 273.2,368.7 271.5,367 273.6,362.8 276.9,364.6 278.2,363.4 279.3,364.5 280.5,363.2 
		280.5,363.2 280.5,363.2 283.3,364.2 284.4,366 284.1,367.9 285,369 286.7,368.4 290.5,370.1 292.3,371.9 294.4,370.8 297,371.7 
		298.5,370.2 300.8,371 301.6,371.8 302.3,371.6 303.3,369.5 305.7,369.5 309.4,372 312.7,373.8 316.5,375.2 320.9,375.9 
		321.5,374.2 322.8,372.9 323.4,370.2 327,366.5 327,364.6 328.2,362.3 327.7,359.7 330,355.3 332.9,353.5 333.2,350.8 336.7,348.6 
		336.2,345.6 337.9,342.5 343.7,336.6 343.7,336.6 343.8,336.6 346.8,337.7 346.8,339.7 348.1,339.5 351,336.7 353.7,335.3 
		355.4,333.4 355.4,333.4 355.4,333.4 357.9,333 358,332.8 358.7,332.9 359.7,332.7 359.7,332.9 361.8,333 361.8,330.1 367.3,327 
		372.4,325.9 372.5,325.9 376.9,325.9 377.9,322.6 378,322.6 381.1,322.6 383.7,320 386.3,318.7 383.9,316.2 387.4,314.8 387.4,314 
		384.3,312.5 384.9,308.5 386.2,307.9 386.5,307.3 385.6,306.8 384.5,306.8 382.5,308.5 381.5,309.3 380.7,309.4 379.1,309.5 
		377.8,312.5 373.7,311.8 372.8,313.2 370.9,315.1 369,316.1 365.5,317.4 362.3,318.1 358.8,316.4 356.9,316.8 354.6,314.9 
		350.6,313.2 348,311.5 346.6,310.6 345,310 343.6,309.5 338.5,307.5 336.2,305.2 333.3,304.9 328.2,301.5 325.9,299.2 322.2,297.5 
		319.3,295.1 318.9,294.7 316.1,295 313.6,296.7 297.9,296.8 296.6,298 295.8,300.4 294.9,301.2 294.9,302.3 292.6,304.5 
		292.9,305.2 294.7,307 295.7,308.8 294.6,311 295,312.5 296.4,313.9 294.5,317.1 292.6,319 292.6,319 292.6,319 291.2,317.7 
		289.9,317.7 288,316.1 286,315.7 284.7,314.8 283.1,315.4 280.3,316.9 279.7,313.6 277.6,311.5 275.6,310.3 272.9,309.7 
		271.6,308.4 269.8,307.8 267.8,306.3 267.3,306.3 267.5,307.5 267.5,309 268.9,311 270.8,312.9 270.1,315.4 270.1,318 267.9,319.3 
		267.6,320.8 268.5,321.8 268.9,324.6 268.2,327.1 265.5,326.4 264.4,326.7 263.9,327.9 263.4,328.4 263.7,330.3 261.9,331.2 
		262,332.7 263,333.2 264.6,333.7 265.3,334.4 266.5,332.8 267.3,333.1 268,331.5 270.6,331 272.4,331 273.1,331.8 275.3,330.7 
		275.5,333.8 277.2,335.5 274.5,338.1 273.2,338.7 271.2,340.7 269.2,341.9 268.9,343.3 266.9,344.6 266.4,345 268,346.6 
		266.2,349.6 264.6,350.8 263.1,352.6 260.5,352.1 260.2,351 258.3,351 258.4,351.4 256.4,352 256.7,353.9 254.8,355.9 	"/>
	<polygon class="st0" points="263.4,414.3 265,410.8 265.5,407.1 267.3,403.8 267.5,400 267.9,397.8 265.5,397.8 265.4,394.7 
		262.8,394.8 259.5,391.6 257.5,393.1 255.9,395.8 255.1,398.5 252.7,400.9 249.4,400.9 248.3,399.8 246.4,401.7 246.4,406.1 
		241.9,410.7 241.3,412.3 241,412.8 243.4,413.1 244.9,415.2 247.6,416.4 248.5,417.8 250.6,417.8 250.9,421 253.7,423.1 
		251.1,424.7 251.1,424.9 252.4,425.4 253.1,424.6 259,423 259.9,422 258.3,419.5 258.3,416.9 	"/>
	<path class="st0" d="M143.4,398.4l2.4-2.4l2.7-1.9l-0.5-3.2l-1.3-1.3l-2.1,1.4l-1.8-2.8l0.8-1.5l-0.2-0.3l-1.2,0.1l-0.1,0.2
		l-0.8,1.4l-0.6-0.1h-1.5c-0.2,0.4-0.4,0.8-0.7,1.3l-0.2,0.5h-2.8l-1.7-2.5l-0.6-0.6l-1.5,0.5l-0.8,2l-2.6,1.5l0.7,1.4l-2.1,2.1h-2
		l-1.2,1v1.4l1.4,0.2l2.1,1.4l2.9,0.5l1.2,2.4l3.2,1.1l-0.6,3l1.3,1.3l2.4,0.2l0.3,0.4l1.8,2.4l1.3-1h1.3l0.3-1.2l-1.6-1.6l0.4-2.3
		l-1-1.3l0.8-2.5L143.4,398.4z"/>
	<polygon class="st0" points="219.2,405.1 223.3,404 227.3,401.6 229,403.3 232.3,403.3 233.9,404.9 235.3,404.1 234.7,402.5 
		234.7,398 232.3,396.7 231.3,393.2 228.4,392.7 226.5,391.6 225.3,393.7 223.2,391.6 220.6,393.1 217.5,391.1 215.8,388.5 
		212.5,386.4 210.8,388.1 208.3,388.1 208.5,390.8 207.1,392.2 208.1,394 210.3,395.1 216.5,395.1 216.9,398.4 218.8,400.3 
		218,402.9 	"/>
	<polygon class="st0" points="306.3,395.4 308.9,395.4 310.6,393.7 313,390.2 315.9,387.6 317.5,383.8 317.5,380.3 320.6,378.7 
		320.6,377.7 315.9,377 311.9,375.4 308.4,373.6 305.1,371.3 304.4,371.3 303.6,373.1 301.1,373.9 299.8,372.6 299,372.3 
		297.5,373.9 294.6,372.8 291.9,374.2 289.4,371.6 286.6,370.4 284.4,371.1 282.2,368.4 282.5,366.4 282.1,365.7 281,365.3 
		279.3,367 278.2,366 277.3,366.9 274.4,365.3 273.7,366.7 275,368 275,370.8 273.4,371.4 273.8,371.8 276.5,373.1 278.7,375.3 
		280.6,376.9 280.1,380.4 277.2,382.9 274.9,383.8 272.5,386.1 272.5,387.8 274.2,389.5 273.3,392.3 273.3,395.2 269.8,397.4 
		269.3,400.3 269.1,404.3 267.2,407.7 266.7,411.5 264.8,415.6 260.1,418 260.1,418.9 261.7,421.4 263.9,422.3 263.9,424.3 
		266.4,426.3 269.8,426.3 271.2,429.1 273.7,429.6 275,433.8 276.1,434.2 277.4,433.7 279.2,431.6 280.2,430.7 280.2,428.2 
		281.9,424.9 283.4,426.4 285.8,426.4 287.7,425.4 288.4,422.7 290.2,419.7 293.3,419.7 294.8,421.9 296.1,420.5 295.3,419.7 
		295.1,417.4 298.6,415.1 298.6,415.1 298.6,415.1 301.2,415.6 302.7,414.4 303.9,413.2 302.6,411.9 302.6,410 304.3,408.4 
		305.1,405.6 303.3,402.6 303.3,398.1 	"/>
	<polygon class="st0" points="251.8,347.4 251.1,346.3 250.8,346.2 249.6,347.2 243.8,353 240.9,351.8 240.4,352.2 243.9,355.9 
		241.2,357.2 241.2,359.8 240,361.1 238.4,362.9 237.8,370.6 233.1,370.6 230.9,372.9 229.1,371.2 226.2,372.2 224.8,373.6 
		227.2,375.5 231.8,380 226.4,385.4 222.8,383.3 220.9,383.7 219.4,385.3 217.6,387.8 218.9,389.8 220.6,391 223.5,389.3 
		224.9,390.7 225.9,389.1 229,390.9 232.8,391.7 233.9,395.4 236.5,397 236.5,402.1 236.9,403.2 237.3,403 237.3,404.4 237.5,405 
		237.3,405.1 237.3,406.9 238.1,410.3 239.5,411.9 240.3,409.6 244.6,405.4 244.6,401 248.2,397.2 250.1,399.1 252,399.1 
		253.5,397.6 254.3,394.9 256.1,391.8 259.7,389.3 263.5,393 267.1,392.8 267.2,395.9 268.8,395.9 271.4,394.2 271.4,392 272.1,390 
		270.7,388.6 270.7,385.4 273.8,382.2 276.3,381.3 278.4,379.5 278.7,377.7 277.4,376.6 275.4,374.6 272.7,373.3 271.4,372 
		269.7,372 268.4,373.4 265.1,373.8 264.2,371.6 263.7,371.1 261.3,373.4 259,371.1 256.7,370 254.8,370.5 253.9,373.2 251.4,376.3 
		249.2,374 250.2,371.6 249.6,369.3 249.6,367.4 248,365.8 248,362.8 250,360.8 250,358.5 253,357.8 253,355.1 254.8,353.3 
		254.6,351.9 253,351.1 253.6,349.2 	"/>
	<polygon class="st0" points="198.4,406.5 197,406.5 195.3,404.8 195.5,403.6 194.5,403.7 193.7,404.4 190.2,404.5 189,406.5 
		185.4,405.5 184.5,402.8 182.5,400.8 182.5,397.8 181.1,396.5 180.6,394.8 178.1,394.8 176.8,393.5 175.8,394.5 173.9,395 
		171.5,397.4 170.3,397.4 170.3,398.1 168.6,399.8 167.3,400.7 167.3,400.9 168.5,400.5 170.1,402.1 172.5,403.1 174.5,403.1 
		177.5,406.1 177.5,409 179.6,410.9 180.1,410.4 183.9,410.4 183.9,410.4 187.8,414.3 189.3,414.4 192.1,412.5 193.7,414.3 
		196.6,413.9 196.9,412.1 197.9,411 197.2,409.5 198.7,407.3 	"/>
	<polygon class="st0" points="204.8,301.2 204.7,300 203.4,299.2 201,299.7 198.6,298.6 196.4,298.2 194.2,299 191.1,300.7 
		189.7,299.9 187.7,302.7 184.4,304.6 182.2,309.1 180,311.9 179.7,311.9 178.1,312.4 177.4,313.4 177.1,313.9 177.1,313.9 
		177.1,313.9 174.1,313.4 172.9,314.6 172.8,314.7 171.8,316.8 173.3,317.4 175.6,321.1 175.1,324 174.7,324.3 176.4,325.1 177,325 
		178.8,324.7 178.8,324.7 178.8,324.7 182.1,325.7 181.1,329 181.1,330.8 181.9,330.6 185.2,330.3 187,332.2 190.1,334.3 
		191.7,332.7 195.4,336.5 195.4,342.5 198.3,345.3 201.2,344.1 205.2,343.1 208.5,344.5 212,342.8 214.2,347.5 217.9,348.2 
		221.3,351.5 222.3,354.3 224.4,355.3 227.5,357.1 227.7,357.2 229.3,359.4 230.3,358.5 233.5,359.2 235.6,355.9 239.3,359.2 
		239.4,359.1 239.4,356.1 240.9,355.3 237.8,352.1 240.5,349.6 243.4,350.9 247.7,346.6 247.3,346.1 246.3,344.7 245.8,344.1 
		246.2,343.7 245.9,343.6 243.9,343.6 243.9,342.4 241.6,341 243.2,339.4 242.6,338.3 242.1,338.1 241.9,338.7 239.5,341.1 
		237.8,339.4 235.6,338.3 235.6,337.4 235.3,337.4 233.8,335.8 233.8,334.4 232.7,334.3 232.7,335 229,335 227,334.3 227,332.6 
		226.1,331.9 224.2,330 223.5,328.3 221.8,327.9 220.8,326.9 218.8,326.3 215.3,326.2 214.6,324.1 213.7,323.2 212.2,323.2 
		210.6,321.6 209.4,320.9 208.8,319.4 206.3,318.1 206.3,316.2 204.6,315.2 203.7,310.1 204.8,308.9 204.5,307.7 206.7,303.3 	"/>
	<polygon class="st0" points="109.5,417.7 112,419.2 112.9,422.6 114.1,421.9 113.5,419.6 115.6,419.5 115.6,417.2 117.7,416.1 
		117.4,414.4 117.4,410.5 119.3,410.5 119.9,409.3 117.7,407.2 117.7,407.2 117.7,407.2 119.4,405.9 119.3,405.5 119.3,405.5 
		119,404.5 118.7,403.7 118.7,403.7 118.3,402.4 116.3,400.3 113.2,398.4 111.3,398.8 106.2,397.7 106.2,395.7 104.9,394.4 
		104.3,395 101,395 98.5,394.4 97.2,395.9 97.7,397.2 100,399.1 101.1,402.6 104.2,405 107.3,407.3 108.3,412.6 107.5,415.5 	"/>
	<polygon class="st0" points="112.1,374.6 111.2,375.5 111.5,375.9 113.1,376.5 114.5,377.7 114.5,380 116.1,380.4 116.6,381.9 
		118.2,382.7 118.7,386.3 120.4,389.1 120.9,392.2 122.2,392.4 123,393.2 124.5,392.1 126.4,392.1 127,391.5 126.1,389.7 
		129.6,387.7 130.4,385.5 132.4,384.8 131.5,381.9 131.5,381.9 131.5,381.8 131.8,381.4 132.1,381.1 130.4,379.9 130.2,379.8 
		128,375.5 127,370.7 124.3,369.7 121.9,369.7 120.1,369 119.7,369.4 119.3,371.3 117.6,373 116,371.3 114.8,371.3 114.4,371.5 
		114.6,372.3 114,374.6 	"/>
	<path class="st0" d="M137.7,305.2l-1.6,1.6l-0.8,0.4v2.1l-1.7,0.9l-0.5,0.5l0.1,0.1l0.3-0.2l0.4,0.9l0.6,0.6l-0.2,0.2l0.6,1.2l1,1
		h2.6h0l1.3,1.3l2.2-0.1l0,0l0,0l1.8,1.1h3.4h0l1.8,1.8l1.4,0.2l0.8-0.8l0.4-0.4h0h2.5l1.6-1.6h2.6l2,1l0,0l0.1,0l0.1,0.1l1,1
		c0.5,0.2,0.8,0.9,0.9,2.1h1.7h0l1.5,1.8h0.9l0.6-2.1l0,0l0,0l2.2,2.2c0.8,0.4,1.8,0.8,2,0.8c0.1,0,0.5,0,1.9,0.8l0.4-0.4l0.3-1.6
		l-1.6-2.6l-2.8-1l0,0l0,0l0.4-0.9l0.6-1.4l0.8-1.6l-0.7-2l-0.3-2l-0.9-0.9l-2.5-0.9l1.3-2.6v-1l-1.8-0.8l-0.2-1.6l-1-0.1l-1.7,1.7
		l-2.6-3.1l0.5-3.5l-0.8-0.2l-1.2-1.1l-1,0.8l-2,0.5l-2.5-1l-2.3-0.2l-4,0h0l-0.9-1.8l-0.3,0.2l-1.3,1.3l-2.4-0.2l-2.1,0.2l-0.6,0.6
		v2l-0.9,0.9l0.2,0.4l1.9,1.4l-1,3.2L137.7,305.2z"/>
	<path class="st0" d="M142.2,339L142.2,339l1.1,2.2l1.6,1.3l0,0l0.2,0.2l0.2,0.5l0.4-0.5h0h1.7l1.1-1.6l3.9-1.5v0l0,0v2.5l0.7,0.1
		l0,0l0,0l0.3,1.6h1.8l0,0h0l0.6,0.4l0.9,0.6l1.5,0.9l0.2,0.1h2.5l0,0h0l1.6,1.6h2.4h0l2.2,1.2l1.4,0.4l1-0.9l0.5-0.5l2.3-1.4
		l-0.8-1.9v-2l1.6-1.6l-0.6-2.5l1.3-2.8h0h2.1l0.9-2.9l0,0l0,0l2.8-1.2l0-2.6l0-0.1l0.5-1.7l-1.1-0.3l-2.5,0.5l0,0l0,0l-0.3-0.1
		l-1.8-0.7l-1.3-0.7l-2.5-1l-2.3-1.1l-0.3-0.3l-0.1,0.5h0l0,0h-3.1l-1.5-1.8h-2.4h-0.2l0-0.8l-0.4-1.7c-0.3-0.2-0.7-0.5-1.1-1.2
		l-1.3-0.6h-1.4l-1.6,1.6h-2.5l-1.3,1.3l0,0l0,0l-2.9-0.3l-1.7-1.7h-3.1l-1.7-1.1l-2.4,0.2l0,0l0,0l-1.3-1.3h-2.6h0l-1.8-1.8l-0.5-1
		l-1.2,1l-0.2,1.4l0,0.4l0,0l-1.4,1.4l-0.3,3l-0.9,2l-1.2,2.1h-2l-0.6,1.7l0.1,0.3l2.1,1.2l0.6,3.2l1.4,1.4l2.3,1.4l0,0l1.3,1.3
		l2.6,0.6l2.4-0.7l3.5,0.9v0l0,0v1.9L142.2,339z"/>
	<polygon class="st0" points="120.1,361.8 119,362.9 119,363.9 120.4,365.4 120.7,367.3 122.2,367.8 124.6,367.8 127.5,368.9 
		129.6,366.1 130,366.2 131.1,366.6 132.1,365.6 135.3,364.7 135.3,364.7 135.3,364.7 135.8,365 137.3,365.9 138.7,367.3 
		139.5,367.2 139.5,365.8 141.1,364.2 143.4,365.8 144.8,364.8 144.8,362.8 144.9,362.5 145.8,361 146.5,359.8 145.8,358.7 
		145.1,357.3 142.9,357.3 142.9,357.3 142.8,357.3 142.5,357 141,355.4 140.9,355.2 140.9,355.2 140.1,353.6 138.5,353.2 
		135.8,353.7 134,353.7 132,355.3 131.7,355.1 131.7,355.1 129.4,353.3 128.8,353.1 128.1,353.8 124.9,353.4 124.3,351.2 
		123.3,350.2 122,350.2 119.8,352.3 118.8,352.5 119.7,354 119.6,355.3 120.9,356.6 120.1,359.2 	"/>
	<polygon class="st0" points="203.1,412.9 206,411.8 208.6,412.9 210.6,412.2 210.6,408.6 214.8,406.2 217.4,405.6 216,403.1 
		216.8,400.8 215.2,399.3 214.9,397 209.9,397 207.5,395.8 203.9,397.8 203.9,401.4 201,404 200,405.6 200.8,407.5 199.3,409.7 
		199.7,410.6 	"/>
	<polygon class="st0" points="109.6,376.3 107.9,376.3 106.7,375.4 105.3,375.8 104.1,377.6 102.3,377.5 100.9,378.7 99.4,378.7 
		98.6,380.6 97.5,381.5 98.8,383.3 100.6,386.6 100.6,390.3 99.4,392.8 101.3,393.2 103.5,393.2 105,391.7 108,395 108,396.3 
		111.3,396.9 113.6,396.5 117.5,398.9 120,401.4 120.4,402.9 120.5,402.9 120.5,400.9 122.7,398.7 124.9,399.5 125.6,398.9 
		124.6,398.2 122,397.8 122,394.8 121.3,394.1 119.3,393.7 118.7,389.8 117,387 116.6,383.9 115.1,383.2 114.6,381.9 112.7,381.4 
		112.7,378.6 112,378 110.3,377.4 	"/>
	<polygon class="st0" points="155.9,360.8 156.4,360.8 156.2,359.9 156.2,359.9 156.2,359.9 157,358.8 157.6,358.1 157.9,357.7 
		158,357.7 157.8,357.4 156,356.7 155.9,356.2 155.3,355.1 155.1,355.3 155.4,356 153.8,358.3 153.8,358.3 153.8,358.3 153.2,358.2 
		153.2,360.2 153.2,360.3 154.3,359.2 	"/>
	<path class="st0" d="M140.3,351.1l-0.4,0.6l1.3,0.4l0,0l0,0l1.1,2.2l1.2,1.3h2.6l0,0h0l1.2,2.3l1.2,2.1l-0.3,0.5l-1.7,2.9v1.8
		l1,1.6l2.3,0.5v0l0,0l0,2.7l-0.5,1.6l0.6,1.9l-0.8,2.6l0.1,0.9l0.8-0.1l0.3-1.6l2.9-0.6l0,0l0,0l0.7,0.7l2-0.1l0.9-0.9l3,0.6
		l0.9,0.3l0.3,0.1l1-0.2l0.8-0.8l0,0l0,0l0.7,0.1l1.4,0.1h0.8l0-1.8l1.2-0.5l0.3-1.1l0.2-2.3l-0.8-0.8l-1.6-0.6l-1-2v-1.6l-1.2-0.5
		l-0.7-1.8l-0.5-1.3l1.9-1.4l-0.1-1.9l1.4-1.4l0.3-1.1l0.3-1.1l0.3-0.1l1.1-0.5c-0.2-0.6-0.3-1.1-0.3-1.4l-0.1-0.2l0.2-0.3
		c0-0.1,0.1-0.1,0.1-0.1c0,0,0,0,0,0l0.1-0.2l-0.8-0.3l-1.9-1.1h-2.7h0l-1.6-1.6h-2.2l0,0h0l-0.2-0.1l-2-1.1l-0.6-0.4l-0.4-0.3h-2.7
		l0,0h0l-0.3-1.8l-0.9-0.1v-1.4l-0.9,0.3l-1.3,1.9h0h-1.8l-0.6,0.8l-0.8,2.7l-3,1.2L140.3,351.1z M151.4,359.8v-3.7l0,0v0l1.5,0.2
		l0.4-0.5l-0.4-1l1.6-1.4l2.8-0.7v0l0,0l-0.1,2l0.4,0.7l1.3,0.5l1.8,1.8l-1.6,1.5l-0.2,0.2l-0.7,0.9l0.5,2.3h-3.6h0l-0.8-0.8
		l-0.7,0.7l-3.3,0.2l0,0l0,0L151.4,359.8z"/>
	<polygon class="st0" points="150.4,421.8 151.7,421.7 153.2,420.3 155.8,418.9 158.6,417.2 159.6,415.4 161.8,415.4 162,411.7 
		160.8,409.5 161.3,405.3 160.7,402.7 160.7,402.7 160.7,402.6 161,402.3 163.6,399.5 162.7,398.6 161.4,398.7 160,397.4 158.6,399 
		154.8,398.4 153.8,395.9 151.6,395.2 149.8,395.4 146.9,397.4 144.4,400 142.6,400.6 142.3,401.3 143.2,402.4 142.8,404.5 
		144.5,406.2 143.7,409.9 141.6,409.9 140.9,410.5 141.9,411.5 141.9,411.5 141.9,411.5 141.2,413.8 142.5,415.1 145.4,416.3 
		146.5,418.4 148.3,420.2 149,422.4 	"/>
	<polygon class="st0" points="162.6,420.5 163.6,421.4 165.3,422.1 167.4,424.1 171,423.9 171.9,427 173.6,428.1 177,429.5 
		180,431.2 181.6,431.2 184.3,430.4 185.7,432.1 186.8,430.5 188.3,427.6 189.4,427.1 189.7,426.4 188.6,425.3 188.6,422.5 
		190.1,421 190.1,417.9 189,416.2 187,416 183.2,412.2 180.9,412.2 179.7,413.4 175.6,409.8 175.6,406.8 173.8,404.9 172.1,404.9 
		169.1,403.7 168,402.6 165.8,403.4 165.5,400.8 165.2,400.7 165.1,400.7 163.8,402.1 162.7,403.2 163.2,405.3 162.6,409.1 
		163.9,411.3 163.5,417.2 160.6,417.2 160.5,417.5 162.3,418.5 	"/>
	<polygon class="st0" points="202.1,400.6 202.1,396.7 206.2,394.4 204.8,391.9 206.6,390.1 206.3,386.2 210.1,386.3 212.2,384.1 
		216.2,386.6 218,384 220,382 223.2,381.4 226.1,383.1 229.2,380 226,376.8 223.5,374.9 223.4,375 222.8,374.4 222,373.8 
		222.1,373.7 222,373.6 219.1,373.6 217,371.6 216.1,369.4 214.5,369.4 212.8,371.1 207.7,372.4 204,371.6 201.7,371.6 200.5,374.6 
		196.4,374.6 194.7,372.9 193.8,373.8 193,377 190.6,379.3 186.5,379.8 183.7,380.7 183.7,380.8 183.2,380.8 181.6,381.3 
		181.7,381.1 180.3,381.3 178.5,383.2 176,383.7 174.7,385 174.7,386.9 175.9,387.7 176.9,388.7 177.2,388.9 177.2,389 177.2,390.7 
		177.6,391.7 178.8,393 181.9,393 182.7,395.5 184.3,397.1 184.3,400 186.1,401.8 186.8,404 188.1,404.4 189.2,402.7 192.9,402.6 
		193.7,401.9 197.8,401.6 197.2,404.2 197.7,404.7 198.4,404.7 199.5,402.8 	"/>
	<polygon class="st0" points="168.4,373.3 167.6,373.7 167.6,374.8 169.2,376.1 168.7,377.7 170.7,378.3 171,380.3 172.5,380.7 
		174,383.1 175,382 177.6,381.5 179.5,379.6 182.2,379.2 183.4,374.8 184.8,371.4 179.1,365.7 174.9,364.2 174.9,361.2 176,359.1 
		175,357.4 173.4,357.4 171.7,359.1 169.3,356.7 167.3,355.2 167.2,354.5 167,354.6 166.5,356.4 165.4,357.5 165.5,359.6 
		163.9,360.7 164.3,361.7 165,362.1 165.9,362.4 165.9,362.4 165.9,364.8 166.3,365.7 166.5,365.8 167.7,366.3 169.3,367.9 
		169,371.4 	"/>
	<polygon class="st0" points="150.3,393.5 151.8,393.4 155.2,394.4 156.1,396.8 157.9,397 159.9,394.8 162,396.8 163.5,396.8 
		165.4,398.8 165.7,398.9 166.2,399.2 167.5,398.3 168.5,397.3 168.5,395.6 170.8,395.6 173,393.3 174.9,392.9 175.7,392 175.3,391 
		175.3,389.8 173.2,388.1 172.9,387.9 172.9,387.8 172.9,384.9 171.3,382.2 169.5,381.7 169.1,379.7 166.4,378.8 167.1,376.8 
		166.4,376.2 164.8,376.2 163.9,376.1 163.5,376.1 162.9,376.6 160.8,377.1 160.8,377.1 160.8,377.1 160,376.8 159.2,376.5 
		157.4,376.2 156.7,376.9 153.2,377.1 152.8,376.7 152.6,376.5 151.8,376.7 151.5,378.4 149,378.7 148.1,380.2 148.1,382.2 
		146.3,383.6 145.1,385.4 145.8,386.5 145,388 145.2,388.4 147,387.2 149.7,390 	"/>
	<path class="st0" d="M169.2,350.7c-0.2,0.3-0.5,0.6-0.7,0.9l0.1,0.3l0.1,0l0.2,1.1l0.2,0.7l-0.1,0.1l0.1,0.5l1.5,1.2l1.2,1.2
		l0.9-0.9h2.5l2.1-2.1h4.2l1.5,1.5l2,0.4l0.7-2h2.1l2.9-3.1h1.8l0.9-2.1l3.7-0.1v-1.4l-3.6-3.6v-6l-1.9-1.9l-1.4,1.4l-4.5-3.1
		l-1.3-1.3l-2.4,0.2l-1.7,0.3l-2.5,1.1l-1.1,3.4h0h-2.2l-0.5,1.1l0.7,2.8l-1.8,1.8v0.9l1.3,3l-3.5,2.2L169.2,350.7z"/>
	<polygon class="st0" points="184.3,378.6 186.2,378 189.8,377.6 191.3,376 192.1,372.8 194.7,370.3 197.2,372.8 199.2,372.8 
		200.4,369.7 203.2,369.7 203.2,368.4 200.3,366.9 200.3,363.8 198.9,363.8 195.1,361.4 194.2,358.8 194,358.7 191.6,361.1 
		189.9,359.4 187.2,359.4 185.2,357.4 182.1,356.7 180.7,355.3 178,355.3 176.7,356.7 178.2,359 176.7,361.7 176.7,362.9 
		180.1,364.1 186.9,371 185.1,375.5 	"/>
	<path class="st0" d="M148,368.7l-1.6-0.3l0,0l0,0l-1-1.7l-2,1.3l-2.1-1.4l0,0v2.1l-3.2,0.6l0,0l-2-2l-0.9-0.5l-0.2-0.1l-2,0.5
		l-1.5,1.5l-1.3-0.5l-1.5,2l1,4.7l1.8,3.5l3.4,1.8l-0.2,0.3l0.3,0.2l-1.5,1.5l0.8,2.6l1,1l1.2,1.8h0.7l0.5-1.1
		c0-0.1,0.1-0.2,0.1-0.3l0.2-0.4h0.2c0.2-0.2,0.8-0.3,2.2-0.1l0.1-0.2l0.6-1.1l2.3-0.2l1.6-2.2l1.2-0.9v-1.6l1.1-2l-0.2-2l0.7-2.4
		l-0.6-1.9l0.6-2V368.7z"/>
	<polygon class="st0" points="207.7,370.5 211.9,369.4 213.7,367.6 217.3,367.6 218.6,370.5 219.8,371.8 222.7,371.8 223.4,372.4 
		225.2,370.6 229.6,369.1 230.9,370.3 232.3,368.8 236.1,368.8 236.6,362.2 238,360.5 236,358.7 234.3,361.3 230.9,360.5 
		229.1,362.3 226.5,358.6 221.1,355.7 220.8,355.6 220.8,355.6 220.8,355.6 219.7,352.5 217,349.9 212.9,349.1 211.1,345.2 
		208.5,346.5 205.1,345 201.7,345.8 199,347 199,350 194.7,350.1 193.8,352.3 191.6,352.3 188.7,355.3 187,355.3 186.7,356.3 
		188,357.6 190.6,357.6 191.6,358.6 193.4,356.7 195.6,357.2 196.6,360.2 199.4,362 202.1,362 202.1,365.8 205,367.3 205,369.9 	"/>
	<path class="st0" d="M343.3,428.5v-4.1v0l0.7-1.4l-1-1h-2.2h0l-0.2-3l-1.5-1.8l-2.8-1.5l-0.8-4.4l1.9-1.9v-2.3l-2.1-2.1l0.9-3.5
		l-0.6-5.2l-0.1-0.4l0.3-0.3c0.2-0.2,0.8-1.2,1.4-1.8v-3.4l-1.7-1.8l-2.2-4l-5.4-5.4l0,0l-1.4-1l-1.2-1.2l-0.3-0.2v0l0,0v-1.8
		l-0.2-0.2l-0.8-0.5l-0.8,0.8l-0.7,1.8v2.8l-3.1,1.6v2.7l-1.9,4.6l-3.1,2.8L312,395l-2.3,2.3H307l-1.9,1.7v3.2l2,3.2l-1.2,4
		l-1.4,1.4v0.3l2,2.1l-2.5,2.5l-2.3,1.9L299,417l-2,1.3l0,0.6l1.6,1.6l-4.2,4.2l-2.2-3.2h-1l-1.3,2.1l-0.7,3.1l-3.1,1.5h-3.5
		l-0.3-0.3l-0.4,0.7v2.8l-1.5,1.5l-1.5,1.6l1.4,2l3.2,2.3h2.4l1.4,2.1l0.8-0.8l-0.1-0.3l0.6-0.2l1-1l0.1,0.5l1.5-0.6l3.1,2.1
		l0.8,1.4l2.8,0.9l0.5,1l1.8,0.2l1.6,1.6l1.8-1.7l2.9,1.7l2.7,2.7l0.7-0.5l3-2l0,0l0,0l2.6,1.2h2l2.1,0.9l2-0.8l0,0l0,0l1.9,3.3
		l3-2.3h4l0.9,1.2l0.7-0.5l-0.8-2.6l1.3-1.3l-0.6-3.3l3.3-3.3l2.2,0.6l1.9-1.9l2.2,0.9l2.6-1.3v-1.9l-0.7-2.2l0.8-2.7L343.3,428.5z"
		/>
	<polygon class="st0" points="590.4,234.3 592.2,234.3 592.8,235.6 593.6,235.2 595.3,233.5 595.3,231.5 593.6,231.5 592.5,231.7 
		590.4,233.8 	"/>
	<polygon class="st0" points="559.6,185.9 559.6,185.9 559.3,186 559.3,186 	"/>
	<polygon class="st0" points="698.5,422.1 699.9,423.5 701.1,423.5 702.5,422.4 702.8,421.6 698.7,417.5 698.7,417.5 698.7,417.5 
		697.6,414.5 695.5,414.3 695.5,414.2 695.5,414.2 695.5,411.6 693.7,409.6 692.3,408.3 691.2,408.3 691.2,410.1 688.5,412.8 
		683.9,412.1 683.9,412.1 683.9,412.1 683.9,409.6 682.5,408.3 682.5,408.3 682.5,408.3 682.5,406 680.1,405.6 676.9,404.1 
		673.8,404.5 671,404.1 669.6,405.7 668.7,408.7 666.8,410.7 667.6,413.4 666.3,417.2 663.6,420 663.6,425.4 659.6,428.1 
		659.6,433.6 659.6,433.6 659.6,433.6 656,428.7 656,426.1 654.8,424.8 653.9,425.2 653.4,427.7 647.7,429.9 645.9,429.9 645,432.3 
		643.3,435 639.1,435.3 634.9,431.1 634.9,431.1 634.9,431.1 634.5,423.1 634.5,423 635,418.5 635,414.1 635.6,410.4 635.6,407.4 
		633.5,406.5 631.1,405.7 631.1,405.7 631.1,405.7 630.8,403.4 630,401.7 628.2,399.8 628.2,399.8 628.1,399.8 628.1,397 
		629.4,395.8 629.6,393.7 628.5,392.6 626.5,392.6 623.5,391.2 623.5,391.2 623.5,391.2 623.5,388 624,387.5 623.5,386.9 
		623.5,386.9 623.5,386.9 622.6,383.4 620.8,380.3 619.1,379.1 616.8,379.8 613.3,380 613.3,380 613.3,380 613.3,375.4 615.4,374.8 
		615.4,374 614.4,373 614.1,373.7 612.3,375.4 610.6,375 608.8,376.8 606.9,377.5 605.9,379.7 605.9,382.2 607,385.3 606.1,387.9 
		606.1,389.6 610.5,394 610.5,394 610.5,394 609.5,396.9 608.8,398.1 610.9,400.2 610.9,400.2 610.9,400.2 608.3,402.8 607.3,403.5 
		607.3,407.6 605.6,408.6 604.9,411.4 602.5,412.4 603.2,415.8 601.9,417 601.5,419.9 602.1,422.3 603.3,422.9 605.3,424.9 
		606.1,424.1 609.7,425.5 609.7,425.5 609.7,425.5 609.7,428.6 611,432.1 608.4,431.8 606.9,434.6 607.1,435.1 609.4,435.1 
		610.8,438.1 610.8,438.1 610.8,438.1 611.9,440.9 610.2,442.6 608.9,444.6 608.9,446.5 607.9,448.9 604.7,448.9 602.8,447 
		600.1,447 599,445.1 596.5,444 596.5,444 596.5,444 596,442.5 594.9,442.2 592.9,443.5 592.4,445.8 592.7,446.6 593.8,449.1 
		591.4,452.7 588.2,455.9 586.1,458.9 585.3,462.2 584.3,464.4 586.8,466.9 586.8,466.9 586.8,466.9 583.3,469.3 579.6,466.8 
		579.6,466.8 579.6,466.8 578.1,463.3 576.2,461.4 574.8,462.1 573.8,465.5 569.3,467.1 566.2,466.5 563.9,467.1 563.9,471.3 
		562.1,473.1 562.1,476.6 564,478.6 564,478.6 564,478.6 565,480.7 565.7,482.3 565.7,482.3 565.7,482.4 565.7,485.1 563.1,486.4 
		561.9,489.4 559.9,489.4 559.4,491.7 558.5,493.7 560,495.9 560,495.9 560,495.9 560.1,499.1 558.9,499.9 558.9,502.9 559.6,505.1 
		558.5,507.1 559,510.2 554.4,510.4 554.4,512.5 552.2,512.1 552,512.6 554.4,514.2 558.7,518.4 560.4,519.4 563.2,519.4 
		565.5,521.2 569,521.7 571.9,524.5 573.5,525.2 576.3,525.2 578,523.5 580.8,526.3 587.1,520.1 587.1,520 587.8,520.4 590.4,522.1 
		590.4,522.2 590.8,522.5 590.1,524.1 592.4,525.3 593.9,526.7 597.7,527.9 599.5,529.6 601.5,530.7 603.3,532.6 608.2,531.5 
		608.6,531.9 612.4,535.5 615.3,535.5 615.3,538.3 616.6,540.4 621.1,540.4 621.8,542.7 624.4,541.2 626.2,541.2 626.2,537.3 
		630,533.5 634,528.8 636,523.5 641.6,517.9 647.4,510.9 648.3,500.2 650.2,493.9 647.3,493 647.3,493 647.3,493 647.2,492.5 
		644,477.6 643.9,477.2 643.9,477.2 643.9,477.2 645.4,474.5 646.2,473.7 644.6,472.6 641.7,471.7 640.6,466.5 646.1,462.4 
		647.8,462.4 647.8,459.7 651,458.3 654.3,459.4 656.8,458.5 656.8,455.7 660.3,453.3 661.8,454.9 665,454.9 667.6,453.1 
		669.4,454.8 673.4,455.7 675.4,453.6 677.5,454.7 680.3,451.9 682.1,451.9 682.1,446.3 685,444.8 686.9,440.9 690.7,441.8 
		692.9,444 690.5,446.4 690.9,446.4 693.2,445.1 696.3,445.9 697.4,443.7 699.7,442.3 700.1,440.2 699.1,439.2 699.1,438.3 
		697.3,439.1 692.1,433.8 693.3,430.7 691.9,429.3 693.1,426.7 691.8,425.4 695.3,421.9 	"/>
	<polygon class="st0" points="539.8,189.4 541.3,188.4 545,186.5 547.6,186.2 550.7,183.9 552.1,181.3 551.2,179 550.4,177.7 
		548.7,178.4 546.7,174.9 546.3,174.4 545.5,175.3 544.6,177.8 542.8,177.5 542.8,175.6 542.9,172.3 542.4,171.2 542,171.2 
		540.5,173 540.7,175 539.9,176.3 540.4,180.1 538.7,181.8 538.9,185.3 538,188.6 537.5,191.1 537.6,191.1 	"/>
	<polygon class="st0" points="121.4,432.6 122.4,434.1 123.7,434.1 125.1,432.7 129,432.7 132.1,429.6 133.3,425.5 138,425.5 
		140.2,423.5 143.4,424.1 144,426 145.8,427 148.2,427 148.6,426.6 148,424.9 147.9,424.9 147.6,424 147.3,423.2 147.4,423.2 
		146.7,421.2 145,419.4 144.1,417.7 141.4,416.6 139.1,414.3 139.8,412 139.5,411.6 139.4,411.7 138.9,411 138.2,410.3 138.3,410.3 
		136.7,408 134.4,407.8 132,405.4 132.5,403 130.2,402.2 129.1,400 127.3,399.7 125.4,401.6 123.2,400.8 122.3,401.6 122.3,404.1 
		121,404.7 121.5,406.6 120.5,407.4 122.1,409 120.4,412.3 119.2,412.3 119.2,414.3 119.8,417.1 117.4,418.3 117.4,421.2 
		115.8,421.3 116.3,422.9 114,424 115.4,425.7 115.4,428.6 116.8,429.3 117,429 119.2,431.2 119.2,432.6 	"/>
	<path class="st0" d="M590.8,242.1l-1.2-0.3l0.1,1l1.4,1.1l0,0l0,0l-0.5,2.3l-0.8,0.9l0.4,1.1l1.2,1.9l1.6,1.6l0,0l0,0l-0.6,3.2
		l0.8,1.7l3.3,1.2v0v1.8l3.8,2.8l2.2,2.2v0v3.9l1.8,3.4h2.7l0.4,4.9h0l0,0H606l-0.5,1.7l-3.2,3.2l-2.1,1.4l0.1,2.6l0,2.4l0,0.6
		l-2.4,0.9l-0.5,2l1.6,1.6v0v3.1v0l-1.3,3L594,298l-1.7,0.5l-3.3,4.6l-2.9,1.1v0.5l0.7,1.8l0,0l0.3,0.8l0.7,1.6l2.8,1.9l0,0l0,0
		l0.3,5.3l2.7,4.9v0l0,0v2.1l0.7,3.7l1,6.7l-2.7,0.8l-1.5,2.3l-1,1l0.2,0.6l0.2-0.2l4,1.6v0l0,0v2.7l1.5,1.4l0,0l0,0l-1.5,1.3v1.7
		l2.5,1.4l0,0l0,0l0.9,4.3l3.3,3.3l0,0l0,0l-1.3,3.7l-1.6,2.5l0.7,2v0l0,0v2.5l-0.9,0.9v2.1l0.9,0.4h1.9l1.2-1.2h2.2l1.2,1.4
		l2.5-0.9l1.9,0.8l1.5-1.5l3.4,0.2l0,0l0,0l0.1,2.3l2.1,2.1v0l0,0v3l-2,0.6v1.3l1.4-0.1l2.9-0.9l2.8,2l2.1,3.8l0,0l0,0l0.8,3.1
		l1.5,1.5l0,0l0,0l-1.3,1.3v1.2l1.7,0.8h2.3l2.2,2.2l0,0l0,0l-0.4,3.5l-1.1,1.1v1.3l1.6,1.6l0,0l0,0l1,2.4l0.2,1.3l1.4,0.5l3.3,1.4
		v0l0,0l0,4.4l-0.6,3.7l0,4.3l-0.5,4.5l0.4,7.2l3.1,3.1l2.4-0.2l1.2-1.8l1.1-3.3h2.9l4.4-1.7l0.5-2.4l2.9-1.3l2.7,2.7v0l0,0v1.7
		l3.9-2.7v-5.2l3-3l1-2.9l-0.9-3.2l2.3-2.3l0.9-2.9l2.2-2.7l3.6,0.5l3.4-0.4l3.5,1.7l3.6,0.5v0l0,0v3.1l1.4,1.2v0l0,0v1.8l2.1,0.3
		l1.5-1.5v-2.9h3.7l1.9,1.9l2.3,2.5v0l0,0v1.7l1.6,0.2l0,0l0,0l1.4,3.8l4.6,4.6l0,0l0,0l-0.5,1.7l1.4,1.4l0,0l0,0l0.7,3.2l3.1,1.1
		l0,0l0,0l2.4,3.1l2.6,0.9v0l0,0v2.6l1.3,0.3l2.3-2.3l3.2-2.7h2.9l1.8-1.8l2.1,2.1l1.5,0.3l1-1h3.9l0,0h0l1.2,1.6h0.7
		c0.1-0.4,0.2-0.9,0.4-1.6l0.1-0.4l0.1-0.4l0,0l0,0l4.1,0.8l1.2-1.2l3.3-0.7l3,1.3l2.9,2.9l2.1-0.9l2.4-0.6l1.5-2l2.2,1l1.3-1.3h2.5
		l1.2,1.2l5.7-5.7l2.7,0.4v-1.6l4.9-1.8l2.2,0.4v-38.8l-1.8-1.8l1.8-0.4v-6.2l0-0.1l0-0.1v-2.9l-1.2-1.2l1.2-1.6v-1l-0.7-0.7v-4.2
		l0.7-0.4V156.3l-1.7-1.7l-3.8,0.2l-4.6,0.7l-2.7,3.2l-3.2,3.2l-3.6,5.3v4.4l-3.3,4.1l-3.1,3.1l-3.8,0.2l-2.7-1.4l-3.1,1.7
		c0.7,3.3,0.5,3.5-0.1,3.9l-0.6,0.3l-0.6-0.5c-0.3-0.3-1.5-1.5-2.2-2.3l-1.7,2h-3.9l-0.1,0c-0.4-0.1-1.7-0.6-1.9-1.7
		c-0.1-0.3-0.1-0.9,0.5-1.5c0.5-0.5,1.2-1.3,1.6-1.9l-1.6-1.1l-4.1,1.8l-2.8,1.3l-1.2,3.4l-0.5,1.9l0.9,4.8v3.3l-4.7,4.4l1-7.7
		l-1.6-0.5l-2,2l-4.5,2.1l1.7-6.4l0.4-0.2c1-0.4,2-0.9,2.3-1.2c0-0.1,0-0.2-0.1-0.2l-3.7,1.6l-5.3,2l-1.2,3.4l-4.8,2.4h-2.7
		l-0.9,0.9l2.5,1.6l0.6,3l-3.4,3.1v2.3l0.5,0.3l1.6-4.1l2.4,2v3.2l2.3,1.3l2.2,2.2l2,1.1l-3.4,3.4l-2.9-0.2l-1.8,1.9l2.9,1.3v4.1
		l-4.3-1.2l-2.7,0.1l-3.5,0.8l-1.8,3.3l0.9,4.7h-4.8l-3.7,1l-2.3-2.3l-2.5-0.3v1.3l2,2v2.3l0.8,2.1l1.6,5.3l-0.5,4.4l-4.1-2.1
		l-1.2,1.2l-3.8-0.7l-2.6-1.7l-2.7-2.7l-3.7,0.1v-3.1c-0.1-0.1-0.1-0.2-0.2-0.3c-0.5,0.5-1.2,0.8-1.5,1l-0.6,0.3l-3.2-3.2l2-2
		l1.5-0.5v-2.3l-0.7-0.7l-3.7,2.3v-4.2l-1.2-1.2h-2.6l1.3-4l-2.2-0.7l-1.2,1.2l-3.1-2.4c-0.4,0.5-0.9,0.9-1.6,0.9
		c-0.2,0.3-0.3,1.1-0.2,1.9l0,0.5l-2.3,1.7l-1.4-1.6l-0.2,0l-0.8,2.5l-3.6-2.5l-1-1l-1.9,1.4l-1.2-1.2l-0.1,0.3l-0.5,3.1l2.2,3.4
		l0.5,3.2c0.5,1.7,0.5,2.8,0,3.4c-0.2,0.3-0.6,0.5-0.9,0.5c-0.4,0-2.3,0.3-3.7,0.5l-3.1,2.7l-4,1.5l-1.1-1.7l-0.2,1.5h-5.9l-3.4-3.4
		l1.2-1.2l-0.4-0.6l-4,1.2l-5.6,1l-3.5,1.8l-3.5,3.5l3.1,2.9h-4.9l-2.3-3.2V240l-0.6-0.6l-1.2,1.7l-0.9,2.6L590.8,242.1z"/>
	<polygon class="st0" points="512.5,166.5 514.5,167.1 515.1,167.7 515.8,166.9 516.4,165.5 515.6,164.9 513,164.3 512.3,164.2 
		512.5,165.6 	"/>
	<path class="st0" d="M527.8,161.8l-1.8,0.6c-0.7,0.2-1.9,0.5-2.2,0.5l-2.1,0.7l-0.8,1.7l-0.6,1.9l-1.1,1.3l0.4,1.9l-1.6,1.2
		l1.3-0.4l1.9,2.7l0.1,1.8l0.8,1l3.4,0.3l0.3,1.2l1.9-1.2l1.4,2.3l2.4,0.9l2.3-1.1l0.9-1.3l-0.8-1.6l-2.3-3.2l1.8-1.3l0.4-1.8
		l-0.7-2.6l0.2-2.2l-2.1-1.1l-0.7,0.9l-1.5,2.7l-2.5-1.1l0.9-3.3V161.8z"/>
	<polygon class="st0" points="695.4,181.1 694,182.4 691.3,185.1 691.9,186.5 693.5,188 696.7,187.4 699.3,186.3 702.2,184.6 
		700.9,182.3 698.7,182.3 	"/>
	<polygon class="st0" points="693.9,156.8 695.6,155.1 698.3,155.1 700.6,154.2 702.7,153.3 703.7,152.2 703.7,150.5 704.8,147.5 
		703.6,146.6 701.2,147.7 699.8,149.4 697.7,151.4 696.2,151.4 695.3,150.3 690.9,154.6 690.6,154.5 691.7,156.1 	"/>
	<polygon class="st0" points="686,182.2 686.7,184.1 687.3,184.7 687.9,183.5 687.9,182 687.5,181.6 686.6,181.7 	"/>
	<polygon class="st0" points="663.5,173.4 664.3,173.4 666.8,176 666.3,178 668,178.8 671.4,178.9 672.8,180.3 674.8,180.3 
		676.9,179.7 676.9,178.6 674.7,176.5 677,174.3 678.2,175.5 680.3,171.8 683.4,168.7 684.4,169.7 685.8,168.3 686.1,167.3 
		685.1,167 683.3,168.8 680.6,166.8 678.2,165.3 675,163.1 676.2,160.4 676.5,160.2 675.6,160.8 673.8,159 671.1,159.8 671.2,161.2 
		675.3,165.3 672.4,167.7 670.4,165.9 669.3,167.1 667.5,165.3 664.2,165.9 663.3,165.4 663.2,165.7 664.7,167.2 662.1,168.7 
		662.1,170.4 663.8,172.1 	"/>
	<polygon class="st0" points="681.3,163.9 683.5,164.3 685.1,163.6 686.2,163.6 687,162.9 686.6,161.2 684,161.2 684.7,157.7 
		684.7,157.2 683.9,157.5 679.8,157.5 678.9,158.4 680.1,162.7 	"/>
	<polygon class="st0" points="660.6,179.7 660.6,179.1 660.1,177.9 659.9,177.6 660.5,179.7 	"/>
	<polygon class="st0" points="515.8,161.2 517.6,162.7 519.6,160.8 521.3,160.8 523.7,159.4 525.7,158.8 525.1,156.7 525.1,152.8 
		526.4,151.7 522.6,148 521.7,145.9 520.6,145.6 520.3,147.4 517.9,148.5 515.3,150.2 515.3,152.2 516.9,153.8 514.7,156 514,157.5 
		515.2,159.2 	"/>
	<polygon class="st0" points="497.6,513.8 498.3,513.2 497.2,513.5 	"/>
	<path class="st0" d="M395.4,440l1.1,1.1l2.6,0.9l1.4,1.4h2.7l1.9,1.7h1.7l0.8-1.1l0.2,0.7l2.9-1.7l0.5-3.1l0,0l0,0l4.6-3.3l4.5-1.2
		l-0.2-4.3l0.1-0.2l1.8-4.4l1.8-3.6l0.2-0.4l0,0l0,0l5.6-0.9l3.7,1.6h5.5l1.3,2l4.2,0.5l4.1-1.6l3.6,3.6l2.7-0.7l3.4,1.7l0.3-1
		l0.6-2.1l0,0l0,0l6.8-2.9l5.4,4l3-3l5.3-2.3l1.6-2.6l-3.5-1.5l-4.2-2.8v0l0,0l-0.1-4.8l-2.7-3.4h-1.5l-2.8,0.9l0,0l-0.1,0l-2.5-4.1
		l-3.5-1.1l-1.8,1.8l0,0l0,0l-3.9-5.1l-0.8-2.1l-2.2,1.5l-2.6,1.4l-1.3,2.4h-0.1l0,0h-11.8l-2.6-2.6l-3.8-2l1-2.8l-2.7-1.1l-1.6,1.6
		l0,0l0,0l-2.9-2.9l-3.2-0.9l-2.8,0.7l0,0l-0.1,0l-3.1-3.3h-2.7l-2.3-3.6h-2l-6,0.7l0,0l-0.1,0l-1.4-4l0.7-2.8l-3.3-3.3v-2.9
		l-0.8-3.7l-3.2-3.2h-3.3l-2,2l0,0l0,0l-2.2-2.2l-1.8,1.8l-0.1,0l0,0l-4.9-0.9l-3-3.5l2.6-2.6l-2.6-2.2l-3-1.6l-3.1,1.3l0,0l0,0
		l-3.3-1.4l-4.2,0.9l0,0l-0.1,0l-8-8l3.3-3.3l1-3.3l-0.6-4l0.2-4l-0.5,0.1l-1,0.1l-1.5,1.7l-2.9,1.5l-3,3l0,0l0,0l-4,0.5V339
		l-0.8-0.3l-5,5l-1.2,2.2l0.6,3.6l-3.8,2.4l-0.3,2.7l-3.2,2l-1.8,3.4l0.6,2.6l-1.3,2.5v2.2l-3.8,3.8l-0.3,1.8l1.3,0.8l0.7,0.5v0l0,0
		v2l2.2,1.9l0,0l0,0l4.9,5l0.8,0.8l2.2,4l1.9,1.9l0,0l0.1,0.1v0.3c0.4,2.8,0.2,4,0,4.5v0l-0.1,0.1c-0.1,0.1-0.1,0.2-0.2,0.2
		l-1.3,1.7l0.8,4.5l-0.2,0.7l0,0l-0.7,2.8l1.6,1.6c0,0,0,0,0,0l0.2,0.2v0.1c0.2,0.4,0.4,1.4,0,3.4v0.3l-0.1,0.1l0,0l-1.7,1.7
		l0.5,2.6l2.3,1.2l2.1,2.5l0.1,1.9h1.3l2.5,2.5l-1.2,2.2v2.9l1.4,1.4l1.8,1.4h2.7l1.6-0.5v-1.7l1.8-1.8l4.2,1.1l1.6-1.6h4.6l1.2-1.2
		l4.8-1.7l0.2-0.1l0.8-0.8l-0.2-3h3h0.1l0.2,0.2l3.7,2.5l0.2,0.1l1.9,1.9l2.1,0l3.2,0.9l0.3,0.3l2.4,2.4l1.7,3.1l2.2,3.5v0v2.2
		l3.1,0.5v0V440z"/>
	<polygon class="st0" points="281.6,452.3 283.5,450.4 286.4,449.7 286.4,448.4 288.3,444.9 288.9,442.9 288.8,442.2 287.2,443.7 
		285.1,440.6 283.1,440.6 279.2,437.8 277.6,435.6 276.2,436.2 273.5,435.2 272.3,431.2 269.9,430.8 268.6,428.1 265.8,428.1 
		262.1,425.1 262.1,423.5 261.3,423.2 260,424.6 254.1,426.3 253.8,426.6 254.8,428.1 254.8,430.9 251.1,433.7 248.7,433.7 
		246.5,434.7 245.7,433.8 245.3,434 245.7,435.6 245.7,436.5 247.1,437.9 243.1,441.9 241.6,441.9 241.2,443 240.1,444.7 240,445 
		238.8,445.4 239.2,446.2 239,449.9 240.2,451.2 239.4,455.2 240.7,456 242.9,458.2 244.3,461.9 244.3,465.2 245.4,467.4 
		244.5,469.7 244.5,472.6 244.1,473.5 244.6,473.8 245.9,472.4 249.4,472.4 250.8,474.9 249.6,478 247.8,478.7 249.6,479.2 
		249,483.3 248.1,484.1 248.4,485.2 249.8,485.2 250.2,487 251.4,488.2 252.5,487.6 254.2,485.9 256.7,487.2 257.3,488.8 
		258.6,489.7 259.9,490.1 261.3,489 261.9,487.5 261.8,487.5 262.5,486.2 262.7,485.7 262.8,485.7 263.6,484.3 265.8,483.3 
		266.2,481.4 268.6,477 269.8,477 269.8,475 271.8,472.3 271.8,470.5 275.3,467 277.3,466.4 277.3,465.1 281.1,464.7 282.3,466.2 
		282.7,466.2 282.7,464.4 281.8,461.7 278.9,460.8 277.4,461.8 272.9,461.3 270.6,457.7 270.2,453.7 268.7,452.3 267.9,448.5 
		272.1,445.5 275,446.3 277.6,447.6 279.6,449.7 279.6,451.5 	"/>
	<polygon class="st0" points="510.2,146.8 509.3,146.9 509.2,147 509.6,147.4 	"/>
	<polygon class="st0" points="237.8,443.9 238.7,443.5 240.1,440.7 240.3,440.1 240.4,440.1 242.3,440.1 244.5,437.9 243.9,437.3 
		243.9,435.7 243.2,433.1 246,431.6 246.9,432.5 248.3,431.9 250.5,431.9 253,430 253,428.6 252.1,427.2 249.4,426.2 249.2,423.7 
		250.5,422.9 249.2,421.9 249,419.6 247.5,419.5 246.4,417.9 243.7,416.7 242.4,414.8 240.4,414.6 240.1,415.4 239.3,414.5 
		238.5,414.4 238.7,413.8 236.4,411.1 235.5,407 235.5,406.1 233.6,407.2 231.5,405.1 228.2,405.1 227,403.9 223.9,405.7 
		220.1,406.7 220.1,406.8 219,407 218.3,407.2 218.3,407.2 215.4,407.9 212.5,409.6 212.5,413.5 208.6,414.9 206,413.8 203.9,414.6 
		203.9,415.4 206.2,414.8 208.9,416 208.9,416 208.9,416 209,416.1 213.1,420 215.5,419.1 217.3,420.9 218.1,424.5 220.3,426.6 
		221,428.5 224.2,431.7 225.6,430.3 228.7,430.3 233.2,434.2 232.4,436.4 233.1,438 235.3,438 238.8,441.5 237,443.2 	"/>
	<polygon class="st0" points="459.9,492.7 463.2,489.2 463.5,488.9 463.9,489 467.6,489.2 470.6,487.6 475.8,487.6 481,483 
		484.7,483 487.2,484.2 490.7,482.2 492.2,483.7 494.9,481.1 497.4,480 497.4,475.8 499.6,471.9 502.6,470.4 502.3,468.1 498.9,467 
		495.8,467 495.8,467 495.8,467 495.1,464.6 494.9,464 492.4,460.1 492.4,460.1 492.4,460.1 494.1,455.6 494.1,455.6 494.1,455.6 
		494.2,455.5 498.5,450.9 497.9,450.3 493.2,450.6 493.2,450.6 493.2,450.6 492.2,446.7 489.3,443.8 487.7,441.4 484.5,440.6 
		479.9,440.6 475.7,441.7 471.6,440.4 471.6,440.4 471.6,440.4 470.4,436.4 473.1,433.7 470.5,428.3 465.5,424.7 460.4,426.8 
		459.1,431.2 454.4,428.8 451.3,429.6 447.9,426.1 444.4,427.5 438.9,426.8 437.7,424.9 432.7,424.9 429.2,423.4 425.1,424 
		421.8,431.3 422.1,436.6 416.5,438.1 412.8,440.8 412.4,444 412.4,444 412.4,444 408.3,446.4 408.4,446.6 408.7,447.5 408.7,447.5 
		408.7,447.5 408.5,447.8 407.7,449.7 406.9,451.6 406.9,454.1 408.7,455.9 408.2,459.9 409.8,463.2 410.6,465.3 413.6,466.1 
		415.3,467.8 418.9,467.8 423.1,468.4 426.7,470.3 430.8,472 435.7,476.9 438.4,480.7 445,480.7 447.6,484.3 450.1,484.3 
		453.4,483.5 455.8,481 458.8,482.4 459.5,486.9 459.5,489.4 461,490.9 459.6,492.4 	"/>
	<polygon class="st0" points="199.5,429.2 202.1,429.8 204.3,427.6 207.1,430.6 208.3,429.4 212.3,431 214.1,433.5 214.8,432.8 
		217.6,431.6 219.2,429 218.7,427.6 216.5,425.4 215.6,421.8 215,421.2 212.7,422.1 212.7,422.1 212.7,422.1 212.3,421.7 
		210.1,419.8 207.9,417.6 206,416.7 202.1,417.7 202.1,414.4 199.4,412.6 199.1,412.4 198.6,412.9 198.1,415.5 193.1,416.2 
		191.8,414.9 190.8,415.6 191.9,417.3 191.9,421.8 190.4,423.3 190.4,424.5 191.8,425.9 190.8,428.4 189.6,429 188.3,431.5 
		186.8,433.7 187.6,435.5 189.2,437 194.5,437 196.2,438.8 197.8,438.6 198.1,437.2 196.8,436 196.8,431.8 	"/>
	<path class="st0" d="M461.8,273.9l2,0.5l2.5,1.3l0.8,2.9l-1.5,1.5l0.4,2l-3.5,0.6l-0.8,0.8l0.1,0.3l0.1-0.1l1.3,2.7l3.5,2l-0.4,4.2
		l0,6.1h-0.1v0h-3.4l-1,1.6l-2.3,2.3l-2.4,1.8l0.1,2l1.3,1.3l0.4,1.6l1.5,1.5l3.2,0.5l0.4,2.3l0.2,0.2l2-1.7l0.4,0.7l0.3,0.3
		c0.5-0.5,1.1-1.1,1.1-1.1l1.6-1.5l0,0.1l0.1-0.1l-0.1,4.4l2.3,0.5v2.9l1.5,3.7l-1.2,3.1h-0.1l0,0h-0.2l0.7,1.3l-1.2,3.5l-1.6,1.6
		l-0.7,2.4l-0.1,0l0,0l-1.8-0.4l0,0.9l1.4,1.4l0.6,3.4l-1.1,2l1.1,1.1v2l3.1,1.8l1.7,3.5l-2.3,2.1v0.9l1.1,1.8v3.4l-1.1,0.9l1,1.9
		h1.7l2.2,2.2l1.5,3l0.4,4.1l-1.5,1.5l0.5,2.1l3.2,0.7l1.3,1.3l2.3-2.3l0,0.1l0.1-0.1l0.9,5.5l-0.6,3.1l1.2,2.7l-2.4,2.4l-2.1,2.7
		l-1.2,2.3l2.1,3v4.5l-2.2,2.2l-0.2,3.4l-4.9,4.9l0,3.7l3.4,2.2l5.2,2.3l0,0l0,0l-2.9,4.9l-5.5,2.4l-2.9,2.9l2.9,6.1l0,0l0,0
		l-2.8,2.8l0.6,2.1l2.6,0.8l4.1-1l5.1,0l4,1l0,0l0,0l2,2.9l3,3l0.8,3l4.1-0.3l0,0l0,0l1.2,1.2l1.2,1.2l-0.6,0.6l-2.6,2.9l-2.2,2.2
		l-1.2,3.3l2.1,3.5l0.6,1.8h2.1l4.8,1.6l0,0l0,0l0.6,4.7l-3.7,1.8l-1.7,3v2.9l0.4-0.2l-0.4,1.6v0.5l-0.1,0.1l-0.6,2.5l0.4,1.9
		l0.2,0.2l0.6,0.5l2.3,0.8l0,0l0,0l2.1,4v4.2l0,0.6l0,0v0l-2.2,0.9l-2.1,2.1l1.3,2.2l2.6,2.8l2.2,0.4l1.4-1.4l4.7,0.5l3.4-1.2l0,0
		l0,0l1.4,2.9l-1,3.9l2.9,2.9l1,3.6l3.3,3.3v3.1l0.9,2.6l-1.1,3.6l-2.3,2.3l0.4,3.1l-2.9,2.9l-2.6,1.1l-1.3,3.2l-0.7,0.9l1.9,1.9
		l3.2,1.1h3.5h0l3.1,1.6h2l2.9-1.2l4.5-3.9l2.7-0.8v-3.6l2.3-2.3v-2.8l3.6-0.9l0.9-5.2l2-2l0,0l0,0l4,0.7l2.9-2.9l3.4,0.2l1.4-1.4
		l1.4,0.5l0.2-0.4l-1.5-0.9l-4.2-4.2l-3.4-2.2l0,0l0,0l1.2-3.3l1.6,0.3v-1.7l4.3-0.3l-0.2-1.7l1-1.8l-0.5-1.9v-4l1.2-0.9l-0.1-1.7
		l-1.8-2.6l0,0l0,0l1.2-2.8l0.7-3.5h2.3l1-2.5l2.1-1.1v-1.2l-1.3-3.1l-2.3-2.3v0l0,0v-5l1.8-1.8l0.1-4.8l4.1-1l3,0.5l3.2-1.1l1-3.2
		l3.3-1.7l3.1,3.1l0,0l0,0l1.4,3.4l2.2,1.5l0.7-0.5l-1.8-1.8l0,0l0,0l1.4-3.3l0.8-3.4l2.4-3.5l3.2-3.2l1.7-2.5l-1-2.3l-0.3-0.6l0,0
		l0,0l0.8-3.7l3.3-2.1l2.8,0.7l0,0l0,0l0.6,1.7l2.3,1l0.9,1.5h2.4l1.9,1.9h1.3l0.4-1v-2l1.7-2.7l0.9-0.9l-0.6-1.6l-0.9-1.8h-2.5l0,0
		h0l-0.9-2.4l1.1-2.1l1.5-2.6l0.8,0.1l-0.4-1v-2.2l-1.3-0.5l-1.3,1.3l-3.1-3.1l-1.8-0.8l0,0l0,0l-0.8-3.6l0.5-3.8l1-1l-0.7-3.9
		l2.9-1.2l0.6-2.6l1.5-0.9v-4l1.7-1.2l1.2-1.2l-1.8-1.8l0,0l0,0l1.4-2.3l0.5-1.6l-4.1-4.1v0l0,0v-2.7l0.8-2.3l-1-2.8v-3.2l1.4-3.3
		l2.2-0.8l2.2-2.2l1.8,0.4l0.8-0.8l0.6-1.4l0-0.8l-1-0.1l-1.8,1.8l-2.3-1.1l-3,1.1l-1.5-1.8H603l-1.2,1.2h-3l-2.3-1.1v0l0,0v-4
		l0.9-0.9v-1.5l-0.8-2.5l0,0l2-3.1l0.8-2.3l-2.9-2.9l0,0l0,0l-0.8-4l-2.8-1.5v0l0,0v-3.6l0.6-0.6l-0.6-0.6v0l0,0v-2.2l-1.7-0.7
		l-1.5,1.5l0,0l0,0l-1.5-4.5l1.7-1.7l1.6-2.7l1.9-0.5l-0.7-5.1l-0.7-3.9v-1.8l-2.6-4.8v0l0,0l-0.3-4.8l-2.5-1.7l0,0l0,0l-0.8-1.9
		l-0.4-1l-0.9-2.2v-0.2V303v0l3.5-1.4l3.3-4.7l2.8-0.9l2.6,0.8l0.5-1.1v-1.9l-1.8-1.8l0,0l0,0l1.1-3.9l2.1-0.7l-0.1-4.8l0-0.5
		l2.8-1.9l2.7-2.7l0.8-2.5h0.9l-0.1-1.2h-2.1l-2.5-4.8v0v-3.6l-1.6-1.6l-4.4-3.2v0V259l-2.8-1l-1.4-2.9l0,0l0,0l0.5-2.9l-1.1-1.1
		l-1.4-2.2l-0.8-2l-1.2,2.4l-2.6,1l-2.2,1.8c-0.2,1-0.9,3.1-2.7,3.1c-1,0-2.7,0.5-3.4,0.7l-2.1,1.3l0.6,3.1l-5.2,2.3l1.3-4.5
		l0.6-4.2l2.6-2.6l1.2-3.7l3.6-0.9l0.9-4.4l2.3-2.3l0.8-3.9v-1.7l3.2-3.9l1.7-1.7l1.5-3l1.3-1.9v-3.1l1.5-1.5l-1.4-2.4l-3-1.7
		l-3.3-3.3l5,1l0.2-1.8l-2.6-2.6l-1,1.1l-2.6-2.2l-1.5-3.1l-1.2-1.2l-2.4,1.1l-1.7-1.7l-2.7,1.9h-3.1l-2.1,1.1l0.9,0.9l-1.2,4.1
		l-0.9-0.4c-1.1-0.5-2.5-1-3-1c-0.4,0-0.8-0.2-1.1-0.5c-0.7-0.7-0.6-2.1-0.6-2.5l0-0.3l1.6-1.6l-1.3-1.3h-2.2l-1,1l-6.9-0.4l3.1-4
		l2-2l-0.4-1.8l-1.8,0.2l-2.7-1.6l-2.1,2.2l-2.5,1.8l-2.2,5.4l-0.7,2.2v3l1.2,0.9l0.5,4h-1.9l-3.6,1.1h-1.8l0.1,0.1l1.8,1.4l2.8,3.7
		l-5.2-1l-2.3,0.5l-0.5,2.6l-5.1-0.2l-3.2,3.2v-4.6l0.7-1.3l-0.4,0.1l-0.8,1.7l-3.8,0.5l-3.6,0.8l-0.3,0.3l2.6,0.9l-2,2.3l-4.1,1.2
		l-1.5,1.5l-5.7,0.8l-1.5,1.5l-4,1.5l-1.8,3.7l-3.8-0.1l0,0.5l3.7,0.3l-3.9,3l-1,1.4l1.2,1.2l-0.9,1.9l1.8,2.1l-4.4,1.1v-1.2
		c0,0,0-0.1,0-0.1l-0.7,0.7l0.7,0.7l1.9,0.6l2.1,3.2l-2.3,2.3h-3.1l-3.9,1.7H484v1.3l-4.7-1.8h-6.6l-2.4,2.1l0.6,3l1.5,1.5l-1.6,3.5
		l-0.8,3.1l1,1l2,3.2l3.2,1.2l-0.2,2.5l1.7,2.3l-0.9,3.5h-5.2l-4.3-4.3l1-2.8l-3.5-1.9l-1.7-1.7l-2.2,0.3l-0.5-0.1l0.6,1.6
		L461.8,273.9z"/>
	<polygon class="st0" points="463.5,264.7 464,264.2 464.4,263.1 463.9,262.6 463.5,262.8 463,263.4 463.3,264.5 	"/>
	<polygon class="st0" points="485.8,534.2 485.9,534.7 488.5,537 491.3,537 493.9,538.3 496,538.3 496.2,541.1 496.5,541.1 
		496.5,539.1 500.9,534.7 500,533.7 498.8,531.6 499.3,529.3 500,528.5 499.1,527.3 497.1,525.3 499.9,521.2 500.1,516.7 
		500.1,516.3 501.1,515.4 501.1,514.6 499.7,514.4 497.6,516.4 493.7,512.5 495.2,512.1 497.3,511.3 497.3,509.2 497.9,507.1 
		496.5,504.3 495.2,500.7 498,498.3 500.8,495.5 502.2,494.9 502,491.4 500.7,488.8 498.7,488.1 498.7,488.1 498.7,488.1 
		497.3,486.8 497.1,486.7 497.1,486.7 497.1,486.7 496.6,483.8 497,482.2 495.9,482.6 492.2,486.3 490.4,484.5 487.3,486.2 
		484.3,484.9 481.6,484.9 476.5,489.4 471.1,489.4 468.7,490.6 469.1,494.9 470.1,497.1 471,501.8 470.4,508.1 471.7,509.9 
		471.8,509.9 472.2,510.7 472.7,511.4 472.6,511.5 473.8,513.8 476.5,513.8 478.6,517.9 480.4,519.7 481,522.4 482.8,523.5 
		485.7,523.5 485.9,527.1 483.9,527.9 484.8,529.5 484.8,529.5 485.2,530.1 485.2,532.6 	"/>
	<polygon class="st0" points="482.7,149.2 482.4,149.3 482.4,149.3 	"/>
	<polygon class="st0" points="493.9,552.7 495.4,552.7 496.9,549.7 498.7,549.7 500.1,548.3 500.1,548.2 500.6,548.4 505.7,549.2 
		508,546.9 508,543.4 511.5,541.5 512.4,540.2 513.9,536.6 516.8,535.3 518.9,533.2 518.5,530.1 521.1,527.5 521.9,524.9 
		521.1,522.5 521.1,519.8 518,516.8 517,513.2 513.7,509.9 514.8,505.6 514.4,504.8 512.1,505.6 507.9,505.2 506.4,506.6 
		502.7,505.9 502.7,505.9 502.7,505.9 499.5,502.3 498.4,500.4 497.4,501.2 498.2,503.6 499.9,506.9 499.1,509.6 499.1,512.4 
		502.9,513.1 502.9,516.1 501.9,517.1 501.9,521.4 499.5,525.1 500.5,526.2 502.4,528.7 500.9,530.2 500.8,531.3 501.5,532.8 
		503.4,534.7 498.3,539.8 498.3,542.9 495.7,542.9 492.2,546.4 492.9,549.3 491.7,550.5 	"/>
	<polygon class="st0" points="589,245.3 589.1,244.6 588.1,243.8 587.7,241.6 586.7,241.6 585.4,241.7 585.5,243.3 585.5,243.6 
		586.7,243.7 588.5,245.6 588.2,246.1 	"/>
	<polygon class="st0" points="440.2,134.3 440.2,134 440.1,134 439.1,134.6 439.2,134.7 	"/>
	<polygon class="st0" points="99.5,528.3 100.9,525.3 101.3,523.6 99.2,522 98.4,520.6 97.6,520.9 97.1,523.8 97.7,526.1 
		97.4,528.7 94.8,528.7 94.4,529.5 96.1,529.7 96.7,531.8 97.8,531 	"/>
	<polygon class="st0" points="86.3,517.7 86.3,517.7 86.3,517.7 87.5,517.9 88.8,517.2 91.3,517.2 91.5,517.2 92.5,518.1 93,517.5 
		95.8,517.4 96.4,516.8 96.4,514.9 97.7,513.7 97.9,513.4 96.7,512.6 95.9,511.8 93.8,512.2 90.6,509 90.1,507.5 88.2,507.1 
		86.1,506.4 84.1,507.2 82.8,507.1 81.1,508.7 80.1,509.2 81,511.6 83.8,513.9 83.2,517 84.6,518.3 85.6,517.9 	"/>
	<polygon class="st0" points="202.5,456.6 203.1,453.3 200.5,450.7 199.6,446.8 196.4,445.9 196.4,442.7 195.1,440.3 193.7,438.9 
		188.4,438.9 186.1,436.5 184.9,434.1 183.6,432.5 181.7,433 179.6,433 176.2,431.2 172.7,429.7 170.3,428.1 169.6,425.8 
		166.7,425.9 164.3,423.6 162.6,423 160.9,421.3 160.6,419.7 159.3,418.9 156.7,420.5 154.1,421.9 152.5,423.5 150.8,423.6 
		149.7,424.1 150.8,427 149.5,428.3 149.3,430.4 150.1,433.3 153,433.7 155.6,435.1 155.6,436.5 158.1,436.4 162.3,440.4 
		162.8,445.4 160.4,447.6 161.1,448.3 161.9,447.4 165.1,448.6 165.8,451.9 166.8,452.8 169.3,452.8 169.8,455.6 171.7,457.5 
		171.8,460 173.9,460 176.2,462.2 175.1,465.6 175.1,468.1 176.8,469.8 179.3,470.3 179.5,468.1 181.6,466 182.5,463.9 189.3,463.9 
		190.8,461.7 194.7,461.7 197.6,463.2 200.5,462.2 202.6,460.1 205.8,460.7 205.8,460.4 205.8,460.3 205,459 	"/>
	<polygon class="st0" points="95.9,526.3 95.2,523.8 96,519.6 97.6,519 97.3,518.5 98.7,518.5 99.3,518.3 99.4,518.5 100.8,518.6 
		100.5,517.4 98.4,515.5 98.2,515.7 98.2,517.5 96.6,519.1 93.8,519.3 92.5,520.6 91.9,520 90.6,519 89.3,519 87.8,519.9 
		86.4,519.6 85.3,519.9 85.8,523.7 87.5,525.4 90.8,525.9 93.1,528.1 93.8,526.9 95.8,526.9 	"/>
	<polygon class="st0" points="168.2,456.4 167.8,454.6 166,454.6 164.1,452.8 163.6,449.9 162.4,449.5 161.1,450.8 157.7,447.7 
		160.9,444.7 160.5,441.2 157.4,438.2 153.8,438.3 153.8,436.2 152.4,435.4 148.6,435 147.5,430.6 147.6,428.8 145.3,428.8 
		142.4,427.2 142,425.7 140.7,425.5 138.7,427.3 138.7,427.3 134.7,427.3 133.7,430.5 130.3,433.9 130.5,435.3 132.7,438.8 
		131.2,442.7 127.8,446 129.2,451.3 126.7,456.1 122.6,456.8 120.7,454.9 119.3,455.4 119.3,457.1 117.9,458.5 120.8,460.6 
		120.8,464 119.9,466.4 120.4,468.6 122.9,470.9 125.6,468.4 127.5,470.3 129.3,469.6 130.8,471.1 131.5,470.8 132.7,467.4 
		135.7,468.5 135.7,470.6 136.8,471.8 138.5,472.2 139.5,469.7 144,468.5 144,468.5 144,468.5 145.7,470.2 148.1,470.3 150.7,468.6 
		153.1,471 153.8,473 155,471.8 157.9,472 159.7,471.2 159.7,468.7 164.6,463.9 167.6,463.9 169.2,462.7 170,460.7 170,458.2 	"/>
	<polygon class="st0" points="457.9,267.9 457.3,267.3 456.4,267.5 455.2,268.7 457.1,268.7 	"/>
	<polygon class="st0" points="110.6,489.8 109.1,488.3 108.6,486.4 107.1,484.6 106.9,482.7 105.9,482.3 103,482.8 101.3,481.1 
		100.8,479.8 100.3,480 98,480 97.2,477.7 96.8,477.5 96.3,477.3 96.1,477.5 95.7,477 95.7,477 95.7,477 94.5,476.4 94.9,476.1 
		94.7,476 93.8,476 92.5,477.2 89.6,477.6 88.6,476.2 88.3,476.1 87.8,476.7 87.8,478.4 86.9,479.8 87.5,480.4 88.7,482.8 
		87.6,484.6 89.3,486.3 85.8,489 84.9,489.2 85.4,490.9 84.9,491.9 86.3,492.3 86.3,494.9 87.9,496 88.3,498 90,500.6 86.2,500.6 
		86,500.9 86.9,501.7 86.9,501.8 87.9,503.5 87.3,504.9 88.7,505.3 91.5,505.9 92.1,508 94.4,510.3 96.5,509.8 97.9,511.2 
		100.2,512.8 99.6,514.1 102.2,516.5 102.6,518.3 102.9,518.2 103.5,517.4 103.9,516.9 106.3,516.7 106.3,518.4 106.9,519 
		108.4,519 108.8,517.9 107.5,517.3 107.5,514.5 109.9,514.5 110.2,514.3 109.5,513 111.6,511 113.8,511.7 115.7,511.1 117.6,509.9 
		117.6,507.2 116.3,505.4 115.9,503.2 114.2,501.5 114.2,499.6 113.3,498.3 111.6,496.6 110.2,494 111.3,491.9 	"/>
	<polygon class="st0" points="121.3,523.1 121.3,519.8 122.9,518.2 123,516.1 122.5,514.8 121,514.2 119.9,512.6 118.4,511.5 
		116.3,512.8 113.8,513.7 112,513.1 111.8,513.3 112.5,514.6 110.6,516.3 109.7,516.3 111.1,517 110.1,519.7 112,521.7 113.5,523.7 
		116.9,524 117.3,528.9 115.1,529.7 112.6,531.1 110.2,534 109,538.5 106,536.7 104.6,537.8 102.1,537.6 100.5,538.8 98.1,539.1 
		97.3,540.5 99.2,542.9 100.4,546.3 100.4,547.9 102.8,549.6 103.1,553.5 104.8,558.6 105.2,560.9 107.7,561.4 111.2,560.2 
		113.6,561.2 116.3,560 116,555.7 116.6,551.8 115.7,546.6 115.7,542.1 119.4,536.2 120.6,535.1 120.6,534.1 122.4,532.2 
		123.7,527.2 123,524.8 	"/>
	<polygon class="st0" points="74.4,473.5 73.3,473.1 72.5,473.5 72.5,473.5 69.9,472.7 68.9,471.1 67.9,470.1 67.9,470.4 
		68.5,471.5 70.4,473.4 71.3,474.4 72,474.4 72.7,473.5 72.7,473.5 72.7,473.5 74.7,474.8 	"/>
	<polygon class="st0" points="82.1,505.2 83.8,505.4 85.4,504.7 85.8,503.8 85.3,502.7 83.8,501.2 85.1,498.7 86.6,498.7 
		86.2,497.1 84.5,495.9 84.5,493.7 83.9,493.5 81.8,496.2 77.9,496.2 77.9,496.2 76.2,493.7 75.6,492.4 75.1,492.4 73.6,493.8 
		71.5,494.2 70.2,495.5 70.8,497.8 73.1,501.4 74.1,504.8 77.1,506.8 78.9,507.7 80.1,507.2 	"/>
	<polygon class="st0" points="99.8,537.1 101.5,535.7 104,535.9 105.9,534.6 107.9,535.7 108.5,533.1 111.4,529.6 114.5,528 
		115.4,527.7 115.2,525.7 112.5,525.4 110.7,523 108.7,520.8 106.2,520.8 104.5,519.1 104,519.8 104,519.8 103.7,520.1 103,520.2 
		103.1,520.5 102,520.4 101.3,520.6 101.2,520.4 100.4,520.4 100.6,520.8 103.3,522.9 102.5,526 101.1,529.2 99.1,532.3 97.6,533.4 
		99.5,535.5 98.9,537.2 	"/>
	<polygon class="st0" points="69.6,284.6 73.7,282.5 74.5,280.8 74.2,278.5 73.1,277.8 71.7,275.4 72,272.9 72,270.8 71.3,270.2 
		70.5,272.9 66.9,272.3 66.6,270.4 65.1,269.9 65,267.3 63.8,266.1 62.9,265.9 62.2,267.2 59.6,267.9 58.8,267.7 62.4,276.1 	"/>
	<polygon class="st0" points="72.4,485.6 74,483.3 74,483.2 75.5,481.8 78,480.7 78,477.2 77.2,476.7 76.4,475.9 75.3,475.3 
		76.5,478 76.5,478 76.5,478 75.1,479.5 74.8,479.8 74.8,479.8 74.8,479.8 73.3,479.7 72.4,481.4 72.4,481.4 72.4,481.4 71.4,481.4 
		71.4,482.8 72,484.4 71.3,486.6 71.3,486.6 71.3,486.6 67.1,486.6 66.3,486.2 66,486.5 68,488.9 68.2,489.4 68.2,489.4 69.4,489.2 
		69.4,488.4 69.4,488.4 69.4,488.4 70.8,487.2 72.4,485.6 	"/>
	<path class="st0" d="M72.7,492.1l1.6-1.6h2.5l1.1,2.3l0.3,0.5l0.7,1h2l1.9-2.4l0.6-1.3l-0.7-2.7l2.3-0.7l1.5-1.2l-1.3-1.3l1.4-2.2
		l-0.6-1.2l-1.6-1.4l1.6-2.3V476l1.8-2l1.5,0.5l0.6,0.2l0.7,1l1.2-0.2l0.8-0.8l-0.2-3.1l1.1-1.1l-0.6-0.7l-1.7-0.8l-1.8-2.7
		l-1.9-1.9l2.5-1.9l-0.5-2.6l1-0.3l-0.2-0.2l-3.6-3.8l-1.7,1l-0.1-0.1l-2.4-2.4l0.1-0.7l0.1-1.4l0.3-1.2l-0.8-0.4l-1.5,1.5l-2.4-2.2
		l-1.5-1.1l-0.8-0.1l-0.3,0.8l1.2,2.2l-0.6,5.2l-3.2-1.1h-1.7l-3.3,0.1l-2.1,0.9l-1.3,2.7l-3.3-1.1l-2.3-2.8l-1,0.2l-1.1,1.1
		l0.7,2.8l-0.9,2.6l1,1.9l2,1.9l-0.3,4.7l1.4,2.1l1.3,2.7l0.6,5.4l-0.4,6.9l0.9,2.7l1.8-0.3l1.8,2.6l1,1.2l0.9,0.2l1.7-1.7
		L72.7,492.1z M67.8,492.4l-1.4-2.6l-2.8-3.4L66,484l0,0l0,0l1.6,0.7H70l0.1-0.3l-0.5-1.3v-3.6h0v0h1.8l0.9-1.8l0,0l0,0l1.8,0.1
		l0.1-0.1l0.1-0.1l-0.5-1.2l-0.7-0.4l-0.2,0.3h0l0,0h-2.4l-0.4-0.4l-3.1-3.2l-0.1-0.1l-0.8-1.6v-2.3l0,0v0l1.5-0.6l0.5-0.2l0,0l0,0
		l2.3,2.3l0.7,1.1l1.2,0.4l0.8-0.4l0,0l2.8,0.9l0.5,1.7l1.2,0.7l0.8,0.8l1.4,0.9v6.2v0l-1.9,3.9l-1-3.2l-0.3,0.1l-1.2,1.2l-1.6,2.3
		l0,0l-1.7,1.7l-0.8,0.7v1.5l0,0v0l-2.1,0.4L67.8,492.4z"/>
	<polygon class="st0" points="132,511.9 131.1,509.4 131.1,509.4 131.1,509.4 136.3,505.8 136.3,505.3 135.3,504.3 135.3,502.4 
		133.9,500.5 133.9,500.5 136.1,498.3 138.7,499.5 138.9,498.4 142.3,498.7 142.8,497.4 141.3,496 142.6,491.2 144.3,490.3 
		144.8,488.1 142.4,488 142.1,488 140.2,485.5 139.9,482.2 139.9,482 140.7,477.8 139.2,476.8 138.4,474 135.9,473.4 133.8,471.4 
		133.8,469.7 132.9,472.2 130.4,473.2 128.9,471.7 127,472.4 125.6,471 123.8,472.6 123.8,474.6 124.6,474.7 128,472.9 128,476.8 
		126.3,480.3 122.7,482.9 119.4,482.9 116.1,486.3 114.2,485.8 113.5,486.6 111.1,485.7 109.6,484.2 109.6,484.2 109.6,484 
		109,482.1 108.6,480 107,479.5 105.1,477.7 105.1,475.5 104.6,474.1 104.4,474.1 104.4,475 102.8,476.6 99.3,476.6 98.2,475.8 
		97.9,476 98.7,476.4 99.3,478.1 100,478.1 102,477.4 102.9,480.1 103.6,480.8 106.1,480.4 108.5,481.4 108.9,483.9 110.3,485.5 
		110.7,487.4 112.1,488.8 113.3,492.1 112.3,494 113.1,495.6 114.7,497.2 116,499 116,500.7 117.6,502.3 118,504.7 119.4,506.7 
		119.4,510 121.2,511.3 122.1,512.7 123.9,513.3 124.9,515.9 124.7,518 125.6,518.2 128.8,517.3 131.2,517.3 133.7,514.4 
		135.5,513.7 135.5,512.6 134.4,511.9 	"/>
	<polygon class="st0" points="577.2,536.7 576.5,533.4 578.2,531.7 578.2,529 579.5,527.6 578,526.1 577,527.1 573.1,527.1 
		570.9,526 568.1,523.4 564.8,522.9 562.6,521.3 560.7,521.3 559.8,523.5 557.9,522.7 556.7,523.9 553.4,523.7 550.4,526.7 
		550.4,526.7 550.4,526.7 546.4,526 545.5,526.9 544.6,532.7 541.1,533.6 541.1,535.7 538.9,538 538.9,542.2 535.2,543.2 
		530.7,547.1 527.3,548.6 527.3,548.6 524.5,548.6 524.5,548.6 521.5,547 518.1,547 518.1,547 514.2,545.6 512,543.3 509.8,544.5 
		509.8,547.6 506.3,551.1 506.3,551.1 505.9,551.1 502.8,550.8 500.7,550.3 500,550.9 500.4,553.9 501.3,557 504.6,560.3 
		507.8,563.3 506.8,566.5 504.1,567.1 503.7,567.5 505.6,569.3 505.6,570.7 505.7,570.3 509.1,570.3 512.1,567.4 517.3,564 
		520.8,564 521.9,560.9 525.5,560.9 528.3,558 532.3,559.8 534.6,562.1 538.4,560.5 542.5,561.7 547.8,567 552,568.5 554.8,569.3 
		559,568.6 563.2,569.7 570,569.7 573.2,566.4 576.4,564.3 576.4,561.5 573.7,558.9 573.7,555.4 571.8,553.1 572.5,548.4 
		574.7,546.3 576.6,542.4 578.7,540.3 578.6,538.2 	"/>
	<polygon class="st0" points="461.7,557.9 457.9,554.1 460.2,551.9 463.6,550.8 467.7,549.2 470.1,549.2 471.8,547.5 473.2,546 
		473.2,543.8 475.8,541.1 478.6,542.9 479.8,541.3 481.4,541.3 481.9,540.5 480.3,538.9 482.1,535.7 484,534.8 483.3,532.9 
		483.3,532.8 483,530.1 482.2,528.5 481.4,527.1 484,525.9 484,525.4 482.3,525.4 479.3,523.5 478.8,520.6 477.1,518.8 475.4,515.6 
		472.7,515.6 471,512.4 466.6,514.9 463.7,514.9 461.5,516.7 459.5,515.6 457.3,517.8 455.5,516 453.4,518.1 452,521.7 448.9,523.1 
		446.7,519.9 445,519.9 443.2,517.2 443.2,515.2 439.6,511.6 437,511.7 432.8,513.1 428.2,516.5 423.1,516.5 420.3,517.7 418,518.5 
		417.5,518.7 416.8,518 416.1,517.3 415.6,518.1 415,518.4 415,518.4 414.1,518.8 416,520.6 417.9,527.2 417.9,531.8 420.3,534.1 
		420.3,537.9 422.9,542.3 423.6,546.4 424.7,549.7 426.3,553 428.5,552.6 430.1,549.2 433.5,548.1 435.8,550.8 435.8,553 
		438.7,555.9 442,555.3 443.5,556.8 446.6,556.4 448.5,554.4 453.2,554.4 455.2,556.4 458,557.7 459.9,559.5 461.7,559.3 	"/>
	<polygon class="st0" points="503.8,570.1 501.2,567.5 503.1,565.5 505.4,565 505.7,563.8 503.4,561.6 499.7,557.9 498.6,554.3 
		498.2,551.5 498,551.5 496.5,554.5 493.1,554.5 489.1,550.5 490.9,548.7 490.2,545.8 494.4,541.6 494.3,540.1 493.5,540.1 
		490.9,538.8 487.8,538.8 485,536.3 483.4,537.1 482.5,538.6 484.2,540.3 482.3,543.1 480.7,543.1 479,545.3 476.1,543.5 475,544.5 
		475,546.8 475,546.8 474.8,547 471.1,550.8 470.9,551.1 470.9,551.1 468,551.1 464.2,552.5 461.2,553.5 460.5,554.1 463.5,557.1 
		463.5,561 460.7,561.2 461,563.5 463.5,565.1 464.7,567.8 468.1,569.9 468.1,573.3 471.5,574.2 474.9,575.4 478.4,574 481.7,570.7 
		482.9,575.2 484.5,578.2 485.7,580 489.2,580.7 491,578.9 495,576.6 499.4,576.8 501.8,574.4 504.5,573.7 503.8,572.5 	"/>
	<polygon class="st0" points="661.2,544.4 660.3,543.6 657.1,544 657.1,537 658.4,536.5 657.7,535.7 657.7,532.1 660,529.9 
		662.2,529.9 663.7,530.5 665.3,529.7 669.5,525.5 672.8,526 674.5,526 675.7,521.6 675.9,521.2 675.9,521.2 678.4,520.1 
		680.1,518.4 680.8,513.9 683.7,512.7 685.7,510.8 689.1,509.2 691.3,507 694.6,503.8 695.4,500.8 693.7,499.1 693.7,497.6 
		691.5,497 690.1,492.4 692.4,488.1 694.7,485.7 696.3,482.2 698.6,478.5 701.6,475.5 704.8,474.6 705.9,470.7 705.2,468.8 
		703.1,466.7 700.2,465.3 697.6,466.2 694.5,462.8 693.3,458.9 691.5,456.8 690.4,453.3 687.4,451.7 687.4,447.9 686.2,447.8 
		687.4,446.7 687.4,446.7 687.4,446.1 688,446.2 690.3,444 689.8,443.5 687.9,443 686.4,446.2 683.9,447.4 683.9,453.7 681,453.7 
		677.8,457 675.8,455.8 674,457.6 668.5,456.5 667.4,455.4 665.5,456.8 661,456.8 660,455.7 658.6,456.7 658.6,459.8 654.3,461.4 
		651.1,460.2 649.7,460.9 649.7,464.3 646.7,464.3 642.6,467.3 643.3,470.3 645.5,471 649,473.5 646.8,475.7 645.8,477.5 
		647.3,483.9 648.9,491.5 652.5,492.7 650.1,500.6 649.2,511.6 642.9,519.2 637.6,524.5 635.6,529.7 631.4,534.7 628,538 628,543 
		624.9,543 620.7,545.4 619.7,542.2 615.6,542.2 613.5,538.8 613.5,537.3 611.7,537.3 611.6,537.3 611.4,537.1 609.1,535.1 
		607.6,533.5 602.7,534.5 600.3,532.1 598.3,531 596.7,529.5 593,528.3 591.2,526.7 587.7,525 588,524.3 588.3,523 587.4,522.4 
		580.8,528.9 580,529.8 580,532.4 578.4,534 578.8,535.8 580.4,537.4 580.4,538.5 581.3,537.7 585.2,540.5 591.2,540.5 594,543.4 
		598.1,542.3 602.1,542.3 606.3,544 609.4,547 611.6,551.7 613.7,553.8 617.1,555.3 622.3,555.7 625.9,554.7 629.6,553.8 
		633.3,550.2 637.9,550.2 645.2,549.1 647.4,550.6 652.5,551.3 657,551.3 656.5,549.1 	"/>
	<path class="st0" d="M780,423.4l-2-0.4l-3.2,1.2v2.5l-3.9-0.6l-6.3,6.3l-2-2h-1l-1.7,1.7l-2-0.9l-1,1.4l-3,0.7l-3,1.4l-3.6-3.5
		l-2.1-1l-2.2,0.5l-1.5,1.5l-3.4-0.7l-0.3,1.4v0.3l-0.1,0.1l-0.1,0.4h-0.5c-0.3,0.1-0.9,0.1-2.1,0h-0.5l-0.9-1.1l-0.4-0.5h-2.2
		l-1.1,1.1l-3-0.6l-1.2-1.2l-1,1h-3l-2.7,2.3l-2.3,2.3l0,1.1l1.4,1.4l2.2,0.6l2.5-0.8l1.8,2.9l-1.8,2.3l0.5,1l1.9,0.5l0.7-1.7
		l2.4-2.4l2.5,0.7l1.6,1.6l0.1,2.3l0.6,0.2l1.8-2.5l3.4,1.7l1.2,3.2l1.1,1.9l-0.3,3.3l1.1,0.2l2,2.1h1.7v2.5l-1.9,1.1l0.9,1.3
		l0.6,2.7h2.4l1.2,2.5l1.6,2.7l1.7-1.7l5.4-4h3.9l3.6-1.2l4.5,0.7l3.6-1.9h3.4l3.9,0.4V423.4z"/>
	<polygon class="st0" points="742,475.6 744.7,472.9 748.7,470.6 746.9,467.6 746.2,466.1 743.4,466.1 742.6,462.2 740.8,459.6 
		742.9,458.4 742.8,458.4 740.7,456.1 738.5,455.8 738.9,451.4 738,449.8 737.1,447.1 735.6,446.4 734,448.8 730.9,447.7 
		730.8,444.8 730,444 728.9,443.7 727.6,445.1 726.4,448 722.1,446.8 720.7,444 722.5,441.8 722.1,441.2 720.5,441.7 717.4,440.9 
		715.1,438.6 715.1,437.2 712.6,436.5 712.6,436.5 712.6,436.5 712.6,433.8 710.7,433.2 710.7,433.1 710.7,433.1 708.3,430 
		704.8,428.7 704.8,428.7 704.8,428.7 704,425 703.2,424.2 701.7,425.3 699.2,425.3 697.7,423.9 696,423.7 694.3,425.4 695.2,426.3 
		694.1,428.9 695.4,430.3 694.2,433.4 697.8,436.9 700.9,435.6 700.9,438.5 702.1,439.6 701.3,443.4 698.8,445 697.2,448 693.5,447 
		691.3,448.2 689.3,448.1 689.3,450.6 691.9,452 693.1,455.9 695,458 696.1,461.9 698.1,464.1 700.3,463.3 704.2,465.2 706.8,467.7 
		707.8,470.6 706.3,476 702.6,477.1 700,479.7 697.9,483.1 696.3,486.8 693.7,489.3 692,492.6 692.9,495.5 695.5,496.2 695.5,498.4 
		697.4,500.3 696.2,504.8 696,505 690.2,510.7 690.1,510.8 690.1,510.8 690.1,510.8 686.8,512.3 684.8,514.3 682.4,515.2 
		681.8,519.3 679.4,521.7 677.4,522.5 676.8,524.4 675.8,527.9 675.8,527.9 672.6,527.9 670.1,527.5 666.4,531.2 663.8,532.5 
		661.9,531.7 660.7,531.7 659.6,532.9 659.6,535 661.4,537.2 658.9,538.3 658.9,541.9 661,541.6 663.7,544.4 658.5,549.7 659,551.7 
		661.1,553.9 662.1,555.9 665.7,557 670.1,556.5 676.2,556.5 680.8,555.1 685.2,555.1 690.7,549.6 695.6,547.3 699,545 701.4,542.6 
		702.7,538.1 708.4,532.3 712.7,530.4 716.1,531.7 718.8,533.1 722.6,530.9 725.9,529 730.3,529.8 735.7,530.2 740.3,528.5 
		743,525.8 745.2,520.8 748.1,520 748.1,516.8 746.8,515.5 744.4,510.7 746.1,506.2 746.1,502.2 747.1,495.4 748.2,493.1 
		747.1,488.8 743.9,485.6 741.4,487.5 738.9,484.3 740.3,480.7 	"/>
	<polygon class="st0" points="212.9,456.3 216.4,453.9 217.7,454.2 218.5,452.5 222.7,451.7 224.7,447 228.3,445 230.7,442.7 
		231.5,439 230.4,436.4 231.1,434.7 228.1,432.1 226.3,432.1 224.2,434.3 220.4,430.5 218.8,433 215.9,434.3 213.9,436.3 
		211.2,432.5 208.7,431.5 207,433.3 204.2,430.2 202.6,431.9 200,431.2 198.7,432.6 198.7,435.2 200.1,436.6 199.4,440.2 
		197.3,440.5 198.2,442.2 198.2,444.5 201.2,445.4 202.1,449.7 205.1,452.7 204.5,456 206.5,458 207.2,459.2 211.5,459.2 	"/>
	<polygon class="st0" points="415.9,514.5 416.9,515.6 417.9,516.6 422.6,514.7 422.8,514.7 422.8,514.7 427.6,514.7 432,511.5 
		436.8,509.9 440.3,509.7 445,514.4 445,516.7 445.9,518.1 447.6,518.1 449.5,520.8 450.5,520.4 451.8,517.1 455.5,513.4 
		457.3,515.2 459.2,513.3 461.3,514.5 463.1,513.1 466.2,513.1 470.1,510.8 468.5,508.5 469.1,501.8 468.4,497.5 467.3,495.3 
		466.9,491 464.5,490.8 464.3,490.8 462.6,492.7 460.6,494.6 460,495.3 457,492.4 458.5,490.9 457.6,490.1 457.6,487 457.1,483.7 
		456.2,483.2 454.3,485.1 450.2,486.1 446.7,486.1 444.1,482.5 437.5,482.5 434.2,478 429.8,473.6 425.9,471.9 422.5,470.2 
		418.7,469.6 414.6,469.6 412.7,467.7 410.8,467.2 410.8,473.7 408.4,476.1 408.8,477.5 408.8,480.1 407,481.9 404.6,481.1 
		403.2,481.6 400.6,484.7 399.1,488.5 399.7,493.7 399.7,496.4 401.3,498 401.3,500.5 399.5,502.3 398.7,504.5 402.5,504.3 
		404.8,502 408.5,502 409.7,505.2 407.3,508.4 405.6,508.4 405.6,509.6 407.8,510.5 409.9,512.6 411.7,516.3 412.8,517.4 413,517.3 
		413.9,516.9 415.3,515.4 	"/>
	<polygon class="st0" points="278,502.8 274.5,499.3 274.3,498.9 274,499.9 273.4,496.7 273.4,496.7 273,495.1 271.4,495.1 
		271,491.7 274.1,490.2 274.6,489 274,487.9 272.8,487.9 272.8,487.9 270.5,486.9 268.9,487.5 263.9,487.5 262.8,490.2 260.3,492.1 
		257.8,491.4 255.8,490 255.2,488.5 254.5,488.2 253.6,489.1 251,490.4 248.6,487.9 248.4,487.1 246.9,487.1 246.1,483.5 
		247.2,482.4 247.5,480.5 246.3,480.2 245.2,477.8 248.2,476.6 248.8,475.1 248.3,474.3 246.7,474.3 244.9,476.1 241.8,474.3 
		242.7,472.3 242.7,469.4 243.4,467.5 242.5,465.6 242.5,462.2 241.4,459.2 239.5,457.4 237.4,456 238.3,451.8 237.2,450.7 
		237.3,446.6 236.7,445.5 235.1,443.9 234.4,443.3 234.4,443.2 234.4,443.2 236.2,441.5 234.6,439.8 233.2,439.8 232.3,443.6 
		229.3,446.6 226.1,448.3 224,453.3 219.8,454.1 218.8,456.4 216.7,455.8 214.4,457.5 212.7,461 207.6,461 207.5,461.7 208.6,464.7 
		208.6,466.8 209.7,466.8 213.7,466.1 216.2,468.6 217.2,471 220.6,472.3 223.2,475.4 223.9,479.6 225.3,483.5 226.8,486.6 
		224.8,488.6 224.8,489.7 225.3,489.7 227.5,486.2 231,489.3 232.7,492.6 234.7,493.2 237.6,492.8 241.4,491 244.5,492.6 247.5,495 
		248.3,496.8 250.6,495.9 254.6,495.9 257,498.4 257,502.2 259.2,504.4 259.7,506.1 262.3,508.6 264.2,508.6 265.8,507 268.3,507 
		269.7,509.8 271,511.2 274,511 277.1,510.9 278.7,509.3 280.3,507.1 278.6,505.3 	"/>
	<polygon class="st0" points="342.6,469.4 343.1,466.9 341.5,466.7 340.6,464.8 338.1,464.8 338.1,464.8 336.3,463.1 333.5,462.5 
		333.5,459 332,458.5 328.9,454 330.6,450.9 330.1,450.2 327.5,450.2 323.4,453.3 321.2,449.6 320,450.1 317.5,449 315.5,449 
		313.4,448.1 310.3,450.2 310.4,453.1 310.9,457.1 309,460.1 306.3,460.1 305.4,460.9 306.3,463.8 304.2,465.9 302.5,465.9 
		302.3,466.8 303.4,468 305.7,468 306,469.4 308.9,469.4 310.6,473.5 308.1,476 307.9,476.8 311.8,476.7 315.3,477.7 318,477.7 
		320.8,479.2 323.2,478.7 325.1,476.9 327.3,476.9 331.2,478.9 335,478.9 338.6,478.3 341.3,479.8 344.5,478.9 347.8,478.9 
		349.2,477 348.8,473.3 	"/>
	<polygon class="st0" points="307.7,471.2 304.6,471.2 304.3,469.8 302.6,469.7 300.3,467.4 301.1,464.1 301.1,464.1 303.4,464.1 
		304.2,463.3 303.3,460.4 305.5,458.2 308,458.2 309,456.7 308.6,453.2 308.5,450.1 305.6,447.2 304.2,446.4 302.1,448.4 
		299.6,445.9 297.4,445.7 296.8,444.4 294.1,443.5 293.2,441.9 291.2,440.6 290.3,440.9 290.8,442.9 290,445.7 288.2,448.8 
		288.2,451.2 284.4,452.1 282.1,454.4 277.8,452.8 277.8,450.5 276.5,449.1 274.2,448 272.4,447.5 270,449.3 270.4,451.4 
		271.9,452.9 272.4,457.1 273.9,459.6 276.9,459.9 278.7,458.8 283.2,460.2 284.5,464.2 284.5,468.1 281.3,468.1 280.3,466.6 
		279.1,466.8 279.1,467.6 276.3,468.6 273.6,471.3 273.6,472.9 271.6,475.6 271.6,478.8 269.6,478.8 267.9,482 267.5,484.6 
		264.9,485.7 268.5,485.7 270.5,484.9 273.1,486.1 275,486.1 276.6,488.9 275.5,491.5 272.9,492.8 273,493.2 274.5,493.2 
		274.9,492.3 278.5,493.2 280.4,492.6 281.2,490.6 280,486.3 283.5,484.9 288,484.7 290.6,487.3 291.9,487.3 292.9,486.3 
		289.9,483.3 287.4,481.7 289.8,479.2 288.9,477.2 290.3,472.9 294.3,472.9 298.2,474.9 300.3,476.7 302.7,476 306,476.7 306.6,475 
		308.5,473.1 	"/>
	<polygon class="st0" points="399.4,498.7 397.9,497.2 397.9,493.8 397.2,488.3 399.1,483.7 402.1,480.1 404.6,479.1 406.6,479.8 
		407,479.4 407,477.6 406.4,475.6 408.9,473 408.9,466.2 408.1,463.8 406.3,460.2 406.8,456.6 405.1,454.9 405.1,451.2 405.1,451.2 
		405.2,451 406,449 404,451.1 400.6,452.7 396.5,452.6 394.1,451.9 392.2,450.9 391.3,452.1 390.6,452.1 387.5,452.1 385.4,450.7 
		383.8,450 381.3,449.2 378.6,448.3 378.6,445.5 379.7,444.4 378.5,443.2 377,444.2 375.9,445.9 375.9,445.9 375.6,446.5 374,448.1 
		373.8,449.9 375,453.6 372.4,454.8 372.4,455.4 374.1,456.2 375.8,457.9 376.4,459.5 378.9,460.9 378.9,463.8 377.4,465.4 
		374.5,465.9 371.1,469.3 371.1,471.7 370.4,473.7 368.4,475.6 367.6,475.7 367.6,477.4 366,479.1 365.3,480.5 365.3,481.6 
		367.4,482.5 368.8,487 368,489.3 368,492.4 366.2,494.1 366.7,495.8 369.2,496.5 372.5,494.5 375.6,497.6 374.7,500.8 376.4,501.3 
		378.2,499.5 381.3,501.4 385,501.4 385,505 381.2,506.7 380.7,509.3 381.9,509.3 385.6,507.5 387.2,509.9 390.3,508.3 394.4,507.1 
		396.6,504.9 397.9,501.3 399.4,499.7 	"/>
	<polygon class="st0" points="365.8,474.2 367.5,473.9 368.8,472.6 369.3,471.4 369.3,468.5 373.6,464.2 376.5,463.7 377.1,463.1 
		377.1,462 375,460.8 374.2,458.9 373,457.7 370.6,456.5 370.6,453.7 372.8,452.6 372,450.2 372.2,447.2 372.5,447 374.5,444.8 
		375.6,442.9 378.7,440.8 382.2,444.4 380.4,446.2 380.4,447 381.8,447.5 384.5,448.3 386.3,449.2 388.1,450.3 389.9,450.3 
		391.2,449.1 391.6,448.5 394.8,450.2 396.9,450.8 400.2,450.8 402.9,449.6 405.2,447.3 405.5,446.9 404.4,446.9 402.5,445.2 
		399.7,445.2 398.1,443.6 395.5,442.7 393.6,440.8 393.6,440.8 393.6,438.5 390.5,438.1 390.5,438.1 390.5,434.8 388.6,431.8 
		386.9,428.8 384.8,426.6 382.2,425.9 379.7,425.9 377.5,423.7 375.6,422.8 373.8,421.3 373.4,421.3 373.5,423.2 371.9,424.8 
		368.7,425.9 367,426.6 365.5,428 361,428 359.2,429.8 355,428.7 354.5,429.2 354.5,431.5 351.2,432.4 347.7,432.4 346.3,431.4 
		345.9,432.7 346.6,434.6 346.6,437.9 342.2,440.1 340.3,439.4 338.6,441.1 336.3,440.5 334.4,442.4 335,445.7 333.9,446.9 
		334.7,449.7 332.4,451.5 331,453.9 333.1,456.9 335.3,457.7 335.3,461 337.2,461.4 338.9,463 341.8,463 341.8,463 342.2,464 
		342.7,465 344,465.2 345.2,465.4 344.9,467 344.6,468.6 347.6,470.4 350.5,472.2 350.7,474 350.9,476.4 353.7,476.7 356.7,478.5 
		360.8,478.5 362.2,481.2 363.4,481.2 363.4,480.1 364.5,478 365.8,476.6 	"/>
	<path class="st0" d="M156.9,493.5l-1.5-1.5l-2.8-2.6l-2.9-1.8l2.6-2.6l0.7-3.2l-2-2l-1.3-3.8l2.4-1.7l-0.8-2.3l-1.1-1.1l-1.8,1.2
		l-3.7-0.1l-1.5-1.5l-2.6,0.7l-0.8,2l0.7,2.4l2,1.3l-0.1,0.6l-0.4,2.5l-0.5,2.2l0.2,2.5l1.1,1.4l4,0.1l-1.1,5.2l-1.8,1l-0.8,3
		l1.6,1.6l0,0l0,0l-1.4,3.6l-3-0.3l-0.2,1.2l-0.1,0.7h0l0,0h-2.6l0,0h0l-0.2-0.7l-0.2-0.7l-0.7-0.3l-0.2,0.2l0.8,1.1v1.7l1,1v0v2.3
		v0l-4.7,3.3l1.6,0l1.7,1.2l2.8,0.5l1.1,1.1l2.9,0.8l-0.2,0.8c0,0,0.1,0,0.3,0c1.4,0,3.1-0.2,3.1-0.2l0.1,0h5.1l2.2-0.3l0.7-0.6
		l-1.4-1.4l-1.4-2.9l-0.4-4l3.8,0.5l1.1,1.2l0.7-0.7v-3.7l-0.8-5.2L156.9,493.5z"/>
	<polygon class="st0" points="415.3,128.3 416.4,127.2 414.5,125.3 415.6,124.1 414.9,123.7 414.3,124.1 413.5,125 413.5,126.2 
		411.7,128 412.9,128.3 	"/>
	<polygon class="st0" points="404.6,122.9 407.3,121.9 408.2,122.9 409.6,122.4 409.1,121.9 408.1,121.9 407.1,121.5 404.4,121.5 
		403.5,120.7 403.3,121 404.3,122 	"/>
	<polygon class="st0" points="417.7,135.8 417.7,134.3 417.6,134.1 417,135 416.8,135.2 417.4,135.8 	"/>
	<polygon class="st0" points="406,130.1 406.6,130.3 407.5,129.4 406,128.3 	"/>
	<polygon class="st0" points="427,142.1 428.4,141.8 429.3,139.8 429.8,140 429.8,140 428.9,139.1 426.7,140.8 425.6,139.7 
		424.4,139.7 424.4,140.9 423.7,141.6 426,141.1 	"/>
	<polygon class="st0" points="407.9,127.1 407.9,129 408,128.9 410.6,127.8 408.9,126.6 	"/>
	<polygon class="st0" points="435.9,141.6 437.3,141.3 439.6,138.9 439.8,138.5 439.3,138.5 436.3,138.4 435.1,136.9 434.6,137.4 
		433.9,138.9 433.9,140.2 435.6,140.5 	"/>
	<polygon class="st0" points="447.1,265.7 447.1,264.4 447.6,262.3 446.9,262.3 446.3,263.7 	"/>
	<polygon class="st0" points="444.3,140.5 446.3,140.5 449.2,137.7 449,136.7 448.4,136.8 447.6,138 444.4,138.6 444.2,138.7 
		444.8,139 444.2,140.5 	"/>
	<path class="st0" d="M437,280.4l-0.4,3.4l2.1,6.6l-3.3,3.3l-1.4,3.9l-2,3.1l0.5,5l-1.8,1.8l0.3,1.7h2.4l1,1.4l1.5-0.7l2.3-2.3
		l2.6,2.6l3.7,1.3l1.4,1.4l2.1,1.9l1.8,3.6l-1.1,2.5l0.9,2.9l-1.2,2.7l-2.1,0.7l0.2,2.1v1.4l0.9,0.9l3.8,1.1v3.9l-4.9-1.1l-3.5-3.5
		v-2.7l-0.2-4l2.3-2.3l-1.5-4l-1.5-1.5l-0.8-2.4l-2.9,0.4h-2.8L432,319l0.3,2.4l0.8,3.3l-1,4.1l-5.5,5.5v3.3l-3.7,2l-3.6,1l-1,1H416
		c-0.3,0.2-0.6,0.3-0.8,0.5c0.4,1-0.2,2.4-0.7,3.3l-0.3,0.5h-3.7l-1.8-2.6l-2.4,0.1l-3.2-2.3l-2.4-1.1l-2.6-3.9v-4.4l3.7,1.2
		l1.7,1.7l1.9,1.2l2.1-1.4l3.8,0.8l1.6-0.9l2.3-3.3l4.1-4.1l3-0.8l0.6-5.4l3.4-2.6l0.3-1.6l-2.5-2.5l-1.3-4.6l1.3-3.1l1.6-5.7
		l1.1-6.7l3-4.6l1.5-8.6l-2.6-2.3l1.5-4.7l4.3-4.3l0.7-5.5l1.4-1.4l-1.1-4h-2.9l-1.8-1.8H427l-1.6-2.3l-1.9,1l-1.5,3.4l-1.5,3.6
		l-2,4.6l-3.9,3.9l-3.5,1.7l-2.8,1l-1.4,1.8l-0.7,2l1.7,0.5v3.3l-1.4,1.9l-0.7,3.4v2.9l-3.4,1.7l-0.9,0.9l1.2,2.5l3.2,2.2l-0.7,4.6
		l1.4,3.3l3.5,1.1l-4.4,4v3.3l-4.2,2.5l-2.7-4.3v-3l-2.4-3.2l-2.4-3.8l-3.6-3.6l-0.6-1.2l-0.5,0.7l-1.7,1.7l1,0.9l0.2,0.9l1.3,0.4
		v6.7H390h-1.7l-0.6,1.4l-1.1,0.5l-0.3,1.7l2.9,1.5v3.1l-2.1,0.9l2.3,2.3l-4.6,2.3l-2.9,2.9h-0.1h-2.5l-1.1,3.3h-0.1h-5.7l-4.6,1
		l-4.3,2.4v3.8l-0.1,0v0l-3.9-0.2l-0.2,4l0.6,4.2l-1.3,4.1l-2.3,2.3l6,6l3.8-0.9l0,0l0,0l3.1,1.3l3.2-1.4l0,0l0,0l4,2.1l4.2,3.6
		l-2.7,2.7l1.5,1.7l3.3,0.6l2.4-2.4l0,0l0,0l2.2,2.2l1.3-1.3h0.1l0,0h4.8l4.1,4.1l0.9,4.5v2.3l3.5,3.5l-0.8,3.3l0.7,2.1l4.6-0.5h0.1
		l0,0h3.1l2.3,3.6h2.5l2.9,3.1l2.2-0.5l0,0l0,0l4.2,1.1l1.9,1.9l1.2-1.2l0,0l0,0l5.5,2.2l-1.1,3l2.7,1.5l2.2,2.2h10l1.1-1.9l3-1.6
		l4.1-2.7l0,0l0.1,0l1.6,4.1l2.4,3.1l1.1-1.1l0,0l0,0l5.3,1.6l2.1,3.4l1.7-0.6h0.1l0,0h2.7l2.8,3.5l3.9-3.9l0.2-3.4l2.2-2.2v-3.1
		l-2.4-3.4l1.9-3.5l2.3-2.9l1.6-1.6l-0.9-2.1l0.6-3.3l-0.3-1.7l-1.1,1.1l0,0l0,0l-2.2-2.2l-3.8-0.8l-1-4.2l1.6-1.6l-0.3-2.9
		l-1.2-2.4l-1.4-1.4h-2l-2.3-4.2l1.6-1.3v-2l-1.1-1.8v-2.2l1.8-1.7l-0.9-1.8l-3.5-2.1v-2.3l-1.6-1.6l1.5-2.6l-0.4-2.2l-1.6-1.6
		l0.1-3.9l0.1,0l0,0l2.3,0.5l0.4-1.3l1.6-1.6l0.8-2.3L469,323h0.1l0,0h2l0.5-1.3l-1.4-3.3v-1.8l-2.4-0.5l0-1.5l-0.8,0.8l-0.3-0.3
		c-0.2,0-0.4-0.1-0.7-0.5l-1.7,1.5l0,0l0,0l-1.8-1.8l-0.3-1.6l-2.5-0.4l-2.3-2.3l-0.4-1.6l-1.4-1.4l-0.2-3.6l3.1-2.3l2.1-2.1
		l1.4-2.2h0.1l0,0h2.6v-4.3l0.3-3.1l-3-1.7l-0.4-0.8l-0.6,0.9l-1.9-4l2.7-2.7l2.2-0.4l-0.2-1.1l1.4-1.4l-0.3-1.1l-1.7-0.9l-2-0.4
		l-1.6-1.6l-0.5-1.3h-1.6l0.1,0.6l0.8,2.4l-2.9,2.6l-4-4l-2,1.3l0.8,2.5l2.4,2.4v1l2.4,1.2l2,2l1.1,2.7v4.1l-4.1-3.9l-1.9-1.9
		l-2.3,1.4l-2.3-1.9l-3.5-2.7v-7.4l2.8-2.8l0.6-3.6v-2.1l-1.2,3.1l-2.1,3.3h-3.3l-5.3,5.3L437,280.4z"/>
	<polygon class="st0" points="428.8,252 430.5,252.5 432.4,251.6 430.4,251.1 432,249.3 431.6,248.6 430.5,249.1 430.1,249 
		429.5,249.4 430,250.4 428.8,252 	"/>
	<polygon class="st0" points="436.3,124.7 436,124.7 436,125.5 436.7,126.1 	"/>
	<polygon class="st0" points="403.9,127.4 404.1,128.4 405.5,127.9 404.5,127.2 	"/>
	<polygon class="st0" points="320.3,265.9 322.2,264.6 324.2,265 324.9,263.2 323.1,261 323,259.2 321.4,258.7 318.9,259.4 
		316.2,262.9 316.9,264.6 	"/>
	<polygon class="st0" points="140.8,282.3 142.5,284 142.7,286.4 143.7,288.8 142.8,291.6 143.3,293.7 144.2,293.7 145.1,292.8 
		147.3,291.8 148.5,294.2 151.5,294.2 154.2,294.5 156.3,295.4 157.3,295.1 159.3,293.5 161.2,295.4 163.2,295.8 162.6,300.2 
		163.4,301.2 164.2,300.3 167.6,300.5 167.9,302.6 169.8,303.5 169.8,306.1 169.3,307.2 170.2,307.6 171.8,309.2 171.8,309.4 
		172.6,312.3 173.4,311.5 176.2,311.9 177,310.4 179,310.2 180.7,308.1 181.5,306.1 182.7,303.8 181.2,297.9 179.2,294.2 
		175.6,292.6 169.7,275.6 168,269.7 168,266.1 157,266.1 157.5,266.7 161.9,268.5 160,270.4 158.1,270.9 158.1,275 160.8,277.4 
		161,280.1 161.3,279.6 162.5,281.3 162.5,283.1 161.9,283.9 161.9,285.4 159.8,286.3 159.3,286.3 158.4,287 156.8,285.8 
		154.7,286.3 155.7,282.3 155.7,281.2 156.1,280.8 155.3,279 152.1,278 149.9,275.7 148.1,274.8 147.4,275.6 146.6,278.4 142,277.4 
		140.2,278.5 141.7,280.2 	"/>
	<polygon class="st0" points="160,284.2 160,283.7 159.4,284.4 159.4,284.3 159.2,284.5 159.4,284.5 	"/>
	<polygon class="st0" points="157.2,283.7 157.2,283.9 157.2,283.9 157.4,284 	"/>
	<polygon class="st0" points="116.6,310.8 115.7,313.7 115.2,315.1 117.3,315.7 120.3,318.5 120.3,323.1 122.4,322.9 123.7,324.5 
		124.3,322.9 126.5,322.9 127.2,321.7 127.9,320.1 128.2,316.8 129.6,315.4 129.8,313.5 131.7,311.9 130.5,310.7 132.4,308.7 
		133.4,308.2 133.4,306.1 135.1,305.2 136.6,303.7 138.4,302.9 138.8,301.7 137.5,300.8 136.7,298.7 138,297.5 138,295.5 
		139.6,293.9 141.4,293.7 141,291.5 141.8,288.9 140.9,286.8 140.7,284.8 138.6,282.7 139.6,280.5 138.4,279.2 135.8,279.1 
		133.3,282.4 130.4,283.5 130.3,285.5 128.2,288 124.4,288.1 123.3,289.4 123.3,292.7 119,295.4 117.5,295.8 118.1,298 116.1,301.5 
		113.4,304.2 113.1,305.8 114.2,308.4 	"/>
	<polygon class="st0" points="93.1,361.7 95.3,359.9 97.2,362.6 98.6,364.2 100.9,364.5 102.9,366.5 104.2,369.9 103.9,372.7 
		103.1,375.7 103.1,375.7 104.1,374.3 107.1,373.4 108.5,374.4 109.7,374.4 111.3,372.8 112.6,372.8 112.7,372.3 112.1,370.4 
		114.5,369.5 116.7,369.5 117.6,370.4 117.6,370.4 118.1,368.4 118.9,367.7 118.7,366.2 117.1,364.7 117.1,362.2 118.3,361 
		118.3,358.9 118.8,357.1 117.7,356 117.8,354.4 117,353.1 115.2,354 113.6,353.8 112.2,356 109.2,359 109.2,354.7 107.8,353.9 
		105,354.8 101.3,353.5 100.2,351 99,349.6 97.8,349.7 97.2,352 95,354.4 92.2,357.2 91.2,359.1 92.2,360.8 	"/>
	<polygon class="st0" points="110.5,346.3 109.5,350.1 108.9,352.4 111,353.6 111,354.4 112.6,351.9 114.9,352.1 116,351.5 
		115.9,351.3 117,351 117.7,350.7 117.8,350.9 118.9,350.6 121.2,348.3 124,348.3 126,350.3 126.3,351.8 127.5,351.9 128.3,351.1 
		130.2,351.6 131.8,352.9 133.1,352.1 133.3,351.9 133.4,351.9 135.7,351.9 138,351.4 138.7,350.3 139,349.9 141.2,347.7 
		143.7,346.7 144.2,345 143.5,343.7 142.5,342.9 141.9,342.4 140.7,340.1 139.3,338.7 139.3,337.4 137.7,337 135.3,337.7 
		131.8,336.8 130.2,335.2 128.1,334 127.9,333.8 126,331.9 125.5,329 123.5,327.9 123.2,326.8 121.6,324.8 119.8,325 117.2,327.1 
		116.1,329.5 113.1,330.4 112,333.3 110.4,337.3 109.5,340.7 109.7,343.6 108.7,344.4 	"/>
	<path class="st0" d="M281.6,281l0.8,3l0.3,0.4l0.9,1.1l2.5,2.5l0,0l0.6,2.6l1.2,1.2l0,0c0.3,0.3,1.3,1.5,1.7,2l0.5,0.2l0.4,0.1
		l1.2-0.4l0.6-0.2l0.5-1.4l4,1.8l0,0l0,0l1.1,1.1l15.1-0.1l2.5-1.6l3.9-0.4l0.6,0.5l3.3,2.8l3.7,1.6l2.4,2.4l4.5,2.9l3.1,0.3
		l2.5,2.5l8,3.1l1.4,0.9l2.6,1.7l4.1,1.6l1.8,1.6l1.7-0.4l3.4,1.7l2.5-0.6l3.3-1.2l1.6-0.9l1.6-1.6l1.3-2.2l3.9,0.7l1.2-2.7l2.9-0.2
		l3.1-2.6h2.3l1.5,0.8l0.3,0.2h0.3v-3.6l-1-0.3l-0.4-1.4l-2-1.9l3-3l0.9-1.3l-0.4-0.8l-6.4-6.4l-2.5-3.1l-1.1,1.1l-3.1-3.1l-1.8,0.5
		l-2.1,1l0.4,3.9l-0.7,4.4l-2.8,0.4v2.8l-3.7-0.9l-0.7,0.7l-0.3,4.2l-4.6-3.8v-3.5l2.5-1.7l0.3-1.3l-0.8-0.8l-3.8,1.2h-2.8l-2,2
		l-5.1-5.1l-3.8-0.7l-4.5,1.9h-3l-4.9-4.5l3.3-1.1l1-2.9h2.4l-0.6-2.1h-1.7l-4.1,1.3v3h-3l-1.7-3l-2.9,0l-5.6-0.7l-3.2,0.6l-4.7-0.8
		l0.7,2.9l-5.3-2.5l-2.9,0.7v2.6l-4.7,2.3l-3.7-1.7l-4.1-1.1v-3.6l-1.2-3.6v-4.7l5.7-2l3.7,0.9l1.8,1.8l0.6-0.6l0.8-2.4v-4.9
		l-2.4-3.6L296,254l-0.7-1.5h-0.9l0.4,2.7v4.3l-3.8,2.3v2.5l-4.2,2.1l-1,2.1v3.9l-3.4,4.9l-2.5,0.5l0.4,0.6L281.6,281z"/>
	<polygon class="st0" points="86.4,453.6 87,453.2 87,453.2 87,453.2 87.5,453.8 92.8,459.3 93.9,460.3 93.8,460.3 93.8,460.3 
		92.4,460.8 91.5,461.1 91.9,463.2 90.2,464.5 90.9,465.2 92.4,467.5 94,468.3 95.8,470.6 94.2,472.3 94.3,474.1 95.5,474.1 
		96.3,475 98.1,473.5 99.9,474.8 102,474.8 102.6,474.2 102.6,472.2 105.9,472.2 107,475.1 107,476.9 108,477.9 110.1,478.5 
		110.2,479 111.3,483.3 112.1,484.1 113,484.5 113.7,483.8 115.5,484.2 118.6,481 122.1,481 124.8,479.1 126.1,476.4 126.1,475.9 
		125,476.5 122,476.3 122,472.6 118.8,469.6 117.9,466.3 118.9,463.7 118.9,461.5 115.1,458.8 117.5,456.4 117.5,454.2 121.1,452.7 
		123.2,454.8 125.5,454.4 127.2,451 125.8,445.5 129.6,441.7 130.7,439 128.7,435.9 128.5,434.5 125.8,434.5 124.5,435.9 
		121.5,435.9 120.4,434.4 117.4,434.4 117.4,432 117.2,431.8 116.7,432.4 115.5,435.3 110.2,436 110.4,438.7 107.6,438.3 
		106.1,439.8 106.7,443.3 104,444.9 100.1,448.9 93.8,442.1 91.5,443.1 88.6,441.9 85.8,443.1 84.6,444.4 85.3,444.6 86.9,446.3 
		89.4,446.9 91.9,448.7 90.9,453 87.4,451.6 84.9,451.3 84.6,452.4 84.5,453.4 85.3,454.2 	"/>
	<polygon class="st0" points="352.5,241.9 353.5,244.5 354.7,244.8 354.6,248.4 356.3,249.8 354.9,252.2 352.8,252.8 352.3,254.3 
		354.1,256.3 356.5,258.5 357.6,257.9 359.5,260.7 360.7,260.7 363.6,262.3 363.6,263.2 364.5,262.8 364.9,262.4 364.3,260.6 
		362.7,258 363.8,254.3 362.6,250.7 363.6,248.1 363.6,244.4 365.6,242.4 366.5,239.4 368.7,238.5 368.7,236.1 371.6,233.7 
		374.3,233.7 375.9,231 377.5,228.9 379.4,228.9 382.6,225.7 382.9,225.9 382.9,222.6 385.4,225 385.6,225 385.3,222.8 388.8,219.6 
		388.8,222.2 391.5,220.2 391.5,217 394.2,217.8 394.4,216.5 397.6,216.5 400,216.8 401.1,216.3 400.2,214.3 404.3,212 408.4,212 
		410.5,209.8 416.4,209.8 420.3,209.9 422.2,208 426.1,209.4 430.1,207.6 433.3,207.3 435.7,205 438.3,202.7 438.3,200.1 
		436.8,197.7 434.2,197.7 430.8,199 428.3,200.3 425.9,202.8 422.2,202.8 419.3,203.6 417.8,202.1 414.8,202.1 413.6,200.2 
		411.7,200.1 409.5,202.3 405.5,202.3 403.4,201.6 400.2,203 398.5,203 397.3,204.5 395.3,206.6 392.9,205.8 392.9,207.4 
		389.6,207.4 388.5,206.4 390.1,208.2 388.4,209.9 388.7,214.6 386.2,212.1 385.7,212.2 387.5,214 383,214.2 383,215.8 380.2,215.8 
		378.5,217.5 372.3,219.2 374.4,220 376.9,222.5 372.4,223.4 372.1,224.5 369.7,227 367.8,225.1 366,225.1 366,226.4 364.9,229.5 
		362,228.3 361.1,228.9 362.6,230.5 359.3,233.9 356.5,234.8 355.9,237.1 353.8,236.2 353,235.3 351.3,235.2 349.5,237.6 349.1,240 
		350.3,241.7 	"/>
	<polygon class="st0" points="369.7,271 368.2,271.7 367.3,272 367.8,276.2 369.3,276.6 369.8,279.3 371.3,279.5 371.9,278.2 
		370.6,276 370.7,273.3 	"/>
	<polygon class="st0" points="177,291.2 180.6,292.8 182.9,297.3 184.3,302.5 186.5,301.3 189.1,297.6 191.1,298.6 193.6,297.3 
		196.3,296.4 199.2,296.9 201.2,297.8 203.7,297.3 206.4,298.9 206.6,300.4 207.8,301.8 208.2,301.3 208.5,301 209.6,300.8 
		212.2,298.1 212.7,296.1 212.3,293.5 215.1,292.6 215.9,290.5 213.1,287.7 213.4,284.1 213.5,283.3 214.5,281.2 216.4,280.3 
		217.1,278.6 216.9,276.1 218.8,273.9 220,275.5 220.4,275.1 220.9,275.4 221.9,276 222.6,275 223.4,274 225.3,270.6 223,263.3 
		226,260.3 227.2,254.9 230.5,251.6 234,250.5 235.9,246.3 236.4,243.5 233.9,241 235.9,239 235.9,236.5 234.7,236.6 233.1,235.7 
		230.5,236.3 228.1,233.9 229,231.2 229.3,229.1 223.2,223.6 217.8,233.8 214.9,232.5 209.8,236.5 208,236.7 208,241.6 205.2,242.6 
		205.2,246.4 201,249.8 197.3,249.8 196.3,258.9 196.3,263.4 189.2,266 169.8,266.1 169.8,269.6 171.4,275.1 	"/>
	<polygon class="st0" points="230.8,231.7 230.2,233.4 231,234.3 233.4,233.7 235.1,234.7 235.7,234.7 235.2,231.9 236.8,230.2 
		238.2,226.4 242,230.2 239.8,232.4 239.3,234.8 241.2,235.6 242.4,241.5 244.3,244.9 245.4,247.9 246.7,250.9 249.7,253.9 
		249.7,258 252.1,260.5 256.4,262.9 260.2,264.3 264.8,263.4 268.7,263.4 272.4,259.7 274.9,255.4 275.5,250.1 275.6,247.2 
		273,244.6 272.9,239.8 271.9,237.6 272.7,233.6 272.7,229.4 271.6,225.5 269,222.9 269,219.5 266.8,218.5 266.8,215.1 265.2,213.5 
		262.3,211.9 262.3,208.6 261.4,205.3 264,202.7 265.9,204.6 265.8,204.1 265.8,202.5 263.1,202.4 259.3,202.9 259.7,200.7 
		258.4,201.6 256,199.2 253.6,199.2 249.4,197.7 239.1,202.8 239.1,210.7 236.3,215.6 228.4,215.6 224.2,219.8 223.9,221.8 
		231.2,228.4 	"/>
	<polygon class="st0" points="272.9,278.5 274.8,276.6 272.6,273.4 271.2,272 268.9,272 264.6,273.3 261,271.4 256.8,273 
		252.8,272.4 252.7,277 250.3,279 251.4,281.5 249.3,283.6 244,282.1 242.3,278.3 239.5,275.6 238.6,270.9 237.8,264.8 236.4,264.8 
		234.4,267 234.4,269.2 234.1,272.2 236.1,274.2 235.2,278.8 230.5,282.2 224.2,276 222.9,277.8 222.4,278.6 221.3,277.8 
		220.7,277.4 219.8,278.3 218.8,277 218.9,279 218.9,279 218.9,279 217.8,281.6 215.9,282.6 215.3,283.8 215,287 218,290.1 
		216.5,294.1 214.3,294.8 214.5,296.2 213.9,299.1 210.5,302.4 209.4,302.7 208.6,303.7 206.5,307.9 206.8,309.5 205.7,310.7 
		206.3,314 208.1,315.1 208.1,317 210.3,318.1 210.9,319.7 211.8,320.3 212.9,321.4 214.5,321.4 216.2,323.1 216.6,324.4 
		219.2,324.6 221.7,325.2 222.7,326.3 224.9,326.8 225.7,329 227.3,330.6 228.8,331.7 228.8,333 229.4,333.2 230.9,333.2 
		230.9,331.9 233.1,332.6 235.6,332.6 235.6,335.1 236,335.6 237.5,335.6 237.5,337.2 238.9,337.9 239.5,338.5 240.3,337.7 
		241,335.6 243.9,336.9 245.5,339.7 244.6,340.6 245.7,341.3 245.7,341.8 246.3,341.8 249.4,343.1 248.2,344.2 249.1,345.3 
		250.4,344.1 252.3,344.8 252.5,345 255.3,348.3 255.6,348.7 255.6,348.8 255.2,350.2 255.5,350.3 256.3,350.1 256.1,348.4 
		258.6,349.2 261.6,349.2 261.9,350.5 262.4,350.6 263.5,349.4 264.8,348.3 265.7,346.9 263.8,345 265.8,343.1 267.3,342.2 
		267.5,340.8 270.1,339.2 272.2,337.2 273.5,336.6 274.6,335.5 273.7,334.6 273.7,333.5 272.8,334 271.6,332.8 270.7,332.8 
		269.3,333.1 268.3,335.4 267.2,335 265.6,337.2 263.6,335.3 262.3,334.8 260.3,333.9 259.9,330.1 261.7,329.3 261.4,327.8 
		262.4,326.9 263,325.1 265.4,324.5 266.9,324.9 267,324.5 266.8,322.6 265.5,321.4 266.3,318.2 268.3,317 268.3,315 268.8,313.4 
		267.4,312.1 265.7,309.6 265.7,307.6 265.1,304.5 268.4,304.5 270.7,306.2 272.5,306.8 273.8,308.1 276.2,308.6 278.8,310.1 
		281.4,312.7 281.7,314.1 282.4,313.7 284.9,312.8 286.7,314 288.8,314.4 290.6,315.9 292,315.9 292.6,316.5 293.2,315.9 
		294.1,314.2 293.3,313.4 292.7,310.8 293.6,308.9 293.2,307.9 291.4,306.2 290.4,304.2 293.1,301.6 293.1,300.5 294.2,299.3 
		295.1,297 296.2,295.9 295.8,295.4 293.9,294.5 293.8,294.9 290.5,296.1 290.5,296.1 290.5,296.1 289.8,295.8 288.5,295.3 
		288.4,295.2 286.6,293.1 285,291.5 285,291.5 284.4,289 284.4,289 282.2,286.7 281.1,285.4 280.7,284.8 279.8,281.5 278.8,279.2 
		278.5,278.9 278.3,278.6 276.4,280.5 272.9,284.8 	"/>
</g>
</svg>
