<svg version="1.1" id="map_pin" xmlns="http://www.w3.org/2000/svg" xmlns:xlink="http://www.w3.org/1999/xlink" x="0px" y="0px"
	 viewBox="0 0 30 45.1" style="enable-background:new 0 0 30 45.1;" xml:space="preserve">
<style type="text/css">
	.st0{fill:#455CCE;}
	.st1{fill:#FFFFFF;}
</style>
<g>
	<path class="st0" d="M15,44.3C12.7,41.3,0.5,25.2,0.5,15C0.5,7,7,0.5,15,0.5S29.5,7,29.5,15C29.5,25.2,17.3,41.3,15,44.3z"/>
</g>
<path class="st1" d="M15,1c7.7,0,14,6.3,14,14c0,9.6-11,24.5-14,28.5C12,39.5,1,24.6,1,15C1,7.3,7.3,1,15,1 M15,0C6.7,0,0,6.7,0,15
	c0,11.6,15,30.1,15,30.1S30,26.6,30,15C30,6.7,23.3,0,15,0L15,0z M15,19c-2.5,0-4.5-2-4.5-4.5s2-4.5,4.5-4.5s4.5,2,4.5,4.5
	S17.5,19,15,19z"/>
</svg>
