<svg version="1.1" id="phone_call" xmlns="http://www.w3.org/2000/svg" xmlns:xlink="http://www.w3.org/1999/xlink" x="0px" y="0px"
	 viewBox="0 0 23 23" style="enable-background:new 0 0 23 23;" xml:space="preserve">
<style type="text/css">
	.st0{fill:#FFDD4D;}
</style>
<g id="Page-1">
	<g id="_x30_38---Calling" transform="translate(-1)">
		<path id="Shape" class="st0" d="M6,2l2,3L6.7,6.3C6.2,6.8,5.9,7.6,6,8.4c0.2,1.4,1.4,2.6,3.6,4.8c0.2,0.2,0.4,0.4,0.6,0.6
			c0.2,0.2,0.4,0.4,0.6,0.6c2.2,2.2,3.4,3.4,4.8,3.6c0.1,0,0.2,0,0.3,0c0.7,0,1.3-0.3,1.8-0.7l1.2-1.2l3,1.9l-1.5,3.2
			c-1.2-0.1-3-0.3-5.1-1c-2.7-0.9-5.1-2.4-7.1-4.4c-2-2-3.5-4.4-4.4-7.1c-0.7-2.1-0.9-3.9-1-5.1L6,2 M6.3,0C6.2,0,6.1,0,6,0.1
			L1.4,2.2C1.1,2.4,1,2.7,1,3C1.2,5.3,1.6,11.5,7,17c5.5,5.5,11.7,5.8,13.9,6c0,0,0.1,0,0.1,0c0.3,0,0.6-0.2,0.7-0.4l2.1-4.5
			c0.2-0.4,0.1-0.8-0.3-1l-4.4-2.8C19.1,14.1,19,14,18.8,14c-0.2,0-0.4,0.1-0.6,0.2L16.5,16c-0.1,0.2-0.4,0.2-0.6,0.2
			c0,0-0.1,0-0.1,0c-0.9-0.1-2.2-1.5-4.4-3.7c-2.2-2.2-3.6-3.5-3.7-4.4c0-0.2,0.1-0.5,0.2-0.7l1.8-1.8c0.3-0.3,0.3-0.7,0.1-1L7,0.4
			C6.9,0.1,6.6,0,6.3,0L6.3,0z"/>
	</g>
</g>
</svg>
