<svg version="1.1" id="pin" xmlns="http://www.w3.org/2000/svg" xmlns:xlink="http://www.w3.org/1999/xlink" x="0px" y="0px"
	 viewBox="0 0 16.6 24.7" style="enable-background:new 0 0 16.6 24.7;" xml:space="preserve">
<style type="text/css">
	.st0{fill:#273142;}
</style>
<g>
	<path class="st0" d="M8.3,0C3.7,0,0,3.7,0,8.3c0,6,7.4,15.2,7.7,15.6l0.6,0.7l0.6-0.7c0.3-0.4,7.7-9.6,7.7-15.6
		C16.6,3.7,12.9,0,8.3,0z M8.3,22.2c-1.7-2.3-6.8-9.4-6.8-13.9c0-3.7,3-6.8,6.8-6.8s6.8,3,6.8,6.8C15.1,12.9,10,19.9,8.3,22.2z"/>
	<path class="st0" d="M8.3,5.1c-1.7,0-3,1.3-3,3s1.3,3,3,3s3-1.3,3-3S10,5.1,8.3,5.1z M8.3,9.6c-0.8,0-1.5-0.7-1.5-1.5
		s0.7-1.5,1.5-1.5s1.5,0.7,1.5,1.5S9.1,9.6,8.3,9.6z"/>
</g>
</svg>
