<svg version="1.1" id="question" xmlns="http://www.w3.org/2000/svg" xmlns:xlink="http://www.w3.org/1999/xlink" x="0px" y="0px"
	 viewBox="0 0 23 23" style="enable-background:new 0 0 23 23;" xml:space="preserve">
<style type="text/css">
	.st0{fill:#273142;}
</style>
<g>
	<path class="st0" d="M12.4,16.3h-1.7V15c0-1.6,0.7-3.1,2-4.5c1-1,1.4-2,1.3-2.8c-0.2-1-1-2.1-2.4-2.1C10.2,5.6,9,6.8,9,8.4H7.3
		c0-2.6,1.9-4.5,4.4-4.5c2.1,0,3.8,1.5,4.1,3.6c0.2,1.4-0.4,2.9-1.8,4.3c-0.7,0.7-1.5,1.9-1.5,3.3V16.3z"/>
</g>
<g>
	<path class="st0" d="M11.5,17.4c-0.5,0-0.9,0.4-0.9,0.9c0,0.5,0.4,0.9,0.9,0.9c0.5,0,0.9-0.4,0.9-0.9C12.4,17.8,12,17.4,11.5,17.4
		L11.5,17.4z"/>
</g>
<g>
	<path class="st0" d="M11.5,23C5.2,23,0,17.8,0,11.5C0,5.2,5.2,0,11.5,0S23,5.2,23,11.5C23,17.8,17.8,23,11.5,23z M11.5,1.7
		c-5.4,0-9.8,4.4-9.8,9.8s4.4,9.8,9.8,9.8s9.8-4.4,9.8-9.8S16.9,1.7,11.5,1.7z"/>
</g>
</svg>
