<svg version="1.1" id="search" xmlns="http://www.w3.org/2000/svg" xmlns:xlink="http://www.w3.org/1999/xlink" x="0px" y="0px"
	 viewBox="0 0 22 22" style="enable-background:new 0 0 22 22;" xml:space="preserve">
<style type="text/css">
	.st0{fill:#7B818C;}
</style>
<path class="st0" d="M22,20.7l-7.2-7.2l-0.6,0.6l0,0c-1.4,1.4-3.2,2.1-5.1,2.1c0,0,0,0,0,0c-4,0-7.3-3.3-7.3-7.3
	c0-4,3.3-7.3,7.3-7.3c0,0,0,0,0,0c1.9,0,3.8,0.8,5.1,2.1c1.4,1.4,2.1,3.2,2.1,5.1c0,0.6-0.1,1.2-0.2,1.8l1.7,0.4
	c0.2-0.7,0.3-1.5,0.3-2.2c0-2.4-0.9-4.7-2.7-6.4C13.8,0.9,11.5,0,9.1,0c0,0,0,0,0,0C4.1,0,0,4.1,0,9.1c0,5,4.1,9.1,9.1,9.1
	c0,0,0,0,0,0c2.1,0,4.1-0.7,5.7-2.1l5.9,5.9L22,20.7z"/>
</svg>
