<svg version="1.1" id="vk" xmlns="http://www.w3.org/2000/svg" xmlns:xlink="http://www.w3.org/1999/xlink" x="0px" y="0px"
	 viewBox="0 0 24 13.2" style="enable-background:new 0 0 24 13.2;" xml:space="preserve">
<style type="text/css">
	.st0{fill:#FFDD4D;}
</style>
<path class="st0" d="M21.4,9.1c0.9,0.9,1.6,1.5,1.9,1.9c0.3,0.4,0.5,0.7,0.5,0.8c0.3,0.6,0.3,1-0.1,1.2c-0.4,0.2-0.7,0.2-0.7,0.2
	l-3.2,0.1l-0.5,0c-0.3,0-0.7-0.2-1.1-0.4c-0.6-0.5-1.2-1.1-1.8-1.7c-0.6-0.7-1.1-0.9-1.5-0.9c-0.4,0.2-0.7,0.6-0.8,1.2
	c-0.1,0.6-0.1,0.9-0.1,1L14,12.4c0,0.1-0.1,0.2-0.2,0.3c-0.1,0.1-0.3,0.2-0.4,0.2l-1.7-0.1c-0.1,0.1-0.7,0-1.9-0.2
	c-1.2-0.2-2.5-1-4-2.3c-1.6-1.7-2.9-3.6-4-5.6C0.7,2.7,0.1,1.5,0.1,1.3L0,1.2C0,1,0,0.9,0.1,0.8c0.1-0.1,0.2-0.2,0.4-0.2h4
	c0.1,0,0.2,0.1,0.3,0.2C4.9,0.9,4.9,1,5,1.1l0.5,1C5.7,2.5,6,3.1,6.4,3.8C7.1,4.9,7.6,5.7,8,6.1c0.4,0.4,0.7,0.5,0.9,0.3
	c0.4-0.3,0.5-0.9,0.5-1.8V3L9.4,2.5c0-0.4-0.1-0.7-0.3-1C9,1.3,8.8,1.1,8.6,1.1C8.4,1,8.2,1,8.1,1c-0.1,0-0.1-0.1,0-0.2
	c0.1-0.2,0.3-0.3,0.5-0.5c0.4-0.1,0.8-0.2,1.3-0.2C10.3,0,10.9,0,11.6,0c0.5,0,0.8,0,1,0.1c0.2,0,0.4,0.1,0.6,0.1
	c0.5,0.1,0.8,0.5,0.8,1.1c0,0.9,0,1.9-0.1,2.8c0,0.5,0,0.9,0,1.3s0.2,0.8,0.4,1c0.1,0.1,0.4,0,0.8-0.3c0.4-0.3,1-1.1,1.7-2.3
	c0.4-0.7,0.7-1.3,0.9-1.9l0.4-0.9L18.4,1c0.1-0.1,0.2-0.2,0.3-0.2c0.1-0.1,0.2-0.1,0.3-0.1h4.3c0.4,0,0.6,0.1,0.7,0.3
	c0.2,0.5-0.4,1.7-1.9,3.5c-1.2,1.5-1.9,2.4-2,2.8C19.9,7.8,20.4,8.4,21.4,9.1z"/>
</svg>
