<svg version="1.1" id="youtube" xmlns="http://www.w3.org/2000/svg" xmlns:xlink="http://www.w3.org/1999/xlink" x="0px" y="0px"
	 viewBox="0 0 24 16.8" style="enable-background:new 0 0 24 16.8;" xml:space="preserve">
<style type="text/css">
	.st0{fill:#FFDD4D;}
</style>
<path class="st0" d="M23.8,4.9c-0.1-1-0.2-1.7-0.3-2.3c-0.3-1.1-1-1.8-2.1-2.1C20.2,0.2,17,0,12,0l-1.9,0.1c-1.3,0-2.7,0-4.3,0.1
	C4.2,0.3,3.2,0.4,2.6,0.5c-1.1,0.3-1.8,1-2.1,2.1C0.2,3.8,0,5.8,0,8.4l0.1,1c0,0.7,0,1.5,0.1,2.5c0.1,1,0.2,1.7,0.3,2.3
	c0.3,1.1,1,1.8,2.1,2.1c1.2,0.3,4.4,0.5,9.4,0.5l1.9-0.1c1.3,0,2.7,0,4.3-0.1c1.6-0.1,2.6-0.2,3.2-0.3c1.1-0.3,1.8-1,2.1-2.1
	C23.8,13,24,11,24,8.4l-0.1-1C23.9,6.7,23.9,5.8,23.8,4.9z M15.8,8.4L9.6,12V4.8L15.8,8.4z"/>
</svg>
