<?xml version="1.0" encoding="utf-8"?><svg viewBox="0 0 155.14 155.14" xmlns="http://www.w3.org/2000/svg" xmlns:xlink="http://www.w3.org/1999/xlink"><style>:root>svg{display:none}:root>svg:target{display:block}</style><svg version="1.1" id="arrow" x="0" y="0" viewBox="0 0 6 10" xml:space="preserve" xmlns="http://www.w3.org/2000/svg"><style>.ast0{fill:#da1515}</style><path class="ast0" d="M6 8.8L4.9 10 0 5l4.9-5L6 1.2 2.3 5z"/></svg><svg version="1.1" id="cart" x="0" y="0" viewBox="0 0 34.8 28" xml:space="preserve" xmlns="http://www.w3.org/2000/svg"><style>.bst0{fill:#273142}</style><path class="bst0" d="M26.9 18.6h-13c-1.5 0-2.9-.9-3.5-2.3v-.1L5.9 1.8H0V0h7.2l4.9 15.6c.3.7 1 1.2 1.8 1.2H27c.7 0 1.4-.4 1.7-1l3.6-9.6H16.8V4.4h18.1l-4.5 12.1v.1c-.8 1.2-2.1 2-3.5 2zm-11 6.4c0-1.7-1.4-3-3-3s-3 1.4-3 3c0 1.7 1.4 3 3 3s3-1.4 3-3zm-1.8 0c0 .7-.6 1.2-1.2 1.2-.7 0-1.2-.6-1.2-1.2 0-.7.6-1.2 1.2-1.2.6-.1 1.2.5 1.2 1.2zm16.7 0c0-1.7-1.4-3-3-3-1.7 0-3 1.4-3 3 0 1.7 1.4 3 3 3s3-1.4 3-3zM29 25c0 .7-.6 1.2-1.2 1.2-.7 0-1.2-.6-1.2-1.2 0-.7.6-1.2 1.2-1.2.6-.1 1.2.5 1.2 1.2z"/></svg><svg version="1.1" id="catalog" x="0" y="0" viewBox="0 0 16 16" xml:space="preserve" xmlns="http://www.w3.org/2000/svg"><style>.cst0{fill-rule:evenodd;clip-rule:evenodd;fill:#273142}</style><path class="cst0" d="M10 10h6v6h-6v-6zM0 10h6v6H0v-6zM10 0h6v6h-6V0zM0 0h6v6H0V0z"/></svg><svg version="1.1" id="catalog_hover" x="0" y="0" viewBox="0 0 18 18" xml:space="preserve" xmlns="http://www.w3.org/2000/svg"><style>.dst0{fill:#273142}</style><path class="dst0" d="M12 12h6v6h-6v-6zM0 12h6v6H0v-6zM12 0h6v6h-6V0zM0 0h6v6H0V0z"/></svg><svg version="1.1" id="check" x="0" y="0" viewBox="0 0 11.6 8.2" xml:space="preserve" xmlns="http://www.w3.org/2000/svg"><style>.est0{fill:#da1515}</style><path class="est0" d="M10.6 0c-.2 0-.5.1-.7.3L4.4 5.9 1.6 3c-.2-.2-.4-.3-.7-.3-.5.1-.9.5-.9 1 0 .2.1.5.3.6l3.5 3.6c.2.2.4.3.6.3.2 0 .5-.1.7-.3l6.2-6.3c.2-.2.3-.4.3-.7 0-.5-.5-.9-1-.9z"/></svg><svg version="1.1" id="close" x="0" y="0" viewBox="0 0 9.7 10" xml:space="preserve" xmlns="http://www.w3.org/2000/svg"><style>.fst0{fill:#fff}</style><path class="fst0" d="M9.7 1.2L8.6 0 4.9 3.8 1.1 0 0 1.2 3.7 5 0 8.8 1.1 10l3.8-3.8L8.6 10l1.1-1.2L6 5z"/></svg><svg version="1.1" id="compare" x="0" y="0" viewBox="0 0 18.8 20" xml:space="preserve" xmlns="http://www.w3.org/2000/svg"><style>.gst0{fill:#7b818c}</style><path class="gst0" d="M1.5 20H0V5.3h1.5V20zM7.3 0H5.8v13h1.5V0zm0 16.2H5.8V20h1.5v-3.8zm5.8-7h-1.5V20h1.5V9.2zm5.7-3.9h-1.5V20h1.5V5.3z"/></svg><svg viewBox="0 0 155.139 155.139" id="facebook"><path d="M89.584 155.139V84.378h23.742l3.562-27.585H89.584V39.184c0-7.984 2.208-13.425 13.67-13.425l14.595-.006V1.08C115.325.752 106.661 0 96.577 0 75.52 0 61.104 12.853 61.104 36.452v20.341H37.29v27.585h23.814v70.761h28.48z"/></svg><svg version="1.1" id="favorite" x="0" y="0" viewBox="0 0 22.1 21" xml:space="preserve" xmlns="http://www.w3.org/2000/svg"><style>.ist0{fill:#7b818c}</style><path class="ist0" d="M17.9 21l-6.8-3.5h-.2L4.2 21l1.3-7.5v-.1L0 8l7.6-1.1c.1 0 .1-.1.1-.1l1.4.7c-.3.5-.7.9-1.3.9l-4.5.7 3.3 3.2c.4.4.5.9.4 1.4l-.8 4.5 4.1-2.1c.5-.2 1-.2 1.5 0l4 2.1-.8-4.5c-.1-.5.1-1 .4-1.4l3.3-3.2-4.5-.7c-.5-.1-1-.4-1.2-.9l-2.7-5.4-.2-.4 1-1.7 3.4 6.8c0 .1.1.1.1.1L22.1 8l-5.5 5.3v.1l1.3 7.6z"/></svg><svg version="1.1" id="ico-mir" x="0" y="0" viewBox="0 0 99 62.3" xml:space="preserve" xmlns="http://www.w3.org/2000/svg"><style>.jst0{fill:#fff}.jst1{fill:#3da436}.jst2{fill:url(#jSVGID_1_)}.jst3{fill:#3ca436}</style><path class="jst0" d="M0 0h99v62.3H0V0z"/><path class="jst1" d="M25.7 42.7H21c-1.8-4.5-2.8-9.2-5-13.6v13.5c-2.5.2-4.8.1-7.1.1-.3-.4-.6-.6-.6-.9 0-7-.1-14.1-.1-21.1 0-.3.3-.7.6-1.2h7.7c1.9 0 3 1.3 3.5 3 .9 2.8 1.7 5.6 2.4 8.4.2.8.7 1.4.8 2.2.8-.3.9-.8 1.1-1.4.7-2.7 1.6-5.4 2.3-8.1.4-1.7 1.3-3 2.8-4h9v23H31c-.6-2.3-.2-4.6-.3-6.8-.1-2.2 0-4.3-.2-6.5-2.2 4.2-2.8 9-4.8 13.4m30.7-23.1h7.7v22.9h-6.7c-.7-.4-.7-1.1-.7-1.8V29c-1.2.4-1.4 1.3-1.6 2-1.1 2.9-2.7 5.6-3.9 8.5-.9 2.2-2.6 3.3-5 3.1-1.5-.1-3.1 0-4.4 0-.9-.6-.9-1.3-.9-2V19.7c2.4-.6 4.8-.1 7.4-.3v13.7c.9-.4 1.1-.9 1.4-1.5 1.3-3 2.7-6 4-9 .7-1.3 1.7-2.1 2.7-3"/><linearGradient id="jSVGID_1_" gradientUnits="userSpaceOnUse" x1="-571.63" y1="364.009" x2="-570.957" y2="364.009" gradientTransform="matrix(31.818 0 0 -11.8526 18256.416 4338.385)"><stop offset="0" stop-color="#00a3e3"/><stop offset="1" stop-color="#0071bf"/></linearGradient><path class="jst2" d="M90.4 28.4c-4.7 0-9.4.1-14 0-3.8-.1-6.4-2.3-8.3-5.4-.6-.9-1.3-1.9-1.2-3 .4-.5.8-.4 1.2-.4h15.1c3.6 0 6.1 2 7 5.6.3.9 1 1.8.2 3.2"/><path class="jst3" d="M74.8 42.5c-2.4.4-4.6.2-6.7.1-.2-.3-.5-.6-.5-.8V30.9c2.2-.5 18-.6 22.5-.2-2 3.7-3.4 4.6-7.4 4.6h-7.4c-.6 2.4.1 4.8-.5 7.2"/></svg><svg version="1.1" id="inst" x="0" y="0" viewBox="0 0 19 19" xml:space="preserve" xmlns="http://www.w3.org/2000/svg"><style>.kst0{fill:#ffdd4d}</style><path class="kst0" d="M13.5 0h-8C2.5 0 0 2.5 0 5.5v8c0 3 2.5 5.5 5.5 5.5h8c3 0 5.5-2.5 5.5-5.5v-8c0-3-2.5-5.5-5.5-5.5zm3.6 13.7c0 1.9-1.5 3.4-3.4 3.4H5.3c-1.9 0-3.4-1.5-3.4-3.4V5.3c0-1.9 1.5-3.4 3.4-3.4h8.4c1.9 0 3.4 1.5 3.4 3.4v8.4z"/><path class="kst0" d="M9.5 4.8c-2.6 0-4.8 2.1-4.8 4.8s2.1 4.8 4.8 4.8 4.8-2.1 4.8-4.8-2.2-4.8-4.8-4.8zm2.9 4.7c0 1.6-1.3 2.9-2.9 2.9s-2.9-1.3-2.9-2.9c0-1.6 1.3-2.9 2.8-2.9 1.7 0 2.9 1.3 3 2.9z"/><circle class="kst0" cx="14.5" cy="4.5" r="1.2"/></svg><svg version="1.1" id="list" x="0" y="0" viewBox="0 0 26 26" xml:space="preserve" xmlns="http://www.w3.org/2000/svg"><style>.lst0{fill:#273142}</style><path class="lst0" d="M0 7.3h4v4H0v-4zM8 7.8h18v3H8v-3zM8 .5h18v3H8v-3zM0 0h4v4H0V0zM0 22h4v4H0v-4zM8 22.5h18v3H8v-3zM0 14.7h4v4H0v-4zM8 15.2h18v3H8v-3z"/></svg><svg version="1.1" id="login" x="0" y="0" viewBox="0 0 20 20" xml:space="preserve" xmlns="http://www.w3.org/2000/svg"><style>.mst0{fill:#7b818c}</style><path class="mst0" d="M14.6 10.3c1-1.1 1.6-2.5 1.6-4.1C16.2 2.8 13.4 0 10 0 6.6 0 3.8 2.8 3.8 6.2c0 3.4 2.8 6.2 6.2 6.2 1.2 0 2.3-.4 3.3-1 2.9 1.2 4.9 4 5.2 7.1H1.6c.2-2 1.1-3.9 2.6-5.4L3.1 12c-2 1.9-3.1 4.5-3.1 7.2v.8h20v-.8c0-3.7-2.1-7.2-5.4-8.9zm-4.6.5c-2.6 0-4.7-2.1-4.7-4.7S7.4 1.4 10 1.4s4.7 2.1 4.7 4.7-2.1 4.7-4.7 4.7z"/></svg><svg version="1.1" id="mail" x="0" y="0" viewBox="0 0 23.7 17.8" xml:space="preserve" xmlns="http://www.w3.org/2000/svg"><style>.nst0{fill:#d4d6d9}</style><path class="nst0" d="M0 0v17.8h23.7V0H0zm16.1 10.9L14.6 12l5.5 4H3.7l5.5-4-1.5-1.1-5.8 4.2V2.7l10 7.3L22 2.7v12.5l-5.9-4.3zM3.7 1.8h16.4l-8.2 6-8.2-6z"/></svg><svg version="1.1" id="mas" x="0" y="0" viewBox="0 0 99 62.3" xml:space="preserve" xmlns="http://www.w3.org/2000/svg"><style>.ost0{fill:#fff}.ost1{fill:#ff5f00}.ost2{fill:#eb001b}.ost3{fill:#f79e1b}</style><path class="ost0" d="M0 0h99v62.3H0V0z"/><path d="M27.8 57.2v-3.5c.1-.6-.2-1.2-.6-1.6-.4-.4-1-.7-1.6-.6-.8 0-1.5.3-2 1-.4-.7-1.1-1-1.9-1-.7 0-1.3.3-1.7.8v-.7h-1.1v5.6H20V54c0-.4.1-.8.4-1.1.3-.3.7-.4 1.1-.4.8 0 1.3.5 1.3 1.5v3.2h1.1V54c0-.4.1-.8.4-1.1.3-.3.7-.4 1.1-.4.8 0 1.3.5 1.3 1.5v3.2h1.1zm18.3-5.6H44v-1.7h-1v1.7h-1.2v1H43v2.6c0 1.3.5 2.1 1.9 2.1.5 0 1.1-.2 1.5-.4l-.4-1c-.3.2-.7.3-1.1.3-.3 0-.5-.1-.7-.3-.2-.2-.3-.4-.2-.7v-2.7h2.1v-.9zm10.5-.2c-.6 0-1.2.3-1.5.8v-.7H54v5.6h1.1V54c0-.9.5-1.5 1.2-1.5.3 0 .5 0 .8.1l.4-1.1c-.3 0-.6 0-.9-.1zm-15.8.6c-.7-.4-1.5-.6-2.3-.6-1.4 0-2.3.6-2.3 1.8 0 .9.6 1.5 1.9 1.6l.6.1c.6.1 1.1.4 1.1.6 0 .4-.5.7-1.4.7-.7 0-1.3-.2-1.9-.6l-.6.9c.7.5 1.6.7 2.4.7 1.7 0 2.5-.8 2.5-1.8 0-1.1-.7-1.5-1.9-1.6l-.6-.1c-.5-.1-1-.2-1-.6 0-.4.5-.7 1.1-.7.6 0 1.2.2 1.8.5l.6-.9zm17.1 2.4c0 .8.2 1.6.8 2.1.6.6 1.3.9 2.1.8.7 0 1.4-.2 2-.6l-.6-.9c-.4.3-.9.5-1.5.5-1-.1-1.7-.9-1.7-1.9 0-1 .8-1.8 1.7-1.9.5 0 1.1.2 1.5.5l.6-.9c-.6-.5-1.3-.7-2-.6-.8-.1-1.6.2-2.1.7-.5.6-.8 1.4-.8 2.2zm-7.9-3c-1.6 0-2.8 1.2-2.8 2.9-.1.8.2 1.6.8 2.1.6.6 1.3.9 2.1.8.8 0 1.6-.3 2.3-.8l-.6-.8c-.5.4-1.1.6-1.6.6-.9 0-1.6-.6-1.7-1.5h4.2v-.5c-.1-1.6-1.1-2.8-2.7-2.8zm0 1.1c.4 0 .8.1 1 .4.3.3.4.6.4 1h-3.1c.1-.8.8-1.4 1.7-1.4zm-15.3 1.9v-2.8h-1.1v.7c-.4-.6-1.1-.9-1.8-.8-1.6 0-2.9 1.3-2.9 2.9 0 1.6 1.3 2.9 2.9 2.9.7 0 1.4-.3 1.8-.8v.7h1.1v-2.8zm-4.6 0c.1-1 .9-1.7 1.8-1.6 1 0 1.7.8 1.7 1.8s-.8 1.7-1.8 1.7c-.5 0-1-.2-1.3-.5-.3-.4-.4-.9-.4-1.4zm43.6-3c-.6 0-1.2.3-1.5.8v-.7H71v5.6h1.1V54c0-.9.5-1.5 1.2-1.5.3 0 .5 0 .8.1l.4-1.1c-.3 0-.6 0-.8-.1zm9 5c.1 0 .2 0 .2.1.1 0 .1.1.2.1.1.1.1.1.1.2s.1.1.1.2 0 .2-.1.2c-.1.1-.1.1-.1.2-.1.1-.1.1-.2.1s-.1.1-.2.1-.2 0-.2-.1c-.1-.1-.1-.1-.2-.1-.1-.1-.1-.1-.1-.2s-.1-.1-.1-.2 0-.2.1-.2c.1-.1.1-.1.1-.2.1-.1.1-.1.2-.1.1-.1.2-.1.2-.1zm0 1c.1 0 .1 0 .2-.1.1 0 .1-.1.1-.1l.1-.1c0-.1.1-.1.1-.2s0-.1-.1-.2c0-.1-.1-.1-.1-.1l-.1-.1c-.1 0-.1-.1-.2-.1s-.1 0-.2.1c-.1 0-.1.1-.1.1l-.1.1c0 .1-.1.1-.1.2s0 .1.1.2c0 .1.1.1.1.1l.1.1c.1.1.2.1.2.1zm.1-.7c.1 0 .1 0 .2.1l.1.1-.1.1-.1.1.2.2h-.2l-.2-.2h-.1v.2h-.1v-.5h.3zm-.1.1v.1h.2v-.1h-.2zm-13.4-2.4v-2.8h-1.1v.7c-.4-.6-1.1-.9-1.8-.8-1.6 0-2.9 1.3-2.9 2.9 0 1.6 1.3 2.9 2.9 2.9.7 0 1.4-.3 1.8-.8v.7h1.1v-2.8zm-4.5 0c.1-1 .9-1.7 1.8-1.6 1 0 1.7.8 1.7 1.8s-.8 1.7-1.8 1.7c-1.1 0-1.7-.9-1.7-1.9zm15.9 0v-5.1h-1.1v2.9c-.4-.6-1.1-.9-1.8-.8-1.6 0-2.9 1.3-2.9 2.9 0 1.6 1.3 2.9 2.9 2.9.7 0 1.4-.3 1.8-.8v.7h1.1v-2.7zm-4.6 0c.1-1 .9-1.7 1.8-1.6 1 0 1.7.8 1.7 1.8s-.8 1.7-1.8 1.7c-.5 0-1-.2-1.3-.5-.2-.4-.4-.9-.4-1.4z"/><path class="ost1" d="M39.4 8.9h20.4v33.2H39.4V8.9z"/><path class="ost2" d="M41.5 25.5c0-6.5 3-12.6 8.1-16.6-7.3-5.7-17.5-6-25.2-.8-7.7 5.3-11 14.9-8.2 23.7 2.8 8.8 11 14.9 20.3 14.8 4.7 0 9.4-1.6 13.1-4.5-5.1-4-8.1-10.1-8.1-16.6z"/><path class="ost3" d="M83.9 25.5c0 8.1-4.6 15.5-11.9 19-7.3 3.5-16 2.6-22.4-2.4 5.1-4 8.1-10.1 8.1-16.6 0-6.5-3-12.6-8.1-16.6C56 3.9 64.7 3 72 6.5c7.3 3.5 11.9 10.9 11.9 19z"/></svg><svg version="1.1" id="phone" x="0" y="0" viewBox="0 0 15.3 24" xml:space="preserve" xmlns="http://www.w3.org/2000/svg"><style>.pst0{fill:#7b818c}</style><path class="pst0" d="M7.7 17.2c.8 0 1.4.6 1.4 1.4 0 .8-.6 1.4-1.4 1.4-.8 0-1.4-.6-1.4-1.4 0-.8.6-1.4 1.4-1.4zM15.3 0H0v24h15.3V0zM1.8 1.8h11.6v20.4H1.8V1.8z"/></svg><svg version="1.1" id="phone_call" x="0" y="0" viewBox="0 0 23 23" xml:space="preserve" xmlns="http://www.w3.org/2000/svg"><style>.qst0{fill:#ffdd4d}</style><g id="qPage-1"><g id="q_x30_38---Calling" transform="translate(-1)"><path id="qShape" class="qst0" d="M6 2l2 3-1.3 1.3c-.5.5-.8 1.3-.7 2.1.2 1.4 1.4 2.6 3.6 4.8l.6.6.6.6c2.2 2.2 3.4 3.4 4.8 3.6h.3c.7 0 1.3-.3 1.8-.7l1.2-1.2 3 1.9-1.5 3.2c-1.2-.1-3-.3-5.1-1-2.7-.9-5.1-2.4-7.1-4.4-2-2-3.5-4.4-4.4-7.1-.7-2.1-.9-3.9-1-5.1L6 2m.3-2c-.1 0-.2 0-.3.1L1.4 2.2c-.3.2-.4.5-.4.8.2 2.3.6 8.5 6 14 5.5 5.5 11.7 5.8 13.9 6h.1c.3 0 .6-.2.7-.4l2.1-4.5c.2-.4.1-.8-.3-1l-4.4-2.8c0-.2-.1-.3-.3-.3-.2 0-.4.1-.6.2L16.5 16c-.1.2-.4.2-.6.2h-.1c-.9-.1-2.2-1.5-4.4-3.7S7.8 9 7.7 8.1c0-.2.1-.5.2-.7l1.8-1.8c.3-.3.3-.7.1-1L7 .4C6.9.1 6.6 0 6.3 0z"/></g></g></svg><svg version="1.1" id="question" x="0" y="0" viewBox="0 0 23 23" xml:space="preserve" xmlns="http://www.w3.org/2000/svg"><style>.rst0{fill:#273142}</style><path class="rst0" d="M12.4 16.3h-1.7V15c0-1.6.7-3.1 2-4.5 1-1 1.4-2 1.3-2.8-.2-1-1-2.1-2.4-2.1S9 6.8 9 8.4H7.3c0-2.6 1.9-4.5 4.4-4.5 2.1 0 3.8 1.5 4.1 3.6.2 1.4-.4 2.9-1.8 4.3-.7.7-1.5 1.9-1.5 3.3v1.2zM11.5 17.4c-.5 0-.9.4-.9.9s.4.9.9.9.9-.4.9-.9-.4-.9-.9-.9z"/><path class="rst0" d="M11.5 23C5.2 23 0 17.8 0 11.5S5.2 0 11.5 0 23 5.2 23 11.5 17.8 23 11.5 23zm0-21.3c-5.4 0-9.8 4.4-9.8 9.8s4.4 9.8 9.8 9.8 9.8-4.4 9.8-9.8-4.4-9.8-9.8-9.8z"/></svg><svg version="1.1" id="remove" x="0" y="0" viewBox="0 0 14 18" xml:space="preserve" xmlns="http://www.w3.org/2000/svg"><style>.sst0{fill:#273142}</style><path class="sst0" d="M1 16c0 1.1.9 2 2 2h8c1.1 0 2-.9 2-2V4H1v12zM3 6h8v10H3V6zm7.5-5l-1-1h-5l-1 1H0v2h14V1h-3.5z"/></svg><svg version="1.1" id="search" x="0" y="0" viewBox="0 0 22 22" xml:space="preserve" xmlns="http://www.w3.org/2000/svg"><style>.tst0{fill:#7b818c}</style><path class="tst0" d="M22 20.7l-7.2-7.2-.6.6c-1.4 1.4-3.2 2.1-5.1 2.1-4 0-7.3-3.3-7.3-7.3s3.3-7.3 7.3-7.3c1.9 0 3.8.8 5.1 2.1 1.4 1.4 2.1 3.2 2.1 5.1 0 .6-.1 1.2-.2 1.8l1.7.4c.2-.7.3-1.5.3-2.2 0-2.4-.9-4.7-2.7-6.4C13.8.9 11.5 0 9.1 0 4.1 0 0 4.1 0 9.1s4.1 9.1 9.1 9.1c2.1 0 4.1-.7 5.7-2.1l5.9 5.9 1.3-1.3z"/></svg><svg version="1.1" id="star" x="0" y="0" viewBox="0 0 14.5 14" xml:space="preserve" xmlns="http://www.w3.org/2000/svg"><style>.ust0{fill:#fdbf00}</style><path class="ust0" d="M14.5 5.3L9.3 5l-2-5-2 5-5.3.3 4 3.5L2.7 14l4.6-2.9 4.5 2.9-1.3-5.2z"/></svg><svg version="1.1" id="table" x="0" y="0" viewBox="0 0 26 26" xml:space="preserve" xmlns="http://www.w3.org/2000/svg"><style>.vst0{fill:#273142}</style><path class="vst0" d="M10 10h6v6h-6v-6zM0 10h6v6H0v-6zM10 0h6v6h-6V0zM0 0h6v6H0V0zM20 10h6v6h-6v-6zM20 0h6v6h-6V0zM10 20h6v6h-6v-6zM0 20h6v6H0v-6zM20 20h6v6h-6v-6z"/></svg><svg version="1.1" id="vis" x="0" y="0" viewBox="0 0 99 62.3" xml:space="preserve" xmlns="http://www.w3.org/2000/svg"><style>.wst0{fill:#fff}.wst1{fill:#005098}.wst2{fill:#f6a500}</style><path class="wst0" d="M0 0h99v62.3H0V0z"/><path class="wst1" d="M36.4 42.7l4-23.5h6.4l-4 23.5h-6.4zm29.7-22.9c-1.3-.5-3.3-1-5.7-1-6.3 0-10.8 3.2-10.8 7.8 0 3.4 3.2 5.3 5.6 6.4 2.5 1.2 3.3 1.9 3.3 2.9 0 1.6-2 2.3-3.8 2.3-2.6 0-3.9-.4-6-1.2l-.8-.4-.9 5.3c1.5.7 4.3 1.2 7.1 1.3 6.7 0 11.1-3.2 11.2-8 0-2.7-1.7-4.7-5.4-6.4-2.2-1.1-3.6-1.8-3.6-2.9 0-1 1.2-2 3.7-2 2.1 0 3.6.4 4.8.9l.6.3.7-5.3m8.5 14.6c.9-2.2 1.7-4.4 2.6-6.6 0 .1.5-1.4.8-2.2l.4 2s1.2 5.6 1.5 6.8h-5.3zm7.9-15.2h-5c-1.5 0-2.7.4-3.4 2l-9.5 21.6h6.7s1.1-2.9 1.3-3.5h8.2c.2.8.8 3.5.8 3.5h6l-5.1-23.6zm-51.5 0l-6.3 16-.6-3.2c-1.2-3.8-4.8-7.8-8.9-9.9l5.7 20.6h6.8l10.1-23.5H31"/><path class="wst2" d="M18.9 19.2H8.6l-.1.5c8 1.9 13.4 6.7 15.6 12.3l-2.2-10.8c-.5-1.5-1.6-1.9-3-2"/></svg><svg version="1.1" id="vk" x="0" y="0" viewBox="0 0 24 13.2" xml:space="preserve" xmlns="http://www.w3.org/2000/svg"><style>.xst0{fill:#ffdd4d}</style><path class="xst0" d="M21.4 9.1c.9.9 1.6 1.5 1.9 1.9.3.4.5.7.5.8.3.6.3 1-.1 1.2-.4.2-.7.2-.7.2l-3.2.1h-.5c-.3 0-.7-.2-1.1-.4-.6-.5-1.2-1.1-1.8-1.7-.6-.7-1.1-.9-1.5-.9-.4.2-.7.6-.8 1.2-.1.6-.1.9-.1 1v-.1c0 .1-.1.2-.2.3-.1.1-.3.2-.4.2l-1.7-.1c-.1.1-.7 0-1.9-.2s-2.5-1-4-2.3c-1.6-1.7-2.9-3.6-4-5.6C.7 2.7.1 1.5.1 1.3L0 1.2C0 1 0 .9.1.8.2.7.3.6.5.6h4c.1 0 .2.1.3.2.1.1.1.2.2.3l.5 1c.2.4.5 1 .9 1.7.7 1.1 1.2 1.9 1.6 2.3.4.4.7.5.9.3.4-.3.5-.9.5-1.8V2.5c0-.4-.1-.7-.3-1-.1-.2-.3-.4-.5-.4-.2-.1-.4-.1-.5-.1C8 1 8 .9 8.1.8c.1-.2.3-.3.5-.5.4-.1.8-.2 1.3-.2.4-.1 1-.1 1.7-.1.5 0 .8 0 1 .1.2 0 .4.1.6.1.5.1.8.5.8 1.1 0 .9 0 1.9-.1 2.8v1.3c0 .4.2.8.4 1 .1.1.4 0 .8-.3s1-1.1 1.7-2.3c.4-.7.7-1.3.9-1.9l.4-.9h.3c.1-.1.2-.2.3-.2.1-.1.2-.1.3-.1h4.3c.4 0 .6.1.7.3.2.5-.4 1.7-1.9 3.5-1.2 1.5-1.9 2.4-2 2.8-.2.5.3 1.1 1.3 1.8z"/></svg><svg version="1.1" id="youtube" x="0" y="0" viewBox="0 0 24 16.8" xml:space="preserve" xmlns="http://www.w3.org/2000/svg"><style>.yst0{fill:#ffdd4d}</style><path class="yst0" d="M23.8 4.9c-.1-1-.2-1.7-.3-2.3-.3-1.1-1-1.8-2.1-2.1C20.2.2 17 0 12 0l-1.9.1C8.8.1 7.4.1 5.8.2 4.2.3 3.2.4 2.6.5 1.5.8.8 1.5.5 2.6.2 3.8 0 5.8 0 8.4l.1 1c0 .7 0 1.5.1 2.5s.2 1.7.3 2.3c.3 1.1 1 1.8 2.1 2.1 1.2.3 4.4.5 9.4.5l1.9-.1c1.3 0 2.7 0 4.3-.1 1.6-.1 2.6-.2 3.2-.3 1.1-.3 1.8-1 2.1-2.1.3-1.2.5-3.2.5-5.8l-.1-1c0-.7 0-1.6-.1-2.5zm-8 3.5L9.6 12V4.8l6.2 3.6z"/></svg></svg>