<?xml version="1.0" encoding="utf-8"?><svg viewBox="0 0 723.1 460" xmlns="http://www.w3.org/2000/svg" xmlns:xlink="http://www.w3.org/1999/xlink"><style>:root>svg{display:none}:root>svg:target{display:block}</style><svg version="1.1" id="arrow" x="0" y="0" viewBox="0 0 6 10" xml:space="preserve" xmlns="http://www.w3.org/2000/svg"><style>.aast0{fill:#da1515}</style><path class="aast0" d="M6 8.8L4.9 10 0 5l4.9-5L6 1.2 2.3 5z"/></svg><svg version="1.1" id="cart" x="0" y="0" viewBox="0 0 34.8 28" xml:space="preserve" xmlns="http://www.w3.org/2000/svg"><style>.abst0{fill:#273142}</style><path class="abst0" d="M26.9 18.6h-13c-1.5 0-2.9-.9-3.5-2.3v-.1L5.9 1.8H0V0h7.2l4.9 15.6c.3.7 1 1.2 1.8 1.2H27c.7 0 1.4-.4 1.7-1l3.6-9.6H16.8V4.4h18.1l-4.5 12.1v.1c-.8 1.2-2.1 2-3.5 2zm-11 6.4c0-1.7-1.4-3-3-3s-3 1.4-3 3c0 1.7 1.4 3 3 3s3-1.4 3-3zm-1.8 0c0 .7-.6 1.2-1.2 1.2-.7 0-1.2-.6-1.2-1.2 0-.7.6-1.2 1.2-1.2.6-.1 1.2.5 1.2 1.2zm16.7 0c0-1.7-1.4-3-3-3-1.7 0-3 1.4-3 3 0 1.7 1.4 3 3 3s3-1.4 3-3zM29 25c0 .7-.6 1.2-1.2 1.2-.7 0-1.2-.6-1.2-1.2 0-.7.6-1.2 1.2-1.2.6-.1 1.2.5 1.2 1.2z"/></svg><svg version="1.1" id="catalog" x="0" y="0" viewBox="0 0 16 16" xml:space="preserve" xmlns="http://www.w3.org/2000/svg"><style>.acst0{fill-rule:evenodd;clip-rule:evenodd;fill:#273142}</style><path class="acst0" d="M10 10h6v6h-6v-6zM0 10h6v6H0v-6zM10 0h6v6h-6V0zM0 0h6v6H0V0z"/></svg><svg version="1.1" id="catalog_hover" x="0" y="0" viewBox="0 0 18 18" xml:space="preserve" xmlns="http://www.w3.org/2000/svg"><style>.adst0{fill:#273142}</style><path class="adst0" d="M12 12h6v6h-6v-6zM0 12h6v6H0v-6zM12 0h6v6h-6V0zM0 0h6v6H0V0z"/></svg><svg version="1.1" id="check" x="0" y="0" viewBox="0 0 11.6 8.2" xml:space="preserve" xmlns="http://www.w3.org/2000/svg"><style>.aest0{fill:#da1515}</style><path class="aest0" d="M10.6 0c-.2 0-.5.1-.7.3L4.4 5.9 1.6 3c-.2-.2-.4-.3-.7-.3-.5.1-.9.5-.9 1 0 .2.1.5.3.6l3.5 3.6c.2.2.4.3.6.3.2 0 .5-.1.7-.3l6.2-6.3c.2-.2.3-.4.3-.7 0-.5-.5-.9-1-.9z"/></svg><svg version="1.1" id="close" x="0" y="0" viewBox="0 0 9.7 10" xml:space="preserve" xmlns="http://www.w3.org/2000/svg"><style>.afst0{fill:#fff}</style><path class="afst0" d="M9.7 1.2L8.6 0 4.9 3.8 1.1 0 0 1.2 3.7 5 0 8.8 1.1 10l3.8-3.8L8.6 10l1.1-1.2L6 5z"/></svg><svg version="1.1" id="compare" x="0" y="0" viewBox="0 0 18.8 20" xml:space="preserve" xmlns="http://www.w3.org/2000/svg"><style>.agst0{fill:#7b818c}</style><path class="agst0" d="M1.5 20H0V5.3h1.5V20zM7.3 0H5.8v13h1.5V0zm0 16.2H5.8V20h1.5v-3.8zm5.8-7h-1.5V20h1.5V9.2zm5.7-3.9h-1.5V20h1.5V5.3z"/></svg><svg version="1.1" id="conditioning" x="0" y="0" viewBox="0 0 423.2 309.1" xml:space="preserve" xmlns="http://www.w3.org/2000/svg"><style>.ahst0{fill:#313d52}.ahst0,.ahst1{opacity:.5}.ahst2{opacity:.25}.ahst2,.ahst3{fill:#313d52}</style><g id="ahXMLID_124_"><g id="ahLINES_19_"><path class="ahst0" d="M3.4 99.5l14-.7.7 13.7-14 .7-.7-13.7z"/><g class="ahst1"><path class="ahst2" d="M233 295.4h14v13.7h-14v-13.7z"/><path class="ahst0" d="M233 267.9h14v13.7h-14v-13.7z"/><path class="ahst3" d="M233 240.4h14v13.7h-14v-13.7z"/></g><path class="ahst0" d="M180.4 267.9h14v13.7h-14v-13.7z"/><path class="ahst2" d="M180.4 295.4h14v13.7h-14v-13.7z"/><path class="ahst3" d="M180.4 240.4h14v13.7h-14v-13.7z"/><g class="ahst1"><path class="ahst0" d="M127.8 267.9h14v13.7h-14v-13.7z"/><path class="ahst3" d="M127.8 240.4h14v13.7h-14v-13.7z"/><path class="ahst2" d="M127.8 295.4h14v13.7h-14v-13.7z"/></g><path class="ahst2" d="M75.1 295.4h14v13.7h-14v-13.7z"/><path class="ahst3" d="M75.1 240.4h14v13.7h-14v-13.7z"/><path class="ahst0" d="M75.1 267.9h14v13.7h-14v-13.7zM285.6 267.9h14v13.7h-14v-13.7z"/><path class="ahst3" d="M285.6 240.4h14v13.7h-14v-13.7z"/><path class="ahst2" d="M285.6 295.4h14v13.7h-14v-13.7z"/><g class="ahst1"><path class="ahst0" d="M338.2 267.9h14v13.7h-14v-13.7z"/><path class="ahst3" d="M338.2 240.4h14v13.7h-14v-13.7z"/><path class="ahst2" d="M338.2 295.4h14v13.7h-14v-13.7z"/></g><path class="ahst3" d="M390.8 240.4h14v13.7h-14v-13.7z"/><path class="ahst2" d="M390.8 295.4h14v13.7h-14v-13.7z"/><path class="ahst0" d="M390.8 267.9h14v13.7h-14v-13.7z"/><path class="ahst3" d="M188.5 87.2h103v14h-103v-14z"/><path class="ahst2" d="M100.2 30.6h13.7v14h-13.7v-14z"/><path class="ahst0" d="M72.7 30.6h13.7v14H72.7v-14z"/><path class="ahst3" d="M45.3 30.6H59v14H45.3v-14z"/></g></g><path class="ahst3" d="M14.1 36.2c-.3-5.8 1.7-11.4 5.8-15.6S29.3 14 35.1 14h388.1V0H35.1C25.4 0 16.3 3.9 9.6 10.9 2.9 18-.5 27.3.1 37l2.6 48.7 14-.7-2.6-48.8zM423.2 205.7H46.9c-3.1 0-5.8-2-6.7-5l-2.6-8.5H423.2v-14H56.8v-42.3h366.4v-14.1H42.8v56.4H28.2c-3.7 0-6.8-2.9-7-6.7l-2.4-45.4-14 .7 2.4 45.4c.5 9.3 6.9 16.9 15.5 19.2l4.1 13.4c2.7 8.9 10.8 14.9 20.1 14.9h376.3v-14z"/></svg><svg version="1.1" id="delivery" x="0" y="0" viewBox="0 0 26.6 17.3" xml:space="preserve" xmlns="http://www.w3.org/2000/svg"><style>.aist0{fill:#273142}</style><path class="aist0" d="M26.6 11.6c0-.2.2-4-2.5-6.9-1.7-1.8-4.2-2.8-7.4-3V0H0v15h2.8c.3 1.3 1.5 2.3 2.9 2.3s2.6-1 2.9-2.3h9.5c.3 1.3 1.5 2.3 2.9 2.3s2.6-1 2.9-2.3h2.7v-3.4zM5.7 15.8c-.8 0-1.5-.7-1.5-1.5s.7-1.5 1.5-1.5 1.5.7 1.5 1.5-.7 1.5-1.5 1.5zm9.5-2.3H8.6c-.3-1.3-1.5-2.3-2.9-2.3s-2.6 1-2.9 2.3H1.5v-12h13.7v12zm5.8 2.3c-.8 0-1.5-.7-1.5-1.5s.7-1.5 1.5-1.5 1.5.7 1.5 1.5-.7 1.5-1.5 1.5zm4.1-4.2v2h-1.2c-.3-1.3-1.5-2.3-2.9-2.3s-2.6 1-2.9 2.3h-1.4V3.3c2.7.1 4.9 1 6.3 2.5 2.3 2.3 2.1 5.7 2.1 5.8z"/></svg><svg viewBox="0 0 27.6 16.1" id="eye" xmlns="http://www.w3.org/2000/svg"><g><path d="M27.5 7.6C27.3 7.3 22.6 0 14 0h-.4C5 0 .3 7.3.1 7.6l-.1.2v.5l.1.2c.2.3 4.8 7.6 13.5 7.6h.4c8.6 0 13.3-7.3 13.5-7.6l.1-.3v-.4l-.1-.2zM20.1 13c1.1-1.4 1.7-3.1 1.7-4.9h-1.6c0 3.6-2.9 6.4-6.4 6.4h-.2C7 14.5 2.8 9.5 1.8 8c.7-.9 2.6-3.3 5.6-4.9-1 1.4-1.7 3-1.7 4.9h1.6c0-3.6 2.9-6.4 6.4-6.4h.3c6.6 0 10.8 5 11.8 6.4-.6 1-2.6 3.4-5.7 5z"/><path d="M13.8 4.3C11.7 4.3 10 6 10 8s1.7 3.8 3.8 3.8c2.1 0 3.8-1.7 3.8-3.8s-1.8-3.7-3.8-3.7zm0 5.9c-1.2 0-2.2-1-2.2-2.2s1-2.2 2.2-2.2S16 6.8 16 8s-1 2.2-2.2 2.2z"/></g></svg><svg viewBox="0 0 155.139 155.139" id="facebook"><path d="M89.584 155.139V84.378h23.742l3.562-27.585H89.584V39.184c0-7.984 2.208-13.425 13.67-13.425l14.595-.006V1.08C115.325.752 106.661 0 96.577 0 75.52 0 61.104 12.853 61.104 36.452v20.341H37.29v27.585h23.814v70.761h28.48z"/></svg><svg version="1.1" id="favorite" x="0" y="0" viewBox="0 0 22.1 21" xml:space="preserve" xmlns="http://www.w3.org/2000/svg"><style>.alst0{fill:#7b818c}</style><path class="alst0" d="M17.9 21l-6.8-3.5h-.2L4.2 21l1.3-7.5v-.1L0 8l7.6-1.1c.1 0 .1-.1.1-.1l1.4.7c-.3.5-.7.9-1.3.9l-4.5.7 3.3 3.2c.4.4.5.9.4 1.4l-.8 4.5 4.1-2.1c.5-.2 1-.2 1.5 0l4 2.1-.8-4.5c-.1-.5.1-1 .4-1.4l3.3-3.2-4.5-.7c-.5-.1-1-.4-1.2-.9l-2.7-5.4-.2-.4 1-1.7 3.4 6.8c0 .1.1.1.1.1L22.1 8l-5.5 5.3v.1l1.3 7.6z"/></svg><svg version="1.1" id="filter" x="0" y="0" viewBox="0 0 24 19.1" xml:space="preserve" xmlns="http://www.w3.org/2000/svg"><style>.amst0{fill:#fff}</style><path class="amst0" d="M12.6 3.1c-.4-1.8-2-3.1-4-3.1s-3.5 1.3-4 3.1H0v2h4.7c.4 1.8 2 3.1 4 3.1s3.5-1.3 4-3.1H24v-2H12.6zM8.7 6.2c-1.2 0-2.1-.9-2.1-2.1S7.5 2 8.7 2s2.1.9 2.1 2.1-1 2.1-2.1 2.1zM15.3 10.9c-1.9 0-3.5 1.3-4 3.1H0v2h11.4c.4 1.8 2 3.1 4 3.1s3.5-1.3 4-3.1H24v-2h-4.7c-.5-1.8-2.1-3.1-4-3.1zm0 6.2c-1.2 0-2.1-.9-2.1-2.1s.9-2.1 2.1-2.1 2.1.9 2.1 2.1-.9 2.1-2.1 2.1z"/></svg><svg version="1.1" id="ico-mir" x="0" y="0" viewBox="0 0 99 62.3" xml:space="preserve" xmlns="http://www.w3.org/2000/svg"><style>.anst0{fill:#fff}.anst1{fill:#3da436}.anst2{fill:url(#anSVGID_1_)}.anst3{fill:#3ca436}</style><path class="anst0" d="M0 0h99v62.3H0V0z"/><path class="anst1" d="M25.7 42.7H21c-1.8-4.5-2.8-9.2-5-13.6v13.5c-2.5.2-4.8.1-7.1.1-.3-.4-.6-.6-.6-.9 0-7-.1-14.1-.1-21.1 0-.3.3-.7.6-1.2h7.7c1.9 0 3 1.3 3.5 3 .9 2.8 1.7 5.6 2.4 8.4.2.8.7 1.4.8 2.2.8-.3.9-.8 1.1-1.4.7-2.7 1.6-5.4 2.3-8.1.4-1.7 1.3-3 2.8-4h9v23H31c-.6-2.3-.2-4.6-.3-6.8-.1-2.2 0-4.3-.2-6.5-2.2 4.2-2.8 9-4.8 13.4m30.7-23.1h7.7v22.9h-6.7c-.7-.4-.7-1.1-.7-1.8V29c-1.2.4-1.4 1.3-1.6 2-1.1 2.9-2.7 5.6-3.9 8.5-.9 2.2-2.6 3.3-5 3.1-1.5-.1-3.1 0-4.4 0-.9-.6-.9-1.3-.9-2V19.7c2.4-.6 4.8-.1 7.4-.3v13.7c.9-.4 1.1-.9 1.4-1.5 1.3-3 2.7-6 4-9 .7-1.3 1.7-2.1 2.7-3"/><linearGradient id="anSVGID_1_" gradientUnits="userSpaceOnUse" x1="-571.63" y1="364.009" x2="-570.957" y2="364.009" gradientTransform="matrix(31.818 0 0 -11.8526 18256.416 4338.385)"><stop offset="0" stop-color="#00a3e3"/><stop offset="1" stop-color="#0071bf"/></linearGradient><path class="anst2" d="M90.4 28.4c-4.7 0-9.4.1-14 0-3.8-.1-6.4-2.3-8.3-5.4-.6-.9-1.3-1.9-1.2-3 .4-.5.8-.4 1.2-.4h15.1c3.6 0 6.1 2 7 5.6.3.9 1 1.8.2 3.2"/><path class="anst3" d="M74.8 42.5c-2.4.4-4.6.2-6.7.1-.2-.3-.5-.6-.5-.8V30.9c2.2-.5 18-.6 22.5-.2-2 3.7-3.4 4.6-7.4 4.6h-7.4c-.6 2.4.1 4.8-.5 7.2"/></svg><svg version="1.1" id="inst" x="0" y="0" viewBox="0 0 19 19" xml:space="preserve" xmlns="http://www.w3.org/2000/svg"><style>.aost0{fill:#ffdd4d}</style><path class="aost0" d="M13.5 0h-8C2.5 0 0 2.5 0 5.5v8c0 3 2.5 5.5 5.5 5.5h8c3 0 5.5-2.5 5.5-5.5v-8c0-3-2.5-5.5-5.5-5.5zm3.6 13.7c0 1.9-1.5 3.4-3.4 3.4H5.3c-1.9 0-3.4-1.5-3.4-3.4V5.3c0-1.9 1.5-3.4 3.4-3.4h8.4c1.9 0 3.4 1.5 3.4 3.4v8.4z"/><path class="aost0" d="M9.5 4.8c-2.6 0-4.8 2.1-4.8 4.8s2.1 4.8 4.8 4.8 4.8-2.1 4.8-4.8-2.2-4.8-4.8-4.8zm2.9 4.7c0 1.6-1.3 2.9-2.9 2.9s-2.9-1.3-2.9-2.9c0-1.6 1.3-2.9 2.8-2.9 1.7 0 2.9 1.3 3 2.9z"/><circle class="aost0" cx="14.5" cy="4.5" r="1.2"/></svg><svg version="1.1" id="link" x="0" y="0" viewBox="0 0 21.7 27.5" xml:space="preserve" xmlns="http://www.w3.org/2000/svg"><style>.apst0{fill:#273142}</style><path class="apst0" d="M17.2 9.2c-1.2 0-2.3.5-3.1 1.3l-5.6-4c.3-.6.5-1.3.5-2C9 2 7 0 4.5 0S0 2 0 4.5 2 9 4.5 9c1.2 0 2.3-.5 3.1-1.3l5.6 4c-.3.6-.5 1.3-.5 2s.2 1.4.5 2l-5.6 4c-.8-.8-1.9-1.3-3.1-1.3C2 18.5 0 20.5 0 23s2 4.5 4.5 4.5S9 25.5 9 23c0-.7-.2-1.4-.5-2l5.6-4c.8.8 1.9 1.3 3.1 1.3 2.5 0 4.5-2 4.5-4.5s-2-4.6-4.5-4.6zM4.5 7.5c-1.7 0-3-1.3-3-3s1.3-3 3-3 3 1.3 3 3-1.3 3-3 3zm0 18.5c-1.7 0-3-1.3-3-3s1.3-3 3-3 3 1.3 3 3-1.3 3-3 3zm12.7-9.2c-1.7 0-3-1.3-3-3s1.3-3 3-3 3 1.3 3 3-1.3 3-3 3z"/></svg><svg version="1.1" id="list" x="0" y="0" viewBox="0 0 26 26" xml:space="preserve" xmlns="http://www.w3.org/2000/svg"><style>.aqst0{fill:#273142}</style><path class="aqst0" d="M0 7.3h4v4H0v-4zM8 7.8h18v3H8v-3zM8 .5h18v3H8v-3zM0 0h4v4H0V0zM0 22h4v4H0v-4zM8 22.5h18v3H8v-3zM0 14.7h4v4H0v-4zM8 15.2h18v3H8v-3z"/></svg><svg version="1.1" id="login" x="0" y="0" viewBox="0 0 20 20" xml:space="preserve" xmlns="http://www.w3.org/2000/svg"><style>.arst0{fill:#7b818c}</style><path class="arst0" d="M14.6 10.3c1-1.1 1.6-2.5 1.6-4.1C16.2 2.8 13.4 0 10 0 6.6 0 3.8 2.8 3.8 6.2c0 3.4 2.8 6.2 6.2 6.2 1.2 0 2.3-.4 3.3-1 2.9 1.2 4.9 4 5.2 7.1H1.6c.2-2 1.1-3.9 2.6-5.4L3.1 12c-2 1.9-3.1 4.5-3.1 7.2v.8h20v-.8c0-3.7-2.1-7.2-5.4-8.9zm-4.6.5c-2.6 0-4.7-2.1-4.7-4.7S7.4 1.4 10 1.4s4.7 2.1 4.7 4.7-2.1 4.7-4.7 4.7z"/></svg><svg version="1.1" id="mail" x="0" y="0" viewBox="0 0 23.7 17.8" xml:space="preserve" xmlns="http://www.w3.org/2000/svg"><style>.asst0{fill:#d4d6d9}</style><path class="asst0" d="M0 0v17.8h23.7V0H0zm16.1 10.9L14.6 12l5.5 4H3.7l5.5-4-1.5-1.1-5.8 4.2V2.7l10 7.3L22 2.7v12.5l-5.9-4.3zM3.7 1.8h16.4l-8.2 6-8.2-6z"/></svg><svg version="1.1" id="map" x="0" y="0" viewBox="57 120.7 723.1 460" xml:space="preserve" xmlns="http://www.w3.org/2000/svg"><style>.atst0{fill:#cfd3e7}</style><path class="atst0" d="M254.8 359.3l-3 .6v1.7l-2 2v1.5l1.6 1.6v2.5l.8 2.6-.7 1.4.8-.9 1.1-3.4 3.5-.8 3.2 1.5 1.2 1.2 2.4-2.2 2 2 .6 1.2 1.2-.2 1.5-1.4h2.6l1.6-.6v-.9l-1.7-1.7 2.1-4.2 3.3 1.8 1.3-1.2 1.1 1.1 1.2-1.3 2.8 1 1.1 1.8-.3 1.9.9 1.1 1.7-.6 3.8 1.7 1.8 1.8 2.1-1.1 2.6.9 1.5-1.5 2.3.8.8.8.7-.2 1-2.1h2.4l3.7 2.5 3.3 1.8 3.8 1.4 4.4.7.6-1.7 1.3-1.3.6-2.7 3.6-3.7v-1.9l1.2-2.3-.5-2.6 2.3-4.4 2.9-1.8.3-2.7 3.5-2.2-.5-3 1.7-3.1 5.8-5.9h.1l3 1.1v2l1.3-.2 2.9-2.8 2.7-1.4 1.7-1.9 2.5-.4.1-.2.7.1 1-.2v.2l2.1.1v-2.9l5.5-3.1 5.1-1.1h4.5l1-3.3h3.2l2.6-2.6 2.6-1.3-2.4-2.5 3.5-1.4v-.8l-3.1-1.5.6-4 1.3-.6.3-.6-.9-.5h-1.1l-2 1.7-1 .8-.8.1-1.6.1-1.3 3-4.1-.7-.9 1.4-1.9 1.9-1.9 1-3.5 1.3-3.2.7-3.5-1.7-1.9.4-2.3-1.9-4-1.7-2.6-1.7-1.4-.9-1.6-.6-1.4-.5-5.1-2-2.3-2.3-2.9-.3-5.1-3.4-2.3-2.3-3.7-1.7-2.9-2.4-.4-.4-2.8.3-2.5 1.7-15.7.1-1.3 1.2-.8 2.4-.9.8v1.1l-2.3 2.2.3.7 1.8 1.8 1 1.8-1.1 2.2.4 1.5 1.4 1.4-1.9 3.2-1.9 1.9-1.4-1.3h-1.3l-1.9-1.6-2-.4-1.3-.9-1.6.6-2.8 1.5-.6-3.3-2.1-2.1-2-1.2-2.7-.6-1.3-1.3-1.8-.6-2-1.5h-.5l.2 1.2v1.5l1.4 2 1.9 1.9-.7 2.5v2.6l-2.2 1.3-.3 1.5.9 1 .4 2.8-.7 2.5-2.7-.7-1.1.3-.5 1.2-.5.5.3 1.9-1.8.9.1 1.5 1 .5 1.6.5.7.7 1.2-1.6.8.3.7-1.6 2.6-.5h1.8l.7.8 2.2-1.1.2 3.1 1.7 1.7-2.7 2.6-1.3.6-2 2-2 1.2-.3 1.4-2 1.3-.5.4 1.6 1.6-1.8 3-1.6 1.2-1.5 1.8-2.6-.5-.3-1.1h-1.9l.1.4-2 .6.3 1.9-1.9 2zM263.4 414.3l1.6-3.5.5-3.7 1.8-3.3.2-3.8.4-2.2h-2.4l-.1-3.1-2.6.1-3.3-3.2-2 1.5-1.6 2.7-.8 2.7-2.4 2.4h-3.3l-1.1-1.1-1.9 1.9v4.4l-4.5 4.6-.6 1.6-.3.5 2.4.3 1.5 2.1 2.7 1.2.9 1.4h2.1l.3 3.2 2.8 2.1-2.6 1.6v.2l1.3.5.7-.8 5.9-1.6.9-1-1.6-2.5v-2.6zM143.4 398.4l2.4-2.4 2.7-1.9-.5-3.2-1.3-1.3-2.1 1.4-1.8-2.8.8-1.5-.2-.3-1.2.1-.1.2-.8 1.4-.6-.1h-1.5c-.2.4-.4.8-.7 1.3l-.2.5h-2.8l-1.7-2.5-.6-.6-1.5.5-.8 2-2.6 1.5.7 1.4-2.1 2.1h-2l-1.2 1v1.4l1.4.2 2.1 1.4 2.9.5 1.2 2.4 3.2 1.1-.6 3 1.3 1.3 2.4.2.3.4 1.8 2.4 1.3-1h1.3l.3-1.2-1.6-1.6.4-2.3-1-1.3.8-2.5 2.2-1.2zM219.2 405.1l4.1-1.1 4-2.4 1.7 1.7h3.3l1.6 1.6 1.4-.8-.6-1.6V398l-2.4-1.3-1-3.5-2.9-.5-1.9-1.1-1.2 2.1-2.1-2.1-2.6 1.5-3.1-2-1.7-2.6-3.3-2.1-1.7 1.7h-2.5l.2 2.7-1.4 1.4 1 1.8 2.2 1.1h6.2l.4 3.3 1.9 1.9-.8 2.6z"/><path class="atst0" d="M306.3 395.4h2.6l1.7-1.7 2.4-3.5 2.9-2.6 1.6-3.8v-3.5l3.1-1.6v-1l-4.7-.7-4-1.6-3.5-1.8-3.3-2.3h-.7l-.8 1.8-2.5.8-1.3-1.3-.8-.3-1.5 1.6-2.9-1.1-2.7 1.4-2.5-2.6-2.8-1.2-2.2.7-2.2-2.7.3-2-.4-.7-1.1-.4-1.7 1.7-1.1-1-.9.9-2.9-1.6-.7 1.4 1.3 1.3v2.8l-1.6.6.4.4 2.7 1.3 2.2 2.2 1.9 1.6-.5 3.5-2.9 2.5-2.3.9-2.4 2.3v1.7l1.7 1.7-.9 2.8v2.9l-3.5 2.2-.5 2.9-.2 4-1.9 3.4-.5 3.8-1.9 4.1-4.7 2.4v.9l1.6 2.5 2.2.9v2l2.5 2h3.4l1.4 2.8 2.5.5 1.3 4.2 1.1.4 1.3-.5 1.8-2.1 1-.9v-2.5l1.7-3.3 1.5 1.5h2.4l1.9-1 .7-2.7 1.8-3h3.1l1.5 2.2 1.3-1.4-.8-.8-.2-2.3 3.5-2.3 2.6.5 1.5-1.2 1.2-1.2-1.3-1.3V410l1.7-1.6.8-2.8-1.8-3v-4.5z"/><path class="atst0" d="M251.8 347.4l-.7-1.1-.3-.1-1.2 1-5.8 5.8-2.9-1.2-.5.4 3.5 3.7-2.7 1.3v2.6l-1.2 1.3-1.6 1.8-.6 7.7h-4.7l-2.2 2.3-1.8-1.7-2.9 1-1.4 1.4 2.4 1.9 4.6 4.5-5.4 5.4-3.6-2.1-1.9.4-1.5 1.6-1.8 2.5 1.3 2 1.7 1.2 2.9-1.7 1.4 1.4 1-1.6 3.1 1.8 3.8.8 1.1 3.7 2.6 1.6v5.1l.4 1.1.4-.2v1.4l.2.6-.2.1v1.8l.8 3.4 1.4 1.6.8-2.3 4.3-4.2V401l3.6-3.8 1.9 1.9h1.9l1.5-1.5.8-2.7 1.8-3.1 3.6-2.5 3.8 3.7 3.6-.2.1 3.1h1.6l2.6-1.7V392l.7-2-1.4-1.4v-3.2l3.1-3.2 2.5-.9 2.1-1.8.3-1.8-1.3-1.1-2-2-2.7-1.3-1.3-1.3h-1.7l-1.3 1.4-3.3.4-.9-2.2-.5-.5-2.4 2.3-2.3-2.3-2.3-1.1-1.9.5-.9 2.7-2.5 3.1-2.2-2.3 1-2.4-.6-2.3v-1.9l-1.6-1.6v-3l2-2v-2.3l3-.7v-2.7l1.8-1.8-.2-1.4-1.6-.8.6-1.9zM198.4 406.5H197l-1.7-1.7.2-1.2-1 .1-.8.7-3.5.1-1.2 2-3.6-1-.9-2.7-2-2v-3l-1.4-1.3-.5-1.7h-2.5l-1.3-1.3-1 1-1.9.5-2.4 2.4h-1.2v.7l-1.7 1.7-1.3.9v.2l1.2-.4 1.6 1.6 2.4 1h2l3 3v2.9l2.1 1.9.5-.5h3.8l3.9 3.9 1.5.1 2.8-1.9 1.6 1.8 2.9-.4.3-1.8 1-1.1-.7-1.5 1.5-2.2z"/><path class="atst0" d="M204.8 301.2l-.1-1.2-1.3-.8-2.4.5-2.4-1.1-2.2-.4-2.2.8-3.1 1.7-1.4-.8-2 2.8-3.3 1.9-2.2 4.5-2.2 2.8h-.3l-1.6.5-.7 1-.3.5-3-.5-1.2 1.2-.1.1-1 2.1 1.5.6 2.3 3.7-.5 2.9-.4.3 1.7.8.6-.1 1.8-.3 3.3 1-1 3.3v1.8l.8-.2 3.3-.3 1.8 1.9 3.1 2.1 1.6-1.6 3.7 3.8v6l2.9 2.8 2.9-1.2 4-1 3.3 1.4 3.5-1.7 2.2 4.7 3.7.7 3.4 3.3 1 2.8 2.1 1 3.1 1.8.2.1 1.6 2.2 1-.9 3.2.7 2.1-3.3 3.7 3.3.1-.1v-3l1.5-.8-3.1-3.2 2.7-2.5 2.9 1.3 4.3-4.3-.4-.5-1-1.4-.5-.6.4-.4-.3-.1h-2v-1.2l-2.3-1.4 1.6-1.6-.6-1.1-.5-.2-.2.6-2.4 2.4-1.7-1.7-2.2-1.1v-.9h-.3l-1.5-1.6v-1.4l-1.1-.1v.7H229l-2-.7v-1.7l-.9-.7-1.9-1.9-.7-1.7-1.7-.4-1-1-2-.6-3.5-.1-.7-2.1-.9-.9h-1.5l-1.6-1.6-1.2-.7-.6-1.5-2.5-1.3v-1.9l-1.7-1-.9-5.1 1.1-1.2-.3-1.2 2.2-4.4zM109.5 417.7l2.5 1.5.9 3.4 1.2-.7-.6-2.3 2.1-.1v-2.3l2.1-1.1-.3-1.7v-3.9h1.9l.6-1.2-2.2-2.1 1.7-1.3-.1-.4-.3-1-.3-.8-.4-1.3-2-2.1-3.1-1.9-1.9.4-5.1-1.1v-2l-1.3-1.3-.6.6H101l-2.5-.6-1.3 1.5.5 1.3 2.3 1.9 1.1 3.5 3.1 2.4 3.1 2.3 1 5.3-.8 2.9zM112.1 374.6l-.9.9.3.4 1.6.6 1.4 1.2v2.3l1.6.4.5 1.5 1.6.8.5 3.6 1.7 2.8.5 3.1 1.3.2.8.8 1.5-1.1h1.9l.6-.6-.9-1.8 3.5-2 .8-2.2 2-.7-.9-2.9v-.1l.3-.4.3-.3-1.7-1.2-.2-.1-2.2-4.3-1-4.8-2.7-1h-2.4l-1.8-.7-.4.4-.4 1.9-1.7 1.7-1.6-1.7h-1.2l-.4.2.2.8-.6 2.3z"/><path class="atst0" d="M137.7 305.2l-1.6 1.6-.8.4v2.1l-1.7.9-.5.5.1.1.3-.2.4.9.6.6-.2.2.6 1.2 1 1h2.6l1.3 1.3 2.2-.1 1.8 1.1h3.4l1.8 1.8 1.4.2.8-.8.4-.4h2.5l1.6-1.6h2.6l2 1h.1l.1.1 1 1c.5.2.8.9.9 2.1h1.7l1.5 1.8h.9l.6-2.1 2.2 2.2c.8.4 1.8.8 2 .8.1 0 .5 0 1.9.8l.4-.4.3-1.6-1.6-2.6-2.8-1 .4-.9.6-1.4.8-1.6-.7-2-.3-2-.9-.9-2.5-.9 1.3-2.6v-1l-1.8-.8-.2-1.6-1-.1-1.7 1.7-2.6-3.1.5-3.5-.8-.2-1.2-1.1-1 .8-2 .5-2.5-1-2.3-.2h-4l-.9-1.8-.3.2-1.3 1.3-2.4-.2-2.1.2-.6.6v2l-.9.9.2.4 1.9 1.4-1 3.2-2.5.8z"/><path class="atst0" d="M142.2 339l1.1 2.2 1.6 1.3.2.2.2.5.4-.5h1.7l1.1-1.6 3.9-1.5v2.5l.7.1.3 1.6h1.8l.6.4.9.6 1.5.9.2.1h2.5l1.6 1.6h2.4l2.2 1.2 1.4.4 1-.9.5-.5 2.3-1.4-.8-1.9v-2l1.6-1.6-.6-2.5 1.3-2.8h2.1l.9-2.9 2.8-1.2v-2.7l.5-1.7-1.1-.3-2.5.5-.3-.1-1.8-.7-1.3-.7-2.5-1-2.3-1.1-.3-.3-.1.5h-3.1l-1.5-1.8h-2.6v-.8l-.4-1.7c-.3-.2-.7-.5-1.1-1.2l-1.3-.6h-1.4l-1.6 1.6h-2.5l-1.3 1.3-2.9-.3-1.7-1.7h-3.1l-1.7-1.1-2.4.2-1.3-1.3h-2.6l-1.8-1.8-.5-1-1.2 1-.2 1.4v.4l-1.4 1.4-.3 3-.9 2-1.2 2.1h-2l-.6 1.7.1.3 2.1 1.2.6 3.2 1.4 1.4 2.3 1.4 1.3 1.3 2.6.6 2.4-.7 3.5.9v1.9l.6 1zM120.1 361.8l-1.1 1.1v1l1.4 1.5.3 1.9 1.5.5h2.4l2.9 1.1 2.1-2.8.4.1 1.1.4 1-1 3.2-.9.5.3 1.5.9 1.4 1.4.8-.1v-1.4l1.6-1.6 2.3 1.6 1.4-1v-2l.1-.3.9-1.5.7-1.2-.7-1.1-.7-1.4H142.8l-.3-.3-1.5-1.6-.1-.2-.8-1.6-1.6-.4-2.7.5H134l-2 1.6-.3-.2-2.3-1.8-.6-.2-.7.7-3.2-.4-.6-2.2-1-1H122l-2.2 2.1-1 .2.9 1.5-.1 1.3 1.3 1.3-.8 2.6zM203.1 412.9l2.9-1.1 2.6 1.1 2-.7v-3.6l4.2-2.4 2.6-.6-1.4-2.5.8-2.3-1.6-1.5-.3-2.3h-5l-2.4-1.2-3.6 2v3.6L201 404l-1 1.6.8 1.9-1.5 2.2.4.9zM109.6 376.3h-1.7l-1.2-.9-1.4.4-1.2 1.8-1.8-.1-1.4 1.2h-1.5l-.8 1.9-1.1.9 1.3 1.8 1.8 3.3v3.7l-1.2 2.5 1.9.4h2.2l1.5-1.5 3 3.3v1.3l3.3.6 2.3-.4 3.9 2.4 2.5 2.5.4 1.5h.1v-2l2.2-2.2 2.2.8.7-.6-1-.7-2.6-.4v-3l-.7-.7-2-.4-.6-3.9-1.7-2.8-.4-3.1-1.5-.7-.5-1.3-1.9-.5v-2.8l-.7-.6-1.7-.6zM155.9 360.8h.5l-.2-.9.8-1.1.6-.7.3-.4h.1l-.2-.3-1.8-.7-.1-.5-.6-1.1-.2.2.3.7-1.6 2.3-.6-.1v2.1l1.1-1.1z"/><path class="atst0" d="M140.3 351.1l-.4.6 1.3.4 1.1 2.2 1.2 1.3h2.6l1.2 2.3 1.2 2.1-.3.5-1.7 2.9v1.8l1 1.6 2.3.5v2.7l-.5 1.6.6 1.9-.8 2.6.1.9.8-.1.3-1.6 2.9-.6.7.7 2-.1.9-.9 3 .6.9.3.3.1 1-.2.8-.8.7.1 1.4.1h.8v-1.8l1.2-.5.3-1.1.2-2.3-.8-.8-1.6-.6-1-2v-1.6l-1.2-.5-.7-1.8-.5-1.3 1.9-1.4-.1-1.9 1.4-1.4.3-1.1.3-1.1.3-.1 1.1-.5c-.2-.6-.3-1.1-.3-1.4l-.1-.2.2-.3c0-.1.1-.1.1-.1l.1-.2-.8-.3-1.9-1.1h-2.7l-1.6-1.6h-2.2l-.2-.1-2-1.1-.6-.4-.4-.3h-2.7l-.3-1.8-.9-.1v-1.4l-.9.3-1.3 1.9h-1.8l-.6.8-.8 2.7-3 1.2-1.8 1.8zm11.1 8.7v-3.7l1.5.2.4-.5-.4-1 1.6-1.4 2.8-.7-.1 2 .4.7 1.3.5 1.8 1.8-1.6 1.5-.2.2-.7.9.5 2.3h-3.6l-.8-.8-.7.7-3.3.2 1.1-2.9zM150.4 421.8l1.3-.1 1.5-1.4 2.6-1.4 2.8-1.7 1-1.8h2.2l.2-3.7-1.2-2.2.5-4.2-.6-2.6v-.1l.3-.3 2.6-2.8-.9-.9-1.3.1-1.4-1.3-1.4 1.6-3.8-.6-1-2.5-2.2-.7-1.8.2-2.9 2-2.5 2.6-1.8.6-.3.7.9 1.1-.4 2.1 1.7 1.7-.8 3.7h-2.1l-.7.6 1 1-.7 2.3 1.3 1.3 2.9 1.2 1.1 2.1 1.8 1.8.7 2.2z"/><path class="atst0" d="M162.6 420.5l1 .9 1.7.7 2.1 2 3.6-.2.9 3.1 1.7 1.1 3.4 1.4 3 1.7h1.6l2.7-.8 1.4 1.7 1.1-1.6 1.5-2.9 1.1-.5.3-.7-1.1-1.1v-2.8l1.5-1.5v-3.1l-1.1-1.7-2-.2-3.8-3.8h-2.3l-1.2 1.2-4.1-3.6v-3l-1.8-1.9h-1.7l-3-1.2-1.1-1.1-2.2.8-.3-2.6-.3-.1h-.1l-1.3 1.4-1.1 1.1.5 2.1-.6 3.8 1.3 2.2-.4 5.9h-2.9l-.1.3 1.8 1zM202.1 400.6v-3.9l4.1-2.3-1.4-2.5 1.8-1.8-.3-3.9 3.8.1 2.1-2.2 4 2.5 1.8-2.6 2-2 3.2-.6 2.9 1.7 3.1-3.1-3.2-3.2-2.5-1.9-.1.1-.6-.6-.8-.6.1-.1-.1-.1h-2.9l-2.1-2-.9-2.2h-1.6l-1.7 1.7-5.1 1.3-3.7-.8h-2.3l-1.2 3h-4.1l-1.7-1.7-.9.9-.8 3.2-2.4 2.3-4.1.5-2.8.9v.1h-.5l-1.6.5.1-.2-1.4.2-1.8 1.9-2.5.5-1.3 1.3v1.9l1.2.8 1 1 .3.2v1.8l.4 1 1.2 1.3h3.1l.8 2.5 1.6 1.6v2.9l1.8 1.8.7 2.2 1.3.4 1.1-1.7 3.7-.1.8-.7 4.1-.3-.6 2.6.5.5h.7l1.1-1.9zM168.4 373.3l-.8.4v1.1l1.6 1.3-.5 1.6 2 .6.3 2 1.5.4 1.5 2.4 1-1.1 2.6-.5 1.9-1.9 2.7-.4 1.2-4.4 1.4-3.4-5.7-5.7-4.2-1.5v-3l1.1-2.1-1-1.7h-1.6l-1.7 1.7-2.4-2.4-2-1.5-.1-.7-.2.1-.5 1.8-1.1 1.1.1 2.1-1.6 1.1.4 1 .7.4.9.3v2.4l.4.9.2.1 1.2.5 1.6 1.6-.3 3.5zM150.3 393.5l1.5-.1 3.4 1 .9 2.4 1.8.2 2-2.2 2.1 2h1.5l1.9 2 .3.1.5.3 1.3-.9 1-1v-1.7h2.3l2.2-2.3 1.9-.4.8-.9-.4-1v-1.2l-2.1-1.7-.3-.2v-3l-1.6-2.7-1.8-.5-.4-2-2.7-.9.7-2-.7-.6h-1.6l-.9-.1h-.4l-.6.5-2.1.5-.8-.3-.8-.3-1.8-.3-.7.7-3.5.2-.4-.4-.2-.2-.8.2-.3 1.7-2.5.3-.9 1.5v2l-1.8 1.4-1.2 1.8.7 1.1-.8 1.5.2.4 1.8-1.2 2.7 2.8z"/><path class="atst0" d="M169.2 350.7c-.2.3-.5.6-.7.9l.1.3h.1l.2 1.1.2.7-.1.1.1.5 1.5 1.2 1.2 1.2.9-.9h2.5l2.1-2.1h4.2l1.5 1.5 2 .4.7-2h2.1l2.9-3.1h1.8l.9-2.1 3.7-.1v-1.4l-3.6-3.6v-6l-1.9-1.9-1.4 1.4-4.5-3.1-1.3-1.3-2.4.2-1.7.3-2.5 1.1-1.1 3.4h-2.2l-.5 1.1.7 2.8-1.8 1.8v.9l1.3 3-3.5 2.2-1.5 1.5z"/><path class="atst0" d="M184.3 378.6l1.9-.6 3.6-.4 1.5-1.6.8-3.2 2.6-2.5 2.5 2.5h2l1.2-3.1h2.8v-1.3l-2.9-1.5v-3.1h-1.4l-3.8-2.4-.9-2.6-.2-.1-2.4 2.4-1.7-1.7h-2.7l-2-2-3.1-.7-1.4-1.4H178l-1.3 1.4 1.5 2.3-1.5 2.7v1.2l3.4 1.2 6.8 6.9-1.8 4.5zM148 368.7l-1.6-.3-1-1.7-2 1.3-2.1-1.4v2.1l-3.2.6-2-2-.9-.5-.2-.1-2 .5-1.5 1.5-1.3-.5-1.5 2 1 4.7 1.8 3.5 3.4 1.8-.2.3.3.2-1.5 1.5.8 2.6 1 1 1.2 1.8h.7l.5-1.1c0-.1.1-.2.1-.3l.2-.4h.2c.2-.2.8-.3 2.2-.1l.1-.2.6-1.1 2.3-.2 1.6-2.2 1.2-.9v-1.6l1.1-2-.2-2 .7-2.4-.6-1.9.6-2v-.5z"/><path class="atst0" d="M207.7 370.5l4.2-1.1 1.8-1.8h3.6l1.3 2.9 1.2 1.3h2.9l.7.6 1.8-1.8 4.4-1.5 1.3 1.2 1.4-1.5h3.8l.5-6.6 1.4-1.7-2-1.8-1.7 2.6-3.4-.8-1.8 1.8-2.6-3.7-5.4-2.9-.3-.1-1.1-3.1-2.7-2.6-4.1-.8-1.8-3.9-2.6 1.3-3.4-1.5-3.4.8-2.7 1.2v3l-4.3.1-.9 2.2h-2.2l-2.9 3H187l-.3 1 1.3 1.3h2.6l1 1 1.8-1.9 2.2.5 1 3 2.8 1.8h2.7v3.8l2.9 1.5v2.6zM343.3 428.5v-4.1l.7-1.4-1-1h-2.2l-.2-3-1.5-1.8-2.8-1.5-.8-4.4 1.9-1.9v-2.3l-2.1-2.1.9-3.5-.6-5.2-.1-.4.3-.3c.2-.2.8-1.2 1.4-1.8v-3.4l-1.7-1.8-2.2-4-5.4-5.4-1.4-1-1.2-1.2-.3-.2V375l-.2-.2-.8-.5-.8.8-.7 1.8v2.8l-3.1 1.6v2.7l-1.9 4.6-3.1 2.8-2.4 3.6-2.3 2.3H307l-1.9 1.7v3.2l2 3.2-1.2 4-1.4 1.4v.3l2 2.1-2.5 2.5-2.3 1.9-2.7-.6-2 1.3v.6l1.6 1.6-4.2 4.2-2.2-3.2h-1l-1.3 2.1-.7 3.1-3.1 1.5h-3.5l-.3-.3-.4.7v2.8l-1.5 1.5-1.5 1.6 1.4 2 3.2 2.3h2.4l1.4 2.1.8-.8-.1-.3.6-.2 1-1 .1.5 1.5-.6 3.1 2.1.8 1.4 2.8.9.5 1 1.8.2 1.6 1.6 1.8-1.7 2.9 1.7 2.7 2.7.7-.5 3-2 2.6 1.2h2l2.1.9 2-.8 1.9 3.3 3-2.3h4l.9 1.2.7-.5-.8-2.6 1.3-1.3-.6-3.3 3.3-3.3 2.2.6 1.9-1.9 2.2.9 2.6-1.3v-1.9l-.7-2.2.8-2.7-1-1.4zM590.4 234.3h1.8l.6 1.3.8-.4 1.7-1.7v-2h-1.7l-1.1.2-2.1 2.1zM559.6 185.9l-.3.1zM698.5 422.1l1.4 1.4h1.2l1.4-1.1.3-.8-4.1-4.1-1.1-3-2.1-.2v-2.7l-1.8-2-1.4-1.3h-1.1v1.8l-2.7 2.7-4.6-.7v-2.5l-1.4-1.3V406l-2.4-.4-3.2-1.5-3.1.4-2.8-.4-1.4 1.6-.9 3-1.9 2 .8 2.7-1.3 3.8-2.7 2.8v5.4l-4 2.7v5.5l-3.6-4.9v-2.6l-1.2-1.3-.9.4-.5 2.5-5.7 2.2h-1.8l-.9 2.4-1.7 2.7-4.2.3-4.2-4.2-.4-8v-.1l.5-4.5v-4.4l.6-3.7v-3l-2.1-.9-2.4-.8-.3-2.3-.8-1.7-1.8-1.9h-.1V397l1.3-1.2.2-2.1-1.1-1.1h-2l-3-1.4V388l.5-.5-.5-.6-.9-3.5-1.8-3.1-1.7-1.2-2.3.7-3.5.2v-4.6l2.1-.6v-.8l-1-1-.3.7-1.8 1.7-1.7-.4-1.8 1.8-1.9.7-1 2.2v2.5l1.1 3.1-.9 2.6v1.7l4.4 4.4-1 2.9-.7 1.2 2.1 2.1-2.6 2.6-1 .7v4.1l-1.7 1-.7 2.8-2.4 1 .7 3.4-1.3 1.2-.4 2.9.6 2.4 1.2.6 2 2 .8-.8 3.6 1.4v3.1l1.3 3.5-2.6-.3-1.5 2.8.2.5h2.3l1.4 3 1.1 2.8-1.7 1.7-1.3 2v1.9l-1 2.4h-3.2l-1.9-1.9h-2.7l-1.1-1.9-2.5-1.1-.5-1.5-1.1-.3-2 1.3-.5 2.3.3.8 1.1 2.5-2.4 3.6-3.2 3.2-2.1 3-.8 3.3-1 2.2 2.5 2.5-3.5 2.4-3.7-2.5-1.5-3.5-1.9-1.9-1.4.7-1 3.4-4.5 1.6-3.1-.6-2.3.6v4.2l-1.8 1.8v3.5l1.9 2 1 2.1.7 1.6V485.1l-2.6 1.3-1.2 3h-2l-.5 2.3-.9 2 1.5 2.2.1 3.2-1.2.8v3l.7 2.2-1.1 2 .5 3.1-4.6.2v2.1l-2.2-.4-.2.5 2.4 1.6 4.3 4.2 1.7 1h2.8l2.3 1.8 3.5.5 2.9 2.8 1.6.7h2.8l1.7-1.7 2.8 2.8 6.3-6.2v-.1l.7.4 2.6 1.7v.1l.4.3-.7 1.6 2.3 1.2 1.5 1.4 3.8 1.2 1.8 1.7 2 1.1 1.8 1.9 4.9-1.1.4.4 3.8 3.6h2.9v2.8l1.3 2.1h4.5l.7 2.3 2.6-1.5h1.8v-3.9l3.8-3.8 4-4.7 2-5.3 5.6-5.6 5.8-7 .9-10.7 1.9-6.3-2.9-.9-.1-.5-3.2-14.9-.1-.4 1.5-2.7.8-.8-1.6-1.1-2.9-.9-1.1-5.2 5.5-4.1h1.7v-2.7l3.2-1.4 3.3 1.1 2.5-.9v-2.8l3.5-2.4 1.5 1.6h3.2l2.6-1.8 1.8 1.7 4 .9 2-2.1 2.1 1.1 2.8-2.8h1.8v-5.6l2.9-1.5 1.9-3.9 3.8.9 2.2 2.2-2.4 2.4h.4l2.3-1.3 3.1.8 1.1-2.2 2.3-1.4.4-2.1-1-1v-.9l-1.8.8-5.2-5.3 1.2-3.1-1.4-1.4 1.2-2.6-1.3-1.3 3.5-3.5zM539.8 189.4l1.5-1 3.7-1.9 2.6-.3 3.1-2.3 1.4-2.6-.9-2.3-.8-1.3-1.7.7-2-3.5-.4-.5-.8.9-.9 2.5-1.8-.3v-1.9l.1-3.3-.5-1.1h-.4l-1.5 1.8.2 2-.8 1.3.5 3.8-1.7 1.7.2 3.5-.9 3.3-.5 2.5h.1zM121.4 432.6l1 1.5h1.3l1.4-1.4h3.9l3.1-3.1 1.2-4.1h4.7l2.2-2 3.2.6.6 1.9 1.8 1h2.4l.4-.4-.6-1.7h-.1l-.3-.9-.3-.8h.1l-.7-2-1.7-1.8-.9-1.7-2.7-1.1-2.3-2.3.7-2.3-.3-.4-.1.1-.5-.7-.7-.7h.1l-1.6-2.3-2.3-.2-2.4-2.4.5-2.4-2.3-.8-1.1-2.2-1.8-.3-1.9 1.9-2.2-.8-.9.8v2.5l-1.3.6.5 1.9-1 .8 1.6 1.6-1.7 3.3h-1.2v2l.6 2.8-2.4 1.2v2.9l-1.6.1.5 1.6-2.3 1.1 1.4 1.7v2.9l1.4.7.2-.3 2.2 2.2v1.4z"/><path class="atst0" d="M590.8 242.1l-1.2-.3.1 1 1.4 1.1-.5 2.3-.8.9.4 1.1 1.2 1.9 1.6 1.6-.6 3.2.8 1.7 3.3 1.2v1.8l3.8 2.8 2.2 2.2v3.9l1.8 3.4h2.7l.4 4.9H606l-.5 1.7-3.2 3.2-2.1 1.4.1 2.6v3l-2.4.9-.5 2 1.6 1.6v3.1l-1.3 3-3.7-1.3-1.7.5-3.3 4.6-2.9 1.1v.5l.7 1.8.3.8.7 1.6 2.8 1.9.3 5.3 2.7 4.9v2.1l.7 3.7 1 6.7-2.7.8-1.5 2.3-1 1 .2.6.2-.2 4 1.6v2.7l1.5 1.4-1.5 1.3v1.7l2.5 1.4.9 4.3 3.3 3.3-1.3 3.7-1.6 2.5.7 2v2.5l-.9.9v2.1l.9.4h1.9l1.2-1.2h2.2l1.2 1.4 2.5-.9 1.9.8 1.5-1.5 3.4.2.1 2.3 2.1 2.1v3l-2 .6v1.3l1.4-.1 2.9-.9 2.8 2 2.1 3.8.8 3.1 1.5 1.5-1.3 1.3v1.2l1.7.8h2.3l2.2 2.2-.4 3.5-1.1 1.1v1.3l1.6 1.6 1 2.4.2 1.3 1.4.5 3.3 1.4v4.4l-.6 3.7v4.3l-.5 4.5.4 7.2 3.1 3.1 2.4-.2 1.2-1.8 1.1-3.3h2.9l4.4-1.7.5-2.4 2.9-1.3 2.7 2.7v1.7l3.9-2.7v-5.2l3-3 1-2.9-.9-3.2 2.3-2.3.9-2.9 2.2-2.7 3.6.5 3.4-.4 3.5 1.7 3.6.5v3.1l1.4 1.2v1.8l2.1.3 1.5-1.5v-2.9h3.7l1.9 1.9 2.3 2.5v1.7l1.6.2 1.4 3.8 4.6 4.6-.5 1.7 1.4 1.4.7 3.2 3.1 1.1 2.4 3.1 2.6.9v2.6l1.3.3 2.3-2.3 3.2-2.7h2.9l1.8-1.8 2.1 2.1 1.5.3 1-1h3.9l1.2 1.6h.7c.1-.4.2-.9.4-1.6l.1-.4.1-.4 4.1.8 1.2-1.2 3.3-.7 3 1.3 2.9 2.9 2.1-.9 2.4-.6 1.5-2 2.2 1 1.3-1.3h2.5l1.2 1.2 5.7-5.7 2.7.4v-1.6l4.9-1.8 2.2.4v-38.8l-1.8-1.8 1.8-.4V370.9l-1.2-1.2 1.2-1.6v-1l-.7-.7v-4.2l.7-.4V156.3l-1.7-1.7-3.8.2-4.6.7-2.7 3.2-3.2 3.2-3.6 5.3v4.4l-3.3 4.1-3.1 3.1-3.8.2-2.7-1.4-3.1 1.7c.7 3.3.5 3.5-.1 3.9l-.6.3-.6-.5c-.3-.3-1.5-1.5-2.2-2.3l-1.7 2h-4c-.4-.1-1.7-.6-1.9-1.7-.1-.3-.1-.9.5-1.5.5-.5 1.2-1.3 1.6-1.9l-1.6-1.1-4.1 1.8-2.8 1.3-1.2 3.4-.5 1.9.9 4.8v3.3l-4.7 4.4 1-7.7-1.6-.5-2 2-4.5 2.1 1.7-6.4.4-.2c1-.4 2-.9 2.3-1.2 0-.1 0-.2-.1-.2l-3.7 1.6-5.3 2-1.2 3.4-4.8 2.4h-2.7l-.9.9 2.5 1.6.6 3-3.4 3.1v2.3l.5.3 1.6-4.1 2.4 2v3.2l2.3 1.3 2.2 2.2 2 1.1-3.4 3.4-2.9-.2-1.8 1.9 2.9 1.3v4.1l-4.3-1.2-2.7.1-3.5.8-1.8 3.3.9 4.7h-4.8l-3.7 1-2.3-2.3-2.5-.3v1.3l2 2v2.3l.8 2.1 1.6 5.3-.5 4.4-4.1-2.1-1.2 1.2-3.8-.7-2.6-1.7-2.7-2.7-3.7.1v-3.1c-.1-.1-.1-.2-.2-.3-.5.5-1.2.8-1.5 1l-.6.3-3.2-3.2 2-2 1.5-.5v-2.3l-.7-.7-3.7 2.3V227l-1.2-1.2h-2.6l1.3-4-2.2-.7-1.2 1.2-3.1-2.4c-.4.5-.9.9-1.6.9-.2.3-.3 1.1-.2 1.9v.5l-2.3 1.7-1.4-1.6h-.2l-.8 2.5-3.6-2.5-1-1-1.9 1.4-1.2-1.2-.1.3-.5 3.1 2.2 3.4.5 3.2c.5 1.7.5 2.8 0 3.4-.2.3-.6.5-.9.5-.4 0-2.3.3-3.7.5l-3.1 2.7-4 1.5-1.1-1.7-.2 1.5h-5.9l-3.4-3.4 1.2-1.2-.4-.6-4 1.2-5.6 1-3.5 1.8-3.5 3.5 3.1 2.9h-4.9l-2.3-3.2V240l-.6-.6-1.2 1.7-.9 2.6-3.7-1.6zM512.5 166.5l2 .6.6.6.7-.8.6-1.4-.8-.6-2.6-.6-.7-.1.2 1.4zM527.8 161.8l-1.8.6c-.7.2-1.9.5-2.2.5l-2.1.7-.8 1.7-.6 1.9-1.1 1.3.4 1.9-1.6 1.2 1.3-.4 1.9 2.7.1 1.8.8 1 3.4.3.3 1.2 1.9-1.2 1.4 2.3 2.4.9 2.3-1.1.9-1.3-.8-1.6-2.3-3.2 1.8-1.3.4-1.8-.7-2.6.2-2.2-2.1-1.1-.7.9-1.5 2.7-2.5-1.1.9-3.3v-1.4zM695.4 181.1l-1.4 1.3-2.7 2.7.6 1.4 1.6 1.5 3.2-.6 2.6-1.1 2.9-1.7-1.3-2.3h-2.2zM693.9 156.8l1.7-1.7h2.7l2.3-.9 2.1-.9 1-1.1v-1.7l1.1-3-1.2-.9-2.4 1.1-1.4 1.7-2.1 2h-1.5l-.9-1.1-4.4 4.3-.3-.1 1.1 1.6zM686 182.2l.7 1.9.6.6.6-1.2V182l-.4-.4-.9.1zM663.5 173.4h.8l2.5 2.6-.5 2 1.7.8 3.4.1 1.4 1.4h2l2.1-.6v-1.1l-2.2-2.1 2.3-2.2 1.2 1.2 2.1-3.7 3.1-3.1 1 1 1.4-1.4.3-1-1-.3-1.8 1.8-2.7-2-2.4-1.5-3.2-2.2 1.2-2.7.3-.2-.9.6-1.8-1.8-2.7.8.1 1.4 4.1 4.1-2.9 2.4-2-1.8-1.1 1.2-1.8-1.8-3.3.6-.9-.5-.1.3 1.5 1.5-2.6 1.5v1.7l1.7 1.7z"/><path class="atst0" d="M681.3 163.9l2.2.4 1.6-.7h1.1l.8-.7-.4-1.7H684l.7-3.5v-.5l-.8.3h-4.1l-.9.9 1.2 4.3zM660.6 179.7v-.6l-.5-1.2-.2-.3.6 2.1zM515.8 161.2l1.8 1.5 2-1.9h1.7l2.4-1.4 2-.6-.6-2.1v-3.9l1.3-1.1-3.8-3.7-.9-2.1-1.1-.3-.3 1.8-2.4 1.1-2.6 1.7v2l1.6 1.6-2.2 2.2-.7 1.5 1.2 1.7zM497.6 513.8l.7-.6-1.1.3zM395.4 440l1.1 1.1 2.6.9 1.4 1.4h2.7l1.9 1.7h1.7l.8-1.1.2.7 2.9-1.7.5-3.1 4.6-3.3 4.5-1.2-.2-4.3.1-.2 1.8-4.4 1.8-3.6.2-.4 5.6-.9 3.7 1.6h5.5l1.3 2 4.2.5 4.1-1.6 3.6 3.6 2.7-.7 3.4 1.7.3-1 .6-2.1 6.8-2.9 5.4 4 3-3 5.3-2.3 1.6-2.6-3.5-1.5-4.2-2.8-.1-4.8-2.7-3.4h-1.5l-2.8.9h-.1l-2.5-4.1-3.5-1.1-1.8 1.8-3.9-5.1-.8-2.1-2.2 1.5-2.6 1.4-1.3 2.4h-11.9l-2.6-2.6-3.8-2 1-2.8-2.7-1.1-1.6 1.6-2.9-2.9-3.2-.9-2.8.7h-.1l-3.1-3.3h-2.7l-2.3-3.6h-2l-6 .7h-.1l-1.4-4 .7-2.8-3.3-3.3v-2.9l-.8-3.7-3.2-3.2h-3.3l-2 2-2.2-2.2-1.8 1.8h-.1l-4.9-.9-3-3.5 2.6-2.6-2.6-2.2-3-1.6-3.1 1.3-3.3-1.4-4.2.9h-.1l-8-8 3.3-3.3 1-3.3-.6-4 .2-4-.5.1-1 .1-1.5 1.7-2.9 1.5-3 3-4 .5V339l-.8-.3-5 5-1.2 2.2.6 3.6-3.8 2.4-.3 2.7-3.2 2-1.8 3.4.6 2.6-1.3 2.5v2.2l-3.8 3.8-.3 1.8 1.3.8.7.5v2l2.2 1.9 4.9 5 .8.8 2.2 4 1.9 1.9.1.1v.3c.4 2.8.2 4 0 4.5l-.1.1c-.1.1-.1.2-.2.2l-1.3 1.7.8 4.5-.2.7-.7 2.8 1.6 1.6.2.2v.1c.2.4.4 1.4 0 3.4v.3l-.1.1-1.7 1.7.5 2.6 2.3 1.2 2.1 2.5.1 1.9h1.3l2.5 2.5-1.2 2.2v2.9l1.4 1.4 1.8 1.4h2.7l1.6-.5v-1.7l1.8-1.8 4.2 1.1 1.6-1.6h4.6l1.2-1.2 4.8-1.7.2-.1.8-.8-.2-3h3.1l.2.2 3.7 2.5.2.1 1.9 1.9h2.1l3.2.9.3.3 2.4 2.4 1.7 3.1 2.2 3.5v2.2l3.1.5v3zM281.6 452.3l1.9-1.9 2.9-.7v-1.3l1.9-3.5.6-2-.1-.7-1.6 1.5-2.1-3.1h-2l-3.9-2.8-1.6-2.2-1.4.6-2.7-1-1.2-4-2.4-.4-1.3-2.7h-2.8l-3.7-3v-1.6l-.8-.3-1.3 1.4-5.9 1.7-.3.3 1 1.5v2.8l-3.7 2.8h-2.4l-2.2 1-.8-.9-.4.2.4 1.6v.9l1.4 1.4-4 4h-1.5l-.4 1.1-1.1 1.7-.1.3-1.2.4.4.8-.2 3.7 1.2 1.3-.8 4 1.3.8 2.2 2.2 1.4 3.7v3.3l1.1 2.2-.9 2.3v2.9l-.4.9.5.3 1.3-1.4h3.5l1.4 2.5-1.2 3.1-1.8.7 1.8.5-.6 4.1-.9.8.3 1.1h1.4l.4 1.8 1.2 1.2 1.1-.6 1.7-1.7 2.5 1.3.6 1.6 1.3.9 1.3.4 1.4-1.1.6-1.5h-.1l.7-1.3.2-.5h.1l.8-1.4 2.2-1 .4-1.9 2.4-4.4h1.2v-2l2-2.7v-1.8l3.5-3.5 2-.6v-1.3l3.8-.4 1.2 1.5h.4v-1.8l-.9-2.7-2.9-.9-1.5 1-4.5-.5-2.3-3.6-.4-4-1.5-1.4-.8-3.8 4.2-3 2.9.8 2.6 1.3 2 2.1v1.8zM510.2 146.8l-.9.1-.1.1.4.4z"/><path class="atst0" d="M237.8 443.9l.9-.4 1.4-2.8.2-.6h2l2.2-2.2-.6-.6v-1.6l-.7-2.6 2.8-1.5.9.9 1.4-.6h2.2l2.5-1.9v-1.4l-.9-1.4-2.7-1-.2-2.5 1.3-.8-1.3-1-.2-2.3-1.5-.1-1.1-1.6-2.7-1.2-1.3-1.9-2-.2-.3.8-.8-.9-.8-.1.2-.6-2.3-2.7-.9-4.1v-.9l-1.9 1.1-2.1-2.1h-3.3l-1.2-1.2-3.1 1.8-3.8 1v.1l-1.1.2-.7.2-2.9.7-2.9 1.7v3.9l-3.9 1.4-2.6-1.1-2.1.8v.8l2.3-.6 2.7 1.2.1.1 4.1 3.9 2.4-.9 1.8 1.8.8 3.6 2.2 2.1.7 1.9 3.2 3.2 1.4-1.4h3.1l4.5 3.9-.8 2.2.7 1.6h2.2l3.5 3.5-1.8 1.7zM459.9 492.7l3.3-3.5.3-.3.4.1 3.7.2 3-1.6h5.2l5.2-4.6h3.7l2.5 1.2 3.5-2 1.5 1.5 2.7-2.6 2.5-1.1v-4.2l2.2-3.9 3-1.5-.3-2.3-3.4-1.1h-3.1l-.7-2.4-.2-.6-2.5-3.9 1.7-4.5.1-.1 4.3-4.6-.6-.6-4.7.3-1-3.9-2.9-2.9-1.6-2.4-3.2-.8h-4.6l-4.2 1.1-4.1-1.3-1.2-4 2.7-2.7-2.6-5.4-5-3.6-5.1 2.1-1.3 4.4-4.7-2.4-3.1.8-3.4-3.5-3.5 1.4-5.5-.7-1.2-1.9h-5l-3.5-1.5-4.1.6-3.3 7.3.3 5.3-5.6 1.5-3.7 2.7-.4 3.2-4.1 2.4.1.2.3.9-.2.3-.8 1.9-.8 1.9v2.5l1.8 1.8-.5 4 1.6 3.3.8 2.1 3 .8 1.7 1.7h3.6l4.2.6 3.6 1.9 4.1 1.7 4.9 4.9 2.7 3.8h6.6l2.6 3.6h2.5l3.3-.8 2.4-2.5 3 1.4.7 4.5v2.5l1.5 1.5-1.4 1.5z"/><path class="atst0" d="M199.5 429.2l2.6.6 2.2-2.2 2.8 3 1.2-1.2 4 1.6 1.8 2.5.7-.7 2.8-1.2 1.6-2.6-.5-1.4-2.2-2.2-.9-3.6-.6-.6-2.3.9-.4-.4-2.2-1.9-2.2-2.2-1.9-.9-3.9 1v-3.3l-2.7-1.8-.3-.2-.5.5-.5 2.6-5 .7-1.3-1.3-1 .7 1.1 1.7v4.5l-1.5 1.5v1.2l1.4 1.4-1 2.5-1.2.6-1.3 2.5-1.5 2.2.8 1.8 1.6 1.5h5.3l1.7 1.8 1.6-.2.3-1.4-1.3-1.2v-4.2zM461.8 273.9l2 .5 2.5 1.3.8 2.9-1.5 1.5.4 2-3.5.6-.8.8.1.3.1-.1 1.3 2.7 3.5 2-.4 4.2v6.1h-3.5l-1 1.6-2.3 2.3-2.4 1.8.1 2 1.3 1.3.4 1.6 1.5 1.5 3.2.5.4 2.3.2.2 2-1.7.4.7.3.3 1.1-1.1 1.6-1.5v.1l.1-.1-.1 4.4 2.3.5v2.9l1.5 3.7-1.2 3.1H471.9l.7 1.3-1.2 3.5-1.6 1.6-.7 2.4h-.1l-1.8-.4v.9l1.4 1.4.6 3.4-1.1 2 1.1 1.1v2l3.1 1.8 1.7 3.5-2.3 2.1v.9l1.1 1.8v3.4l-1.1.9 1 1.9h1.7l2.2 2.2 1.5 3 .4 4.1-1.5 1.5.5 2.1 3.2.7 1.3 1.3 2.3-2.3v.1l.1-.1.9 5.5-.6 3.1 1.2 2.7-2.4 2.4-2.1 2.7-1.2 2.3 2.1 3v4.5l-2.2 2.2-.2 3.4-4.9 4.9v3.7l3.4 2.2 5.2 2.3-2.9 4.9-5.5 2.4-2.9 2.9 2.9 6.1-2.8 2.8.6 2.1 2.6.8 4.1-1h5.1l4 1 2 2.9 3 3 .8 3 4.1-.3 1.2 1.2 1.2 1.2-.6.6-2.6 2.9-2.2 2.2-1.2 3.3 2.1 3.5.6 1.8h2.1l4.8 1.6.6 4.7-3.7 1.8-1.7 3v2.9l.4-.2-.4 1.6v.5l-.1.1-.6 2.5.4 1.9.2.2.6.5 2.3.8 2.1 4v4.8l-2.2.9-2.1 2.1 1.3 2.2 2.6 2.8 2.2.4 1.4-1.4 4.7.5 3.4-1.2 1.4 2.9-1 3.9 2.9 2.9 1 3.6 3.3 3.3v3.1l.9 2.6-1.1 3.6-2.3 2.3.4 3.1-2.9 2.9-2.6 1.1-1.3 3.2-.7.9 1.9 1.9 3.2 1.1h3.5l3.1 1.6h2l2.9-1.2 4.5-3.9 2.7-.8v-3.6l2.3-2.3v-2.8l3.6-.9.9-5.2 2-2 4 .7 2.9-2.9 3.4.2 1.4-1.4 1.4.5.2-.4-1.5-.9-4.2-4.2-3.4-2.2 1.2-3.3 1.6.3v-1.7l4.3-.3-.2-1.7 1-1.8-.5-1.9v-4l1.2-.9-.1-1.7-1.8-2.6 1.2-2.8.7-3.5h2.3l1-2.5 2.1-1.1v-1.2l-1.3-3.1-2.3-2.3v-5l1.8-1.8.1-4.8 4.1-1 3 .5 3.2-1.1 1-3.2 3.3-1.7 3.1 3.1 1.4 3.4 2.2 1.5.7-.5-1.8-1.8 1.4-3.3.8-3.4 2.4-3.5 3.2-3.2 1.7-2.5-1-2.3-.3-.6.8-3.7 3.3-2.1 2.8.7.6 1.7 2.3 1 .9 1.5h2.4l1.9 1.9h1.3l.4-1v-2l1.7-2.7.9-.9-.6-1.6-.9-1.8h-2.5l-.9-2.4 1.1-2.1 1.5-2.6.8.1-.4-1v-2.2l-1.3-.5-1.3 1.3-3.1-3.1-1.8-.8-.8-3.6.5-3.8 1-1-.7-3.9 2.9-1.2.6-2.6 1.5-.9v-4l1.7-1.2 1.2-1.2-1.8-1.8 1.4-2.3.5-1.6-4.1-4.1v-2.7l.8-2.3-1-2.8v-3.2l1.4-3.3 2.2-.8 2.2-2.2 1.8.4.8-.8.6-1.4v-.8l-1-.1-1.8 1.8-2.3-1.1-3 1.1-1.5-1.8h-1l-1.2 1.2h-3l-2.3-1.1v-4l.9-.9V364l-.8-2.5 2-3.1.8-2.3-2.9-2.9-.8-4-2.8-1.5v-3.6l.6-.6-.6-.6v-2.2l-1.7-.7-1.5 1.5-1.5-4.5 1.7-1.7 1.6-2.7 1.9-.5-.7-5.1-.7-3.9v-1.8l-2.6-4.8-.3-4.8-2.5-1.7-.8-1.9-.4-1-.9-2.2V303l3.5-1.4 3.3-4.7 2.8-.9 2.6.8.5-1.1v-1.9l-1.8-1.8 1.1-3.9 2.1-.7-.1-4.8v-.5l2.8-1.9 2.7-2.7.8-2.5h.9l-.1-1.2h-2.1L601 269v-3.6l-1.6-1.6-4.4-3.2V259l-2.8-1-1.4-2.9.5-2.9-1.1-1.1-1.4-2.2-.8-2-1.2 2.4-2.6 1-2.2 1.8c-.2 1-.9 3.1-2.7 3.1-1 0-2.7.5-3.4.7l-2.1 1.3.6 3.1-5.2 2.3 1.3-4.5.6-4.2 2.6-2.6 1.2-3.7 3.6-.9.9-4.4 2.3-2.3.8-3.9v-1.7l3.2-3.9 1.7-1.7 1.5-3 1.3-1.9v-3.1l1.5-1.5-1.4-2.4-3-1.7-3.3-3.3 5 1 .2-1.8-2.6-2.6-1 1.1-2.6-2.2-1.5-3.1-1.2-1.2-2.4 1.1-1.7-1.7-2.7 1.9h-3.1l-2.1 1.1.9.9-1.2 4.1-.9-.4c-1.1-.5-2.5-1-3-1-.4 0-.8-.2-1.1-.5-.7-.7-.6-2.1-.6-2.5v-.3l1.6-1.6-1.3-1.3h-2.2l-1 1-6.9-.4 3.1-4 2-2-.4-1.8-1.8.2-2.7-1.6-2.1 2.2-2.5 1.8-2.2 5.4-.7 2.2v3l1.2.9.5 4h-1.9l-3.6 1.1h-1.8l.1.1 1.8 1.4 2.8 3.7-5.2-1-2.3.5-.5 2.6-5.1-.2-3.2 3.2v-4.6l.7-1.3-.4.1-.8 1.7-3.8.5-3.6.8-.3.3 2.6.9-2 2.3-4.1 1.2-1.5 1.5-5.7.8-1.5 1.5-4 1.5-1.8 3.7-3.8-.1v.5l3.7.3-3.9 3-1 1.4 1.2 1.2-.9 1.9 1.8 2.1-4.4 1.1v-1.2-.1l-.7.7.7.7 1.9.6 2.1 3.2-2.3 2.3h-3.1l-3.9 1.7H484v1.3l-4.7-1.8h-6.6l-2.4 2.1.6 3 1.5 1.5-1.6 3.5-.8 3.1 1 1 2 3.2 3.2 1.2-.2 2.5 1.7 2.3-.9 3.5h-5.2l-4.3-4.3 1-2.8-3.5-1.9-1.7-1.7-2.2.3-.5-.1.6 1.6.8 1zM463.5 264.7l.5-.5.4-1.1-.5-.5-.4.2-.5.6.3 1.1z"/><path class="atst0" d="M485.8 534.2l.1.5 2.6 2.3h2.8l2.6 1.3h2.1l.2 2.8h.3v-2l4.4-4.4-.9-1-1.2-2.1.5-2.3.7-.8-.9-1.2-2-2 2.8-4.1.2-4.5v-.4l1-.9v-.8l-1.4-.2-2.1 2-3.9-3.9 1.5-.4 2.1-.8v-2.1l.6-2.1-1.4-2.8-1.3-3.6 2.8-2.4 2.8-2.8 1.4-.6-.2-3.5-1.3-2.6-2-.7-1.4-1.3-.2-.1-.5-2.9.4-1.6-1.1.4-3.7 3.7-1.8-1.8-3.1 1.7-3-1.3h-2.7l-5.1 4.5h-5.4l-2.4 1.2.4 4.3 1 2.2.9 4.7-.6 6.3 1.3 1.8h.1l.4.8.5.7-.1.1 1.2 2.3h2.7l2.1 4.1 1.8 1.8.6 2.7 1.8 1.1h2.9l.2 3.6-2 .8.9 1.6.4.6v2.5zM482.7 149.2l-.3.1z"/><path class="atst0" d="M493.9 552.7h1.5l1.5-3h1.8l1.4-1.4v-.1l.5.2 5.1.8 2.3-2.3v-3.5l3.5-1.9.9-1.3 1.5-3.6 2.9-1.3 2.1-2.1-.4-3.1 2.6-2.6.8-2.6-.8-2.4v-2.7l-3.1-3-1-3.6-3.3-3.3 1.1-4.3-.4-.8-2.3.8-4.2-.4-1.5 1.4-3.7-.7-3.2-3.6-1.1-1.9-1 .8.8 2.4 1.7 3.3-.8 2.7v2.8l3.8.7v3l-1 1v4.3l-2.4 3.7 1 1.1 1.9 2.5-1.5 1.5-.1 1.1.7 1.5 1.9 1.9-5.1 5.1v3.1h-2.6l-3.5 3.5.7 2.9-1.2 1.2zM589 245.3l.1-.7-1-.8-.4-2.2h-1l-1.3.1.1 1.6v.3l1.2.1 1.8 1.9-.3.5zM440.2 134.3v-.3h-.1l-1 .6.1.1zM99.5 528.3l1.4-3 .4-1.7-2.1-1.6-.8-1.4-.8.3-.5 2.9.6 2.3-.3 2.6h-2.6l-.4.8 1.7.2.6 2.1 1.1-.8zM86.3 517.7l1.2.2 1.3-.7h2.7l1 .9.5-.6 2.8-.1.6-.6v-1.9l1.3-1.2.2-.3-1.2-.8-.8-.8-2.1.4-3.2-3.2-.5-1.5-1.9-.4-2.1-.7-2 .8-1.3-.1-1.7 1.6-1 .5.9 2.4 2.8 2.3-.6 3.1 1.4 1.3 1-.4zM202.5 456.6l.6-3.3-2.6-2.6-.9-3.9-3.2-.9v-3.2l-1.3-2.4-1.4-1.4h-5.3l-2.3-2.4-1.2-2.4-1.3-1.6-1.9.5h-2.1l-3.4-1.8-3.5-1.5-2.4-1.6-.7-2.3-2.9.1-2.4-2.3-1.7-.6-1.7-1.7-.3-1.6-1.3-.8-2.6 1.6-2.6 1.4-1.6 1.6-1.7.1-1.1.5 1.1 2.9-1.3 1.3-.2 2.1.8 2.9 2.9.4 2.6 1.4v1.4l2.5-.1 4.2 4 .5 5-2.4 2.2.7.7.8-.9 3.2 1.2.7 3.3 1 .9h2.5l.5 2.8 1.9 1.9.1 2.5h2.1l2.3 2.2-1.1 3.4v2.5l1.7 1.7 2.5.5.2-2.2 2.1-2.1.9-2.1h6.8l1.5-2.2h3.9l2.9 1.5 2.9-1 2.1-2.1 3.2.6v-.4l-.8-1.3z"/><path class="atst0" d="M95.9 526.3l-.7-2.5.8-4.2 1.6-.6-.3-.5h1.4l.6-.2.1.2 1.4.1-.3-1.2-2.1-1.9-.2.2v1.8l-1.6 1.6-2.8.2-1.3 1.3-.6-.6-1.3-1h-1.3l-1.5.9-1.4-.3-1.1.3.5 3.8 1.7 1.7 3.3.5 2.3 2.2.7-1.2h2zM168.2 456.4l-.4-1.8H166l-1.9-1.8-.5-2.9-1.2-.4-1.3 1.3-3.4-3.1 3.2-3-.4-3.5-3.1-3-3.6.1v-2.1l-1.4-.8-3.8-.4-1.1-4.4.1-1.8h-2.3l-2.9-1.6-.4-1.5-1.3-.2-2 1.8h-4l-1 3.2-3.4 3.4.2 1.4 2.2 3.5-1.5 3.9-3.4 3.3 1.4 5.3-2.5 4.8-4.1.7-1.9-1.9-1.4.5v1.7l-1.4 1.4 2.9 2.1v3.4l-.9 2.4.5 2.2 2.5 2.3 2.7-2.5 1.9 1.9 1.8-.7 1.5 1.5.7-.3 1.2-3.4 3 1.1v2.1l1.1 1.2 1.7.4 1-2.5 4.5-1.2 1.7 1.7 2.4.1 2.6-1.7 2.4 2.4.7 2 1.2-1.2 2.9.2 1.8-.8v-2.5l4.9-4.8h3l1.6-1.2.8-2v-2.5zM457.9 267.9l-.6-.6-.9.2-1.2 1.2h1.9zM110.6 489.8l-1.5-1.5-.5-1.9-1.5-1.8-.2-1.9-1-.4-2.9.5-1.7-1.7-.5-1.3-.5.2H98l-.8-2.3-.4-.2-.5-.2-.2.2-.4-.5-1.2-.6.4-.3-.2-.1h-.9l-1.3 1.2-2.9.4-1-1.4-.3-.1-.5.6v1.7l-.9 1.4.6.6 1.2 2.4-1.1 1.8 1.7 1.7-3.5 2.7-.9.2.5 1.7-.5 1 1.4.4v2.6l1.6 1.1.4 2 1.7 2.6h-3.8l-.2.3.9.8v.1l1 1.7-.6 1.4 1.4.4 2.8.6.6 2.1 2.3 2.3 2.1-.5 1.4 1.4 2.3 1.6-.6 1.3 2.6 2.4.4 1.8.3-.1.6-.8.4-.5 2.4-.2v1.7l.6.6h1.5l.4-1.1-1.3-.6v-2.8h2.4l.3-.2-.7-1.3 2.1-2 2.2.7 1.9-.6 1.9-1.2v-2.7l-1.3-1.8-.4-2.2-1.7-1.7v-1.9l-.9-1.3-1.7-1.7-1.4-2.6 1.1-2.1z"/><path class="atst0" d="M121.3 523.1v-3.3l1.6-1.6.1-2.1-.5-1.3-1.5-.6-1.1-1.6-1.5-1.1-2.1 1.3-2.5.9-1.8-.6-.2.2.7 1.3-1.9 1.7h-.9l1.4.7-1 2.7 1.9 2 1.5 2 3.4.3.4 4.9-2.2.8-2.5 1.4-2.4 2.9-1.2 4.5-3-1.8-1.4 1.1-2.5-.2-1.6 1.2-2.4.3-.8 1.4 1.9 2.4 1.2 3.4v1.6l2.4 1.7.3 3.9 1.7 5.1.4 2.3 2.5.5 3.5-1.2 2.4 1 2.7-1.2-.3-4.3.6-3.9-.9-5.2v-4.5l3.7-5.9 1.2-1.1v-1l1.8-1.9 1.3-5-.7-2.4zM74.4 473.5l-1.1-.4-.8.4-2.6-.8-1-1.6-1-1v.3l.6 1.1 1.9 1.9.9 1h.7l.7-.9 2 1.3zM82.1 505.2l1.7.2 1.6-.7.4-.9-.5-1.1-1.5-1.5 1.3-2.5h1.5l-.4-1.6-1.7-1.2v-2.2l-.6-.2-2.1 2.7h-3.9l-1.7-2.5-.6-1.3h-.5l-1.5 1.4-2.1.4-1.3 1.3.6 2.3 2.3 3.6 1 3.4 3 2 1.8.9 1.2-.5z"/><path class="atst0" d="M99.8 537.1l1.7-1.4 2.5.2 1.9-1.3 2 1.1.6-2.6 2.9-3.5 3.1-1.6.9-.3-.2-2-2.7-.3-1.8-2.4-2-2.2h-2.5l-1.7-1.7-.5.7-.3.3-.7.1.1.3-1.1-.1-.7.2-.1-.2h-.8l.2.4 2.7 2.1-.8 3.1-1.4 3.2-2 3.1-1.5 1.1 1.9 2.1-.6 1.7zM69.6 284.6l4.1-2.1.8-1.7-.3-2.3-1.1-.7-1.4-2.4.3-2.5v-2.1l-.7-.6-.8 2.7-3.6-.6-.3-1.9-1.5-.5-.1-2.6-1.2-1.2-.9-.2-.7 1.3-2.6.7-.8-.2 3.6 8.4zM72.4 485.6l1.6-2.3v-.1l1.5-1.4 2.5-1.1v-3.5l-.8-.5-.8-.8-1.1-.6 1.2 2.7-1.4 1.5-.3.3-1.5-.1-.9 1.7h-1v1.4l.6 1.6-.7 2.2h-4.2l-.8-.4-.3.3 2 2.4.2.5 1.2-.2v-.8l1.4-1.2 1.6-1.6z"/><path class="atst0" d="M72.7 492.1l1.6-1.6h2.5l1.1 2.3.3.5.7 1h2l1.9-2.4.6-1.3-.7-2.7 2.3-.7 1.5-1.2-1.3-1.3 1.4-2.2-.6-1.2-1.6-1.4 1.6-2.3V476l1.8-2 1.5.5.6.2.7 1 1.2-.2.8-.8-.2-3.1 1.1-1.1-.6-.7-1.7-.8-1.8-2.7-1.9-1.9 2.5-1.9-.5-2.6 1-.3-.2-.2-3.6-3.8-1.7 1-.1-.1-2.4-2.4.1-.7.1-1.4.3-1.2-.8-.4-1.5 1.5-2.4-2.2-1.5-1.1-.8-.1-.3.8 1.2 2.2-.6 5.2-3.2-1.1h-1.7l-3.3.1-2.1.9-1.3 2.7-3.3-1.1-2.3-2.8-1 .2-1.1 1.1.7 2.8-.9 2.6 1 1.9 2 1.9-.3 4.7 1.4 2.1 1.3 2.7.6 5.4-.4 6.9.9 2.7 1.8-.3 1.8 2.6 1 1.2.9.2 1.7-1.7 2.2-.3zm-4.9.3l-1.4-2.6-2.8-3.4L66 484l1.6.7H70l.1-.3-.5-1.3v-3.6h1.8l.9-1.8 1.8.1.1-.1.1-.1-.5-1.2-.7-.4-.2.3h-2.4l-.4-.4-3.1-3.2-.1-.1-.8-1.6v-2.3l1.5-.6.5-.2 2.3 2.3.7 1.1 1.2.4.8-.4 2.8.9.5 1.7 1.2.7.8.8 1.4.9v6.2l-1.9 3.9-1-3.2-.3.1-1.2 1.2-1.6 2.3-1.7 1.7-.8.7v1.5l-2.1.4-1.4 1.3zM132 511.9l-.9-2.5 5.2-3.6v-.5l-1-1v-1.9l-1.4-1.9 2.2-2.2 2.6 1.2.2-1.1 3.4.3.5-1.3-1.5-1.4 1.3-4.8 1.7-.9.5-2.2-2.4-.1h-.3l-1.9-2.5-.3-3.3v-.2l.8-4.2-1.5-1-.8-2.8-2.5-.6-2.1-2v-1.7l-.9 2.5-2.5 1-1.5-1.5-1.9.7-1.4-1.4-1.8 1.6v2l.8.1 3.4-1.8v3.9l-1.7 3.5-3.6 2.6h-3.3l-3.3 3.4-1.9-.5-.7.8-2.4-.9-1.5-1.5v-.2l-.6-1.9-.4-2.1-1.6-.5-1.9-1.8v-2.2l-.5-1.4h-.2v.9l-1.6 1.6h-3.5l-1.1-.8-.3.2.8.4.6 1.7h.7l2-.7.9 2.7.7.7 2.5-.4 2.4 1 .4 2.5 1.4 1.6.4 1.9 1.4 1.4 1.2 3.3-1 1.9.8 1.6 1.6 1.6 1.3 1.8v1.7l1.6 1.6.4 2.4 1.4 2v3.3l1.8 1.3.9 1.4 1.8.6 1 2.6-.2 2.1.9.2 3.2-.9h2.4l2.5-2.9 1.8-.7v-1.1l-1.1-.7zM577.2 536.7l-.7-3.3 1.7-1.7V529l1.3-1.4-1.5-1.5-1 1h-3.9l-2.2-1.1-2.8-2.6-3.3-.5-2.2-1.6h-1.9l-.9 2.2-1.9-.8-1.2 1.2-3.3-.2-3 3-4-.7-.9.9-.9 5.8-3.5.9v2.1l-2.2 2.3v4.2l-3.7 1-4.5 3.9-3.4 1.5h-2.8l-3-1.6h-3.4l-3.9-1.4-2.2-2.3-2.2 1.2v3.1l-3.5 3.5h-.4l-3.1-.3-2.1-.5-.7.6.4 3 .9 3.1 3.3 3.3 3.2 3-1 3.2-2.7.6-.4.4 1.9 1.8v1.4l.1-.4h3.4l3-2.9 5.2-3.4h3.5l1.1-3.1h3.6l2.8-2.9 4 1.8 2.3 2.3 3.8-1.6 4.1 1.2 5.3 5.3 4.2 1.5 2.8.8 4.2-.7 4.2 1.1h6.8l3.2-3.3 3.2-2.1v-2.8l-2.7-2.6v-3.5l-1.9-2.3.7-4.7 2.2-2.1 1.9-3.9 2.1-2.1-.1-2.1zM461.7 557.9l-3.8-3.8 2.3-2.2 3.4-1.1 4.1-1.6h2.4l1.7-1.7 1.4-1.5v-2.2l2.6-2.7 2.8 1.8 1.2-1.6h1.6l.5-.8-1.6-1.6 1.8-3.2 1.9-.9-.7-1.9v-.1l-.3-2.7-.8-1.6-.8-1.4 2.6-1.2v-.5h-1.7l-3-1.9-.5-2.9-1.7-1.8-1.7-3.2h-2.7l-1.7-3.2-4.4 2.5h-2.9l-2.2 1.8-2-1.1-2.2 2.2-1.8-1.8-2.1 2.1-1.4 3.6-3.1 1.4-2.2-3.2H445l-1.8-2.7v-2l-3.6-3.6-2.6.1-4.2 1.4-4.6 3.4h-5.1l-2.8 1.2-2.3.8-.5.2-.7-.7-.7-.7-.5.8-.6.3-.9.4 1.9 1.8 1.9 6.6v4.6l2.4 2.3v3.8l2.6 4.4.7 4.1 1.1 3.3 1.6 3.3 2.2-.4 1.6-3.4 3.4-1.1 2.3 2.7v2.2l2.9 2.9 3.3-.6 1.5 1.5 3.1-.4 1.9-2h4.7l2 2 2.8 1.3 1.9 1.8 1.8-.2z"/><path class="atst0" d="M503.8 570.1l-2.6-2.6 1.9-2 2.3-.5.3-1.2-2.3-2.2-3.7-3.7-1.1-3.6-.4-2.8h-.2l-1.5 3h-3.4l-4-4 1.8-1.8-.7-2.9 4.2-4.2-.1-1.5h-.8l-2.6-1.3h-3.1l-2.8-2.5-1.6.8-.9 1.5 1.7 1.7-1.9 2.8h-1.6l-1.7 2.2-2.9-1.8-1.1 1v2.3l-.2.2-3.7 3.8-.2.3H468l-3.8 1.4-3 1-.7.6 3 3v3.9l-2.8.2.3 2.3 2.5 1.6 1.2 2.7 3.4 2.1v3.4l3.4.9 3.4 1.2 3.5-1.4 3.3-3.3 1.2 4.5 1.6 3 1.2 1.8 3.5.7 1.8-1.8 4-2.3 4.4.2 2.4-2.4 2.7-.7-.7-1.2zM661.2 544.4l-.9-.8-3.2.4v-7l1.3-.5-.7-.8v-3.6l2.3-2.2h2.2l1.5.6 1.6-.8 4.2-4.2 3.3.5h1.7l1.2-4.4.2-.4 2.5-1.1 1.7-1.7.7-4.5 2.9-1.2 2-1.9 3.4-1.6 2.2-2.2 3.3-3.2.8-3-1.7-1.7v-1.5l-2.2-.6-1.4-4.6 2.3-4.3 2.3-2.4 1.6-3.5 2.3-3.7 3-3 3.2-.9 1.1-3.9-.7-1.9-2.1-2.1-2.9-1.4-2.6.9-3.1-3.4-1.2-3.9-1.8-2.1-1.1-3.5-3-1.6v-3.8l-1.2-.1 1.2-1.1v-.6l.6.1 2.3-2.2-.5-.5-1.9-.5-1.5 3.2-2.5 1.2v6.3H681l-3.2 3.3-2-1.2-1.8 1.8-5.5-1.1-1.1-1.1-1.9 1.4H661l-1-1.1-1.4 1v3.1l-4.3 1.6-3.2-1.2-1.4.7v3.4h-3l-4.1 3 .7 3 2.2.7 3.5 2.5-2.2 2.2-1 1.8 1.5 6.4 1.6 7.6 3.6 1.2-2.4 7.9-.9 11-6.3 7.6-5.3 5.3-2 5.2-4.2 5-3.4 3.3v5h-3.1l-4.2 2.4-1-3.2h-4.1l-2.1-3.4v-1.5H611.6l-.2-.2-2.3-2-1.5-1.6-4.9 1-2.4-2.4-2-1.1-1.6-1.5-3.7-1.2-1.8-1.6-3.5-1.7.3-.7.3-1.3-.9-.6-6.6 6.5-.8.9v2.6l-1.6 1.6.4 1.8 1.6 1.6v1.1l.9-.8 3.9 2.8h6l2.8 2.9 4.1-1.1h4l4.2 1.7 3.1 3 2.2 4.7 2.1 2.1 3.4 1.5 5.2.4 3.6-1 3.7-.9 3.7-3.6h4.6l7.3-1.1 2.2 1.5 5.1.7h4.5l-.5-2.2zM780 423.4l-2-.4-3.2 1.2v2.5l-3.9-.6-6.3 6.3-2-2h-1l-1.7 1.7-2-.9-1 1.4-3 .7-3 1.4-3.6-3.5-2.1-1-2.2.5-1.5 1.5-3.4-.7-.3 1.4v.3l-.1.1-.1.4h-.5c-.3.1-.9.1-2.1 0h-.5l-.9-1.1-.4-.5H731l-1.1 1.1-3-.6-1.2-1.2-1 1h-3l-2.7 2.3-2.3 2.3v1.1l1.4 1.4 2.2.6 2.5-.8 1.8 2.9-1.8 2.3.5 1 1.9.5.7-1.7 2.4-2.4 2.5.7 1.6 1.6.1 2.3.6.2 1.8-2.5 3.4 1.7 1.2 3.2 1.1 1.9-.3 3.3 1.1.2 2 2.1h1.7v2.5l-1.9 1.1.9 1.3.6 2.7h2.4l1.2 2.5 1.6 2.7 1.7-1.7 5.4-4h3.9l3.6-1.2 4.5.7 3.6-1.9h3.4l3.9.4v-38.3z"/><path class="atst0" d="M742 475.6l2.7-2.7 4-2.3-1.8-3-.7-1.5h-2.8l-.8-3.9-1.8-2.6 2.1-1.2h-.1l-2.1-2.3-2.2-.3.4-4.4-.9-1.6-.9-2.7-1.5-.7-1.6 2.4-3.1-1.1-.1-2.9-.8-.8-1.1-.3-1.3 1.4-1.2 2.9-4.3-1.2-1.4-2.8 1.8-2.2-.4-.6-1.6.5-3.1-.8-2.3-2.3v-1.4l-2.5-.7v-2.7l-1.9-.6v-.1l-2.4-3.1-3.5-1.3-.8-3.7-.8-.8-1.5 1.1h-2.5l-1.5-1.4-1.7-.2-1.7 1.7.9.9-1.1 2.6 1.3 1.4-1.2 3.1 3.6 3.5 3.1-1.3v2.9l1.2 1.1-.8 3.8-2.5 1.6-1.6 3-3.7-1-2.2 1.2-2-.1v2.5l2.6 1.4 1.2 3.9 1.9 2.1 1.1 3.9 2 2.2 2.2-.8 3.9 1.9 2.6 2.5 1 2.9-1.5 5.4-3.7 1.1-2.6 2.6-2.1 3.4-1.6 3.7-2.6 2.5-1.7 3.3.9 2.9 2.6.7v2.2l1.9 1.9-1.2 4.5-.2.2-5.8 5.7-.1.1-3.3 1.5-2 2-2.4.9-.6 4.1-2.4 2.4-2 .8-.6 1.9-1 3.5h-3.2l-2.5-.4-3.7 3.7-2.6 1.3-1.9-.8h-1.2l-1.1 1.2v2.1l1.8 2.2-2.5 1.1v3.6l2.1-.3 2.7 2.8-5.2 5.3.5 2 2.1 2.2 1 2 3.6 1.1 4.4-.5h6.1l4.6-1.4h4.4l5.5-5.5 4.9-2.3 3.4-2.3 2.4-2.4 1.3-4.5 5.7-5.8 4.3-1.9 3.4 1.3 2.7 1.4 3.8-2.2 3.3-1.9 4.4.8 5.4.4 4.6-1.7 2.7-2.7 2.2-5 2.9-.8v-3.2l-1.3-1.3-2.4-4.8 1.7-4.5v-4l1-6.8 1.1-2.3-1.1-4.3-3.2-3.2-2.5 1.9-2.5-3.2 1.4-3.6zM212.9 456.3l3.5-2.4 1.3.3.8-1.7 4.2-.8 2-4.7 3.6-2 2.4-2.3.8-3.7-1.1-2.6.7-1.7-3-2.6h-1.8l-2.1 2.2-3.8-3.8-1.6 2.5-2.9 1.3-2 2-2.7-3.8-2.5-1-1.7 1.8-2.8-3.1-1.6 1.7-2.6-.7-1.3 1.4v2.6l1.4 1.4-.7 3.6-2.1.3.9 1.7v2.3l3 .9.9 4.3 3 3-.6 3.3 2 2 .7 1.2h4.3zM415.9 514.5l1 1.1 1 1 4.7-1.9h5l4.4-3.2 4.8-1.6 3.5-.2 4.7 4.7v2.3l.9 1.4h1.7l1.9 2.7 1-.4 1.3-3.3 3.7-3.7 1.8 1.8 1.9-1.9 2.1 1.2 1.8-1.4h3.1l3.9-2.3-1.6-2.3.6-6.7-.7-4.3-1.1-2.2-.4-4.3-2.4-.2h-.2l-1.7 1.9-2 1.9-.6.7-3-2.9 1.5-1.5-.9-.8V487l-.5-3.3-.9-.5-1.9 1.9-4.1 1h-3.5l-2.6-3.6h-6.6l-3.3-4.5-4.4-4.4-3.9-1.7-3.4-1.7-3.8-.6h-4.1l-1.9-1.9-1.9-.5v6.5l-2.4 2.4.4 1.4v2.6l-1.8 1.8-2.4-.8-1.4.5-2.6 3.1-1.5 3.8.6 5.2v2.7l1.6 1.6v2.5l-1.8 1.8-.8 2.2 3.8-.2 2.3-2.3h3.7l1.2 3.2-2.4 3.2h-1.7v1.2l2.2.9 2.1 2.1 1.8 3.7 1.1 1.1.2-.1.9-.4 1.4-1.5z"/><path class="atst0" d="M278 502.8l-3.5-3.5-.2-.4-.3 1-.6-3.2-.4-1.6h-1.6l-.4-3.4 3.1-1.5.5-1.2-.6-1.1h-1.2l-2.3-1-1.6.6h-5l-1.1 2.7-2.5 1.9-2.5-.7-2-1.4-.6-1.5-.7-.3-.9.9-2.6 1.3-2.4-2.5-.2-.8h-1.5l-.8-3.6 1.1-1.1.3-1.9-1.2-.3-1.1-2.4 3-1.2.6-1.5-.5-.8h-1.6l-1.8 1.8-3.1-1.8.9-2v-2.9l.7-1.9-.9-1.9v-3.4l-1.1-3-1.9-1.8-2.1-1.4.9-4.2-1.1-1.1.1-4.1-.6-1.1-1.6-1.6-.7-.6v-.1l1.8-1.7-1.6-1.7h-1.4l-.9 3.8-3 3-3.2 1.7-2.1 5-4.2.8-1 2.3-2.1-.6-2.3 1.7-1.7 3.5h-5.1l-.1.7 1.1 3v2.1h1.1l4-.7 2.5 2.5 1 2.4 3.4 1.3 2.6 3.1.7 4.2 1.4 3.9 1.5 3.1-2 2v1.1h.5l2.2-3.5 3.5 3.1 1.7 3.3 2 .6 2.9-.4 3.8-1.8 3.1 1.6 3 2.4.8 1.8 2.3-.9h4l2.4 2.5v3.8l2.2 2.2.5 1.7 2.6 2.5h1.9l1.6-1.6h2.5l1.4 2.8 1.3 1.4 3-.2 3.1-.1 1.6-1.6 1.6-2.2-1.7-1.8zM342.6 469.4l.5-2.5-1.6-.2-.9-1.9h-2.5l-1.8-1.7-2.8-.6V459l-1.5-.5-3.1-4.5 1.7-3.1-.5-.7h-2.6l-4.1 3.1-2.2-3.7-1.2.5-2.5-1.1h-2l-2.1-.9-3.1 2.1.1 2.9.5 4-1.9 3h-2.7l-.9.8.9 2.9-2.1 2.1h-1.7l-.2.9 1.1 1.2h2.3l.3 1.4h2.9l1.7 4.1-2.5 2.5-.2.8 3.9-.1 3.5 1h2.7l2.8 1.5 2.4-.5 1.9-1.8h2.2l3.9 2h3.8l3.6-.6 2.7 1.5 3.2-.9h3.3l1.4-1.9-.4-3.7z"/><path class="atst0" d="M307.7 471.2h-3.1l-.3-1.4-1.7-.1-2.3-2.3.8-3.3h2.3l.8-.8-.9-2.9 2.2-2.2h2.5l1-1.5-.4-3.5-.1-3.1-2.9-2.9-1.4-.8-2.1 2-2.5-2.5-2.2-.2-.6-1.3-2.7-.9-.9-1.6-2-1.3-.9.3.5 2-.8 2.8-1.8 3.1v2.4l-3.8.9-2.3 2.3-4.3-1.6v-2.3l-1.3-1.4-2.3-1.1-1.8-.5-2.4 1.8.4 2.1 1.5 1.5.5 4.2 1.5 2.5 3 .3 1.8-1.1 4.5 1.4 1.3 4v3.9h-3.2l-1-1.5-1.2.2v.8l-2.8 1-2.7 2.7v1.6l-2 2.7v3.2h-2l-1.7 3.2-.4 2.6-2.6 1.1h3.6l2-.8 2.6 1.2h1.9l1.6 2.8-1.1 2.6-2.6 1.3.1.4h1.5l.4-.9 3.6.9 1.9-.6.8-2-1.2-4.3 3.5-1.4 4.5-.2 2.6 2.6h1.3l1-1-3-3-2.5-1.6 2.4-2.5-.9-2 1.4-4.3h4l3.9 2 2.1 1.8 2.4-.7 3.3.7.6-1.7 1.9-1.9zM399.4 498.7l-1.5-1.5v-3.4l-.7-5.5 1.9-4.6 3-3.6 2.5-1 2 .7.4-.4v-1.8l-.6-2 2.5-2.6v-6.8l-.8-2.4-1.8-3.6.5-3.6-1.7-1.7v-3.7l.1-.2.8-2-2 2.1-3.4 1.6-4.1-.1-2.4-.7-1.9-1-.9 1.2h-3.8l-2.1-1.4-1.6-.7-2.5-.8-2.7-.9v-2.8l1.1-1.1-1.2-1.2-1.5 1-1.1 1.7-.3.6-1.6 1.6-.2 1.8 1.2 3.7-2.6 1.2v.6l1.7.8 1.7 1.7.6 1.6 2.5 1.4v2.9l-1.5 1.6-2.9.5-3.4 3.4v2.4l-.7 2-2 1.9-.8.1v1.7l-1.6 1.7-.7 1.4v1.1l2.1.9 1.4 4.5-.8 2.3v3.1l-1.8 1.7.5 1.7 2.5.7 3.3-2 3.1 3.1-.9 3.2 1.7.5 1.8-1.8 3.1 1.9h3.7v3.6l-3.8 1.7-.5 2.6h1.2l3.7-1.8 1.6 2.4 3.1-1.6 4.1-1.2 2.2-2.2 1.3-3.6 1.5-1.6z"/><path class="atst0" d="M365.8 474.2l1.7-.3 1.3-1.3.5-1.2v-2.9l4.3-4.3 2.9-.5.6-.6V462l-2.1-1.2-.8-1.9-1.2-1.2-2.4-1.2v-2.8l2.2-1.1-.8-2.4.2-3 .3-.2 2-2.2 1.1-1.9 3.1-2.1 3.5 3.6-1.8 1.8v.8l1.4.5 2.7.8 1.8.9 1.8 1.1h1.8l1.3-1.2.4-.6 3.2 1.7 2.1.6h3.3l2.7-1.2 2.3-2.3.3-.4h-1.1l-1.9-1.7h-2.8l-1.6-1.6-2.6-.9-1.9-1.9v-2.3l-3.1-.4v-3.3l-1.9-3-1.7-3-2.1-2.2-2.6-.7h-2.5l-2.2-2.2-1.9-.9-1.8-1.5h-.4l.1 1.9-1.6 1.6-3.2 1.1-1.7.7-1.5 1.4H361l-1.8 1.8-4.2-1.1-.5.5v2.3l-3.3.9h-3.5l-1.4-1-.4 1.3.7 1.9v3.3l-4.4 2.2-1.9-.7-1.7 1.7-2.3-.6-1.9 1.9.6 3.3-1.1 1.2.8 2.8-2.3 1.8-1.4 2.4 2.1 3 2.2.8v3.3l1.9.4 1.7 1.6h2.9l.4 1 .5 1 1.3.2 1.2.2-.3 1.6-.3 1.6 3 1.8 2.9 1.8.2 1.8.2 2.4 2.8.3 3 1.8h4.1l1.4 2.7h1.2v-1.1l1.1-2.1 1.3-1.4zM156.9 493.5l-1.5-1.5-2.8-2.6-2.9-1.8 2.6-2.6.7-3.2-2-2-1.3-3.8 2.4-1.7-.8-2.3-1.1-1.1-1.8 1.2-3.7-.1-1.5-1.5-2.6.7-.8 2 .7 2.4 2 1.3-.1.6-.4 2.5-.5 2.2.2 2.5 1.1 1.4 4 .1-1.1 5.2-1.8 1-.8 3 1.6 1.6-1.4 3.6-3-.3-.2 1.2-.1.7h-2.6l-.2-.7-.2-.7-.7-.3-.2.2.8 1.1v1.7l1 1v2.3l-4.7 3.3h1.6l1.7 1.2 2.8.5 1.1 1.1 2.9.8-.2.8h.3c1.4 0 3.1-.2 3.1-.2H151.7l2.2-.3.7-.6-1.4-1.4-1.4-2.9-.4-4 3.8.5 1.1 1.2.7-.7v-3.7l-.8-5.2.7-3.7zM415.3 128.3l1.1-1.1-1.9-1.9 1.1-1.2-.7-.4-.6.4-.8.9v1.2l-1.8 1.8 1.2.3zM404.6 122.9l2.7-1 .9 1 1.4-.5-.5-.5h-1l-1-.4h-2.7l-.9-.8-.2.3 1 1zM417.7 135.8v-1.5l-.1-.2-.6.9-.2.2.6.6zM406 130.1l.6.2.9-.9-1.5-1.1zM427 142.1l1.4-.3.9-2 .5.2-.9-.9-2.2 1.7-1.1-1.1h-1.2v1.2l-.7.7 2.3-.5zM407.9 127.1v1.9l.1-.1 2.6-1.1-1.7-1.2zM435.9 141.6l1.4-.3 2.3-2.4.2-.4h-.5l-3-.1-1.2-1.5-.5.5-.7 1.5v1.3l1.7.3zM447.1 265.7v-1.3l.5-2.1h-.7l-.6 1.4zM444.3 140.5h2l2.9-2.8-.2-1-.6.1-.8 1.2-3.2.6-.2.1.6.3-.6 1.5z"/><path class="atst0" d="M437 280.4l-.4 3.4 2.1 6.6-3.3 3.3-1.4 3.9-2 3.1.5 5-1.8 1.8.3 1.7h2.4l1 1.4 1.5-.7 2.3-2.3 2.6 2.6 3.7 1.3 1.4 1.4 2.1 1.9 1.8 3.6-1.1 2.5.9 2.9-1.2 2.7-2.1.7.2 2.1v1.4l.9.9 3.8 1.1v3.9l-4.9-1.1-3.5-3.5v-2.7l-.2-4 2.3-2.3-1.5-4-1.5-1.5-.8-2.4-2.9.4h-2.8L432 319l.3 2.4.8 3.3-1 4.1-5.5 5.5v3.3l-3.7 2-3.6 1-1 1H416c-.3.2-.6.3-.8.5.4 1-.2 2.4-.7 3.3l-.3.5h-3.7l-1.8-2.6-2.4.1-3.2-2.3-2.4-1.1-2.6-3.9v-4.4l3.7 1.2 1.7 1.7 1.9 1.2 2.1-1.4 3.8.8 1.6-.9 2.3-3.3 4.1-4.1 3-.8.6-5.4 3.4-2.6.3-1.6-2.5-2.5-1.3-4.6 1.3-3.1 1.6-5.7 1.1-6.7 3-4.6 1.5-8.6-2.6-2.3 1.5-4.7 4.3-4.3.7-5.5 1.4-1.4-1.1-4h-2.9l-1.8-1.8H427l-1.6-2.3-1.9 1-1.5 3.4-1.5 3.6-2 4.6-3.9 3.9-3.5 1.7-2.8 1-1.4 1.8-.7 2 1.7.5v3.3l-1.4 1.9-.7 3.4v2.9l-3.4 1.7-.9.9 1.2 2.5 3.2 2.2-.7 4.6 1.4 3.3 3.5 1.1-4.4 4v3.3l-4.2 2.5-2.7-4.3v-3l-2.4-3.2-2.4-3.8-3.6-3.6-.6-1.2-.5.7-1.7 1.7 1 .9.2.9 1.3.4v6.7h-1.8l-.6 1.4-1.1.5-.3 1.7 2.9 1.5v3.1l-2.1.9 2.3 2.3-4.6 2.3-2.9 2.9h-2.6l-1.1 3.3h-5.8l-4.6 1-4.3 2.4v3.8h-.1l-3.9-.2-.2 4 .6 4.2-1.3 4.1-2.3 2.3 6 6 3.8-.9 3.1 1.3 3.2-1.4 4 2.1 4.2 3.6-2.7 2.7 1.5 1.7 3.3.6 2.4-2.4 2.2 2.2 1.3-1.3H393.5l4.1 4.1.9 4.5v2.3l3.5 3.5-.8 3.3.7 2.1 4.6-.5h3.2l2.3 3.6h2.5l2.9 3.1 2.2-.5 4.2 1.1 1.9 1.9 1.2-1.2 5.5 2.2-1.1 3 2.7 1.5 2.2 2.2h10l1.1-1.9 3-1.6 4.1-2.7h.1l1.6 4.1 2.4 3.1 1.1-1.1 5.3 1.6 2.1 3.4 1.7-.6H471.5l2.8 3.5 3.9-3.9.2-3.4 2.2-2.2v-3.1l-2.4-3.4 1.9-3.5 2.3-2.9 1.6-1.6-.9-2.1.6-3.3-.3-1.7-1.1 1.1-2.2-2.2-3.8-.8-1-4.2 1.6-1.6-.3-2.9-1.2-2.4-1.4-1.4h-2l-2.3-4.2 1.6-1.3v-2l-1.1-1.8v-2.2l1.8-1.7-.9-1.8-3.5-2.1v-2.3l-1.6-1.6 1.5-2.6-.4-2.2-1.6-1.6.1-3.9h.1l2.3.5.4-1.3 1.6-1.6.8-2.3-1.8-2.9h2.1l.5-1.3-1.4-3.3v-1.8l-2.4-.5v-1.5l-.8.8-.3-.3c-.2 0-.4-.1-.7-.5l-1.7 1.5-1.8-1.8-.3-1.6-2.5-.4-2.3-2.3-.4-1.6-1.4-1.4-.2-3.6 3.1-2.3 2.1-2.1 1.4-2.2h2.7v-4.3l.3-3.1-3-1.7-.4-.8-.6.9-1.9-4 2.7-2.7 2.2-.4-.2-1.1 1.4-1.4-.3-1.1-1.7-.9-2-.4-1.6-1.6-.5-1.3h-1.6l.1.6.8 2.4-2.9 2.6-4-4-2 1.3.8 2.5 2.4 2.4v1l2.4 1.2 2 2 1.1 2.7v4.1l-4.1-3.9-1.9-1.9-2.3 1.4-2.3-1.9-3.5-2.7v-7.4l2.8-2.8.6-3.6v-2.1l-1.2 3.1-2.1 3.3h-3.3l-5.3 5.3 1.4 1.9zM428.8 252l1.7.5 1.9-.9-2-.5 1.6-1.8-.4-.7-1.1.5-.4-.1-.6.4.5 1-1.2 1.6zM436.3 124.7h-.3v.8l.7.6zM403.9 127.4l.2 1 1.4-.5-1-.7zM320.3 265.9l1.9-1.3 2 .4.7-1.8-1.8-2.2-.1-1.8-1.6-.5-2.5.7-2.7 3.5.7 1.7zM140.8 282.3l1.7 1.7.2 2.4 1 2.4-.9 2.8.5 2.1h.9l.9-.9 2.2-1 1.2 2.4h3l2.7.3 2.1.9 1-.3 2-1.6 1.9 1.9 2 .4-.6 4.4.8 1 .8-.9 3.4.2.3 2.1 1.9.9v2.6l-.5 1.1.9.4 1.6 1.6v.2l.8 2.9.8-.8 2.8.4.8-1.5 2-.2 1.7-2.1.8-2 1.2-2.3-1.5-5.9-2-3.7-3.6-1.6-5.9-17-1.7-5.9v-3.6h-11l.5.6 4.4 1.8-1.9 1.9-1.9.5v4.1l2.7 2.4.2 2.7.3-.5 1.2 1.7v1.8l-.6.8v1.5l-2.1.9h-.5l-.9.7-1.6-1.2-2.1.5 1-4v-1.1l.4-.4-.8-1.8-3.2-1-2.2-2.3-1.8-.9-.7.8-.8 2.8-4.6-1-1.8 1.1 1.5 1.7z"/><path class="atst0" d="M160 284.2v-.5l-.6.7v-.1l-.2.2h.2zM157.2 283.7v.2l.2.1zM116.6 310.8l-.9 2.9-.5 1.4 2.1.6 3 2.8v4.6l2.1-.2 1.3 1.6.6-1.6h2.2l.7-1.2.7-1.6.3-3.3 1.4-1.4.2-1.9 1.9-1.6-1.2-1.2 1.9-2 1-.5v-2.1l1.7-.9 1.5-1.5 1.8-.8.4-1.2-1.3-.9-.8-2.1 1.3-1.2v-2l1.6-1.6 1.8-.2-.4-2.2.8-2.6-.9-2.1-.2-2-2.1-2.1 1-2.2-1.2-1.3-2.6-.1-2.5 3.3-2.9 1.1-.1 2-2.1 2.5-3.8.1-1.1 1.3v3.3l-4.3 2.7-1.5.4.6 2.2-2 3.5-2.7 2.7-.3 1.6 1.1 2.6zM93.1 361.7l2.2-1.8 1.9 2.7 1.4 1.6 2.3.3 2 2 1.3 3.4-.3 2.8-.8 3 1-1.4 3-.9 1.4 1h1.2l1.6-1.6h1.3l.1-.5-.6-1.9 2.4-.9h2.2l.9.9.5-2 .8-.7-.2-1.5-1.6-1.5v-2.5l1.2-1.2v-2.1l.5-1.8-1.1-1.1.1-1.6-.8-1.3-1.8.9-1.6-.2-1.4 2.2-3 3v-4.3l-1.4-.8-2.8.9-3.7-1.3-1.1-2.5-1.2-1.4-1.2.1-.6 2.3-2.2 2.4-2.8 2.8-1 1.9 1 1.7z"/><path class="atst0" d="M110.5 346.3l-1 3.8-.6 2.3 2.1 1.2v.8l1.6-2.5 2.3.2 1.1-.6-.1-.2 1.1-.3.7-.3.1.2 1.1-.3 2.3-2.3h2.8l2 2 .3 1.5 1.2.1.8-.8 1.9.5 1.6 1.3 1.3-.8.2-.2h2.4l2.3-.5.7-1.1.3-.4 2.2-2.2 2.5-1 .5-1.7-.7-1.3-1-.8-.6-.5-1.2-2.3-1.4-1.4v-1.3l-1.6-.4-2.4.7-3.5-.9-1.6-1.6-2.1-1.2-.2-.2-1.9-1.9-.5-2.9-2-1.1-.3-1.1-1.6-2-1.8.2-2.6 2.1-1.1 2.4-3 .9-1.1 2.9-1.6 4-.9 3.4.2 2.9-1 .8zM281.6 281l.8 3 .3.4.9 1.1 2.5 2.5.6 2.6 1.2 1.2c.3.3 1.3 1.5 1.7 2l.5.2.4.1 1.2-.4.6-.2.5-1.4 4 1.8 1.1 1.1 15.1-.1 2.5-1.6 3.9-.4.6.5 3.3 2.8 3.7 1.6 2.4 2.4 4.5 2.9 3.1.3 2.5 2.5 8 3.1 1.4.9 2.6 1.7 4.1 1.6 1.8 1.6 1.7-.4 3.4 1.7 2.5-.6 3.3-1.2 1.6-.9 1.6-1.6 1.3-2.2 3.9.7 1.2-2.7 2.9-.2 3.1-2.6h2.3l1.5.8.3.2h.3v-3.6l-1-.3-.4-1.4-2-1.9 3-3 .9-1.3-.4-.8-6.4-6.4-2.5-3.1-1.1 1.1-3.1-3.1-1.8.5-2.1 1 .4 3.9-.7 4.4-2.8.4v2.8l-3.7-.9-.7.7-.3 4.2-4.6-3.8v-3.5l2.5-1.7.3-1.3-.8-.8-3.8 1.2h-2.8l-2 2-5.1-5.1-3.8-.7-4.5 1.9h-3l-4.9-4.5 3.3-1.1 1-2.9h2.4l-.6-2.1h-1.7l-4.1 1.3v3h-3l-1.7-3h-2.9l-5.6-.7-3.2.6-4.7-.8.7 2.9-5.3-2.5-2.9.7v2.6l-4.7 2.3-3.7-1.7-4.1-1.1v-3.6l-1.2-3.6v-4.7l5.7-2 3.7.9 1.8 1.8.6-.6.8-2.4v-4.9l-2.4-3.6-3.3-3.5-.7-1.5h-.9l.4 2.7v4.3l-3.8 2.3v2.5l-4.2 2.1-1 2.1v3.9l-3.4 4.9-2.5.5.4.6 1.3 2.6zM86.4 453.6l.6-.4.5.6 5.3 5.5 1.1 1h-.1l-1.4.5-.9.3.4 2.1-1.7 1.3.7.7 1.5 2.3 1.6.8 1.8 2.3-1.6 1.7.1 1.8h1.2l.8.9 1.8-1.5 1.8 1.3h2.1l.6-.6v-2h3.3l1.1 2.9v1.8l1 1 2.1.6.1.5 1.1 4.3.8.8.9.4.7-.7 1.8.4 3.1-3.2h3.5l2.7-1.9 1.3-2.7v-.5l-1.1.6-3-.2v-3.7l-3.2-3-.9-3.3 1-2.6v-2.2l-3.8-2.7 2.4-2.4v-2.2l3.6-1.5 2.1 2.1 2.3-.4 1.7-3.4-1.4-5.5 3.8-3.8 1.1-2.7-2-3.1-.2-1.4h-2.7l-1.3 1.4h-3l-1.1-1.5h-3V432l-.2-.2-.5.6-1.2 2.9-5.3.7.2 2.7-2.8-.4-1.5 1.5.6 3.5-2.7 1.6-3.9 4-6.3-6.8-2.3 1-2.9-1.2-2.8 1.2-1.2 1.3.7.2 1.6 1.7 2.5.6 2.5 1.8-1 4.3-3.5-1.4-2.5-.3-.3 1.1-.1 1 .8.8zM352.5 241.9l1 2.6 1.2.3-.1 3.6 1.7 1.4-1.4 2.4-2.1.6-.5 1.5 1.8 2 2.4 2.2 1.1-.6 1.9 2.8h1.2l2.9 1.6v.9l.9-.4.4-.4-.6-1.8-1.6-2.6 1.1-3.7-1.2-3.6 1-2.6v-3.7l2-2 .9-3 2.2-.9v-2.4l2.9-2.4h2.7l1.6-2.7 1.6-2.1h1.9l3.2-3.2.3.2v-3.3l2.5 2.4h.2l-.3-2.2 3.5-3.2v2.6l2.7-2V217l2.7.8.2-1.3h3.2l2.4.3 1.1-.5-.9-2 4.1-2.3h4.1l2.1-2.2h5.9l3.9.1 1.9-1.9 3.9 1.4 4-1.8 3.2-.3 2.4-2.3 2.6-2.3v-2.6l-1.5-2.4h-2.6l-3.4 1.3-2.5 1.3-2.4 2.5h-3.7l-2.9.8-1.5-1.5h-3l-1.2-1.9-1.9-.1-2.2 2.2h-4l-2.1-.7-3.2 1.4h-1.7l-1.2 1.5-2 2.1-2.4-.8v1.6h-3.3l-1.1-1 1.6 1.8-1.7 1.7.3 4.7-2.5-2.5-.5.1 1.8 1.8-4.5.2v1.6h-2.8l-1.7 1.7-6.2 1.7 2.1.8 2.5 2.5-4.5.9-.3 1.1-2.4 2.5-1.9-1.9H366v1.3l-1.1 3.1-2.9-1.2-.9.6 1.5 1.6-3.3 3.4-2.8.9-.6 2.3-2.1-.9-.8-.9-1.7-.1-1.8 2.4-.4 2.4 1.2 1.7zM369.7 271l-1.5.7-.9.3.5 4.2 1.5.4.5 2.7 1.5.2.6-1.3-1.3-2.2.1-2.7zM177 291.2l3.6 1.6 2.3 4.5 1.4 5.2 2.2-1.2 2.6-3.7 2 1 2.5-1.3 2.7-.9 2.9.5 2 .9 2.5-.5 2.7 1.6.2 1.5 1.2 1.4.4-.5.3-.3 1.1-.2 2.6-2.7.5-2-.4-2.6 2.8-.9.8-2.1-2.8-2.8.3-3.6.1-.8 1-2.1 1.9-.9.7-1.7-.2-2.5 1.9-2.2 1.2 1.6.4-.4.5.3 1 .6.7-1 .8-1 1.9-3.4-2.3-7.3 3-3 1.2-5.4 3.3-3.3 3.5-1.1 1.9-4.2.5-2.8-2.5-2.5 2-2v-2.5l-1.2.1-1.6-.9-2.6.6-2.4-2.4.9-2.7.3-2.1-6.1-5.5-5.4 10.2-2.9-1.3-5.1 4-1.8.2v4.9l-2.8 1v3.8l-4.2 3.4h-3.7l-1 9.1v4.5l-7.1 2.6-19.4.1v3.5l1.6 5.5z"/><path class="atst0" d="M230.8 231.7l-.6 1.7.8.9 2.4-.6 1.7 1h.6l-.5-2.8 1.6-1.7 1.4-3.8 3.8 3.8-2.2 2.2-.5 2.4 1.9.8 1.2 5.9 1.9 3.4 1.1 3 1.3 3 3 3v4.1l2.4 2.5 4.3 2.4 3.8 1.4 4.6-.9h3.9l3.7-3.7 2.5-4.3.6-5.3.1-2.9-2.6-2.6-.1-4.8-1-2.2.8-4v-4.2l-1.1-3.9-2.6-2.6v-3.4l-2.2-1v-3.4l-1.6-1.6-2.9-1.6v-3.3l-.9-3.3 2.6-2.6 1.9 1.9-.1-.5v-1.6l-2.7-.1-3.8.5.4-2.2-1.3.9-2.4-2.4h-2.4l-4.2-1.5-10.3 5.1v7.9l-2.8 4.9h-7.9l-4.2 4.2-.3 2 7.3 6.6zM272.9 278.5l1.9-1.9-2.2-3.2-1.4-1.4h-2.3l-4.3 1.3-3.6-1.9-4.2 1.6-4-.6-.1 4.6-2.4 2 1.1 2.5-2.1 2.1-5.3-1.5-1.7-3.8-2.8-2.7-.9-4.7-.8-6.1h-1.4l-2 2.2v2.2l-.3 3 2 2-.9 4.6-4.7 3.4-6.3-6.2-1.3 1.8-.5.8-1.1-.8-.6-.4-.9.9-1-1.3.1 2-1.1 2.6-1.9 1-.6 1.2-.3 3.2 3 3.1-1.5 4-2.2.7.2 1.4-.6 2.9-3.4 3.3-1.1.3-.8 1-2.1 4.2.3 1.6-1.1 1.2.6 3.3 1.8 1.1v1.9l2.2 1.1.6 1.6.9.6 1.1 1.1h1.6l1.7 1.7.4 1.3 2.6.2 2.5.6 1 1.1 2.2.5.8 2.2 1.6 1.6 1.5 1.1v1.3l.6.2h1.5v-1.3l2.2.7h2.5v2.5l.4.5h1.5v1.6l1.4.7.6.6.8-.8.7-2.1 2.9 1.3 1.6 2.8-.9.9 1.1.7v.5h.6l3.1 1.3-1.2 1.1.9 1.1 1.3-1.2 1.9.7.2.2 2.8 3.3.3.4v.1l-.4 1.4.3.1.8-.2-.2-1.7 2.5.8h3l.3 1.3.5.1 1.1-1.2 1.3-1.1.9-1.4-1.9-1.9 2-1.9 1.5-.9.2-1.4 2.6-1.6 2.1-2 1.3-.6 1.1-1.1-.9-.9v-1.1l-.9.5-1.2-1.2h-.9l-1.4.3-1 2.3-1.1-.4-1.6 2.2-2-1.9-1.3-.5-2-.9-.4-3.8 1.8-.8-.3-1.5 1-.9.6-1.8 2.4-.6 1.5.4.1-.4-.2-1.9-1.3-1.2.8-3.2 2-1.2v-2l.5-1.6-1.4-1.3-1.7-2.5v-2l-.6-3.1h3.3l2.3 1.7 1.8.6 1.3 1.3 2.4.5 2.6 1.5 2.6 2.6.3 1.4.7-.4 2.5-.9 1.8 1.2 2.1.4 1.8 1.5h1.4l.6.6.6-.6.9-1.7-.8-.8-.6-2.6.9-1.9-.4-1-1.8-1.7-1-2 2.7-2.6v-1.1l1.1-1.2.9-2.3 1.1-1.1-.4-.5-1.9-.9-.1.4-3.3 1.2-.7-.3-1.3-.5-.1-.1-1.8-2.1-1.6-1.6-.6-2.5-2.2-2.3-1.1-1.3-.4-.6-.9-3.3-1-2.3-.3-.3-.2-.3-1.9 1.9-3.5 4.3z"/></svg><svg version="1.1" id="map_pin" x="0" y="0" viewBox="0 0 30 45.1" xml:space="preserve" xmlns="http://www.w3.org/2000/svg"><style>.aust0{fill:#455cce}.aust1{fill:#fff}</style><path class="aust0" d="M15 44.3C12.7 41.3.5 25.2.5 15 .5 7 7 .5 15 .5S29.5 7 29.5 15c0 10.2-12.2 26.3-14.5 29.3z"/><path class="aust1" d="M15 1c7.7 0 14 6.3 14 14 0 9.6-11 24.5-14 28.5-3-4-14-18.9-14-28.5C1 7.3 7.3 1 15 1m0-1C6.7 0 0 6.7 0 15c0 11.6 15 30.1 15 30.1S30 26.6 30 15c0-8.3-6.7-15-15-15zm0 19c-2.5 0-4.5-2-4.5-4.5s2-4.5 4.5-4.5 4.5 2 4.5 4.5-2 4.5-4.5 4.5z"/></svg><svg version="1.1" id="mas" x="0" y="0" viewBox="0 0 99 62.3" xml:space="preserve" xmlns="http://www.w3.org/2000/svg"><style>.avst0{fill:#fff}.avst1{fill:#ff5f00}.avst2{fill:#eb001b}.avst3{fill:#f79e1b}</style><path class="avst0" d="M0 0h99v62.3H0V0z"/><path d="M27.8 57.2v-3.5c.1-.6-.2-1.2-.6-1.6-.4-.4-1-.7-1.6-.6-.8 0-1.5.3-2 1-.4-.7-1.1-1-1.9-1-.7 0-1.3.3-1.7.8v-.7h-1.1v5.6H20V54c0-.4.1-.8.4-1.1.3-.3.7-.4 1.1-.4.8 0 1.3.5 1.3 1.5v3.2h1.1V54c0-.4.1-.8.4-1.1.3-.3.7-.4 1.1-.4.8 0 1.3.5 1.3 1.5v3.2h1.1zm18.3-5.6H44v-1.7h-1v1.7h-1.2v1H43v2.6c0 1.3.5 2.1 1.9 2.1.5 0 1.1-.2 1.5-.4l-.4-1c-.3.2-.7.3-1.1.3-.3 0-.5-.1-.7-.3-.2-.2-.3-.4-.2-.7v-2.7h2.1v-.9zm10.5-.2c-.6 0-1.2.3-1.5.8v-.7H54v5.6h1.1V54c0-.9.5-1.5 1.2-1.5.3 0 .5 0 .8.1l.4-1.1c-.3 0-.6 0-.9-.1zm-15.8.6c-.7-.4-1.5-.6-2.3-.6-1.4 0-2.3.6-2.3 1.8 0 .9.6 1.5 1.9 1.6l.6.1c.6.1 1.1.4 1.1.6 0 .4-.5.7-1.4.7-.7 0-1.3-.2-1.9-.6l-.6.9c.7.5 1.6.7 2.4.7 1.7 0 2.5-.8 2.5-1.8 0-1.1-.7-1.5-1.9-1.6l-.6-.1c-.5-.1-1-.2-1-.6 0-.4.5-.7 1.1-.7.6 0 1.2.2 1.8.5l.6-.9zm17.1 2.4c0 .8.2 1.6.8 2.1.6.6 1.3.9 2.1.8.7 0 1.4-.2 2-.6l-.6-.9c-.4.3-.9.5-1.5.5-1-.1-1.7-.9-1.7-1.9 0-1 .8-1.8 1.7-1.9.5 0 1.1.2 1.5.5l.6-.9c-.6-.5-1.3-.7-2-.6-.8-.1-1.6.2-2.1.7-.5.6-.8 1.4-.8 2.2zm-7.9-3c-1.6 0-2.8 1.2-2.8 2.9-.1.8.2 1.6.8 2.1.6.6 1.3.9 2.1.8.8 0 1.6-.3 2.3-.8l-.6-.8c-.5.4-1.1.6-1.6.6-.9 0-1.6-.6-1.7-1.5h4.2v-.5c-.1-1.6-1.1-2.8-2.7-2.8zm0 1.1c.4 0 .8.1 1 .4.3.3.4.6.4 1h-3.1c.1-.8.8-1.4 1.7-1.4zm-15.3 1.9v-2.8h-1.1v.7c-.4-.6-1.1-.9-1.8-.8-1.6 0-2.9 1.3-2.9 2.9 0 1.6 1.3 2.9 2.9 2.9.7 0 1.4-.3 1.8-.8v.7h1.1v-2.8zm-4.6 0c.1-1 .9-1.7 1.8-1.6 1 0 1.7.8 1.7 1.8s-.8 1.7-1.8 1.7c-.5 0-1-.2-1.3-.5-.3-.4-.4-.9-.4-1.4zm43.6-3c-.6 0-1.2.3-1.5.8v-.7H71v5.6h1.1V54c0-.9.5-1.5 1.2-1.5.3 0 .5 0 .8.1l.4-1.1c-.3 0-.6 0-.8-.1zm9 5c.1 0 .2 0 .2.1.1 0 .1.1.2.1.1.1.1.1.1.2s.1.1.1.2 0 .2-.1.2c-.1.1-.1.1-.1.2-.1.1-.1.1-.2.1s-.1.1-.2.1-.2 0-.2-.1c-.1-.1-.1-.1-.2-.1-.1-.1-.1-.1-.1-.2s-.1-.1-.1-.2 0-.2.1-.2c.1-.1.1-.1.1-.2.1-.1.1-.1.2-.1.1-.1.2-.1.2-.1zm0 1c.1 0 .1 0 .2-.1.1 0 .1-.1.1-.1l.1-.1c0-.1.1-.1.1-.2s0-.1-.1-.2c0-.1-.1-.1-.1-.1l-.1-.1c-.1 0-.1-.1-.2-.1s-.1 0-.2.1c-.1 0-.1.1-.1.1l-.1.1c0 .1-.1.1-.1.2s0 .1.1.2c0 .1.1.1.1.1l.1.1c.1.1.2.1.2.1zm.1-.7c.1 0 .1 0 .2.1l.1.1-.1.1-.1.1.2.2h-.2l-.2-.2h-.1v.2h-.1v-.5h.3zm-.1.1v.1h.2v-.1h-.2zm-13.4-2.4v-2.8h-1.1v.7c-.4-.6-1.1-.9-1.8-.8-1.6 0-2.9 1.3-2.9 2.9 0 1.6 1.3 2.9 2.9 2.9.7 0 1.4-.3 1.8-.8v.7h1.1v-2.8zm-4.5 0c.1-1 .9-1.7 1.8-1.6 1 0 1.7.8 1.7 1.8s-.8 1.7-1.8 1.7c-1.1 0-1.7-.9-1.7-1.9zm15.9 0v-5.1h-1.1v2.9c-.4-.6-1.1-.9-1.8-.8-1.6 0-2.9 1.3-2.9 2.9 0 1.6 1.3 2.9 2.9 2.9.7 0 1.4-.3 1.8-.8v.7h1.1v-2.7zm-4.6 0c.1-1 .9-1.7 1.8-1.6 1 0 1.7.8 1.7 1.8s-.8 1.7-1.8 1.7c-.5 0-1-.2-1.3-.5-.2-.4-.4-.9-.4-1.4z"/><path class="avst1" d="M39.4 8.9h20.4v33.2H39.4V8.9z"/><path class="avst2" d="M41.5 25.5c0-6.5 3-12.6 8.1-16.6-7.3-5.7-17.5-6-25.2-.8-7.7 5.3-11 14.9-8.2 23.7 2.8 8.8 11 14.9 20.3 14.8 4.7 0 9.4-1.6 13.1-4.5-5.1-4-8.1-10.1-8.1-16.6z"/><path class="avst3" d="M83.9 25.5c0 8.1-4.6 15.5-11.9 19-7.3 3.5-16 2.6-22.4-2.4 5.1-4 8.1-10.1 8.1-16.6 0-6.5-3-12.6-8.1-16.6C56 3.9 64.7 3 72 6.5c7.3 3.5 11.9 10.9 11.9 19z"/></svg><svg version="1.1" id="mir" x="0" y="0" viewBox="0 0 99 62.3" xml:space="preserve" xmlns="http://www.w3.org/2000/svg"><style>.awst0{fill:#fff}.awst1{fill:#3da436}.awst2{fill:url(#awSVGID_1_)}.awst3{fill:#3ca436}</style><path class="awst0" d="M0 0h99v62.3H0V0z"/><path class="awst1" d="M25.7 42.7H21c-1.8-4.5-2.8-9.2-5-13.6v13.5c-2.5.2-4.8.1-7.1.1-.3-.4-.6-.6-.6-.9 0-7-.1-14.1-.1-21.1 0-.3.3-.7.6-1.2h7.7c1.9 0 3 1.3 3.5 3 .9 2.8 1.7 5.6 2.4 8.4.2.8.7 1.4.8 2.2.8-.3.9-.8 1.1-1.4.7-2.7 1.6-5.4 2.3-8.1.4-1.7 1.3-3 2.8-4h9v23H31c-.6-2.3-.2-4.6-.3-6.8-.1-2.2 0-4.3-.2-6.5-2.2 4.2-2.8 9-4.8 13.4m30.7-23.1h7.7v22.9h-6.7c-.7-.4-.7-1.1-.7-1.8V29c-1.2.4-1.4 1.3-1.6 2-1.1 2.9-2.7 5.6-3.9 8.5-.9 2.2-2.6 3.3-5 3.1-1.5-.1-3.1 0-4.4 0-.9-.6-.9-1.3-.9-2V19.7c2.4-.6 4.8-.1 7.4-.3v13.7c.9-.4 1.1-.9 1.4-1.5 1.3-3 2.7-6 4-9 .7-1.3 1.7-2.1 2.7-3"/><linearGradient id="awSVGID_1_" gradientUnits="userSpaceOnUse" x1="-571.63" y1="364.009" x2="-570.957" y2="364.009" gradientTransform="matrix(31.818 0 0 -11.8526 18256.416 4338.385)"><stop offset="0" stop-color="#00a3e3"/><stop offset="1" stop-color="#0071bf"/></linearGradient><path class="awst2" d="M90.4 28.4c-4.7 0-9.4.1-14 0-3.8-.1-6.4-2.3-8.3-5.4-.6-.9-1.3-1.9-1.2-3 .4-.5.8-.4 1.2-.4h15.1c3.6 0 6.1 2 7 5.6.3.9 1 1.8.2 3.2"/><path class="awst3" d="M74.8 42.5c-2.4.4-4.6.2-6.7.1-.2-.3-.5-.6-.5-.8V30.9c2.2-.5 18-.6 22.5-.2-2 3.7-3.4 4.6-7.4 4.6h-7.4c-.6 2.4.1 4.8-.5 7.2"/></svg><svg version="1.1" id="phone" x="0" y="0" viewBox="0 0 15.3 24" xml:space="preserve" xmlns="http://www.w3.org/2000/svg"><style>.axst0{fill:#7b818c}</style><path class="axst0" d="M7.7 17.2c.8 0 1.4.6 1.4 1.4 0 .8-.6 1.4-1.4 1.4-.8 0-1.4-.6-1.4-1.4 0-.8.6-1.4 1.4-1.4zM15.3 0H0v24h15.3V0zM1.8 1.8h11.6v20.4H1.8V1.8z"/></svg><svg version="1.1" id="phone_call" x="0" y="0" viewBox="0 0 23 23" xml:space="preserve" xmlns="http://www.w3.org/2000/svg"><style>.ayst0{fill:#ffdd4d}</style><g id="ayPage-1"><g id="ay_x30_38---Calling" transform="translate(-1)"><path id="ayShape" class="ayst0" d="M6 2l2 3-1.3 1.3c-.5.5-.8 1.3-.7 2.1.2 1.4 1.4 2.6 3.6 4.8l.6.6.6.6c2.2 2.2 3.4 3.4 4.8 3.6h.3c.7 0 1.3-.3 1.8-.7l1.2-1.2 3 1.9-1.5 3.2c-1.2-.1-3-.3-5.1-1-2.7-.9-5.1-2.4-7.1-4.4-2-2-3.5-4.4-4.4-7.1-.7-2.1-.9-3.9-1-5.1L6 2m.3-2c-.1 0-.2 0-.3.1L1.4 2.2c-.3.2-.4.5-.4.8.2 2.3.6 8.5 6 14 5.5 5.5 11.7 5.8 13.9 6h.1c.3 0 .6-.2.7-.4l2.1-4.5c.2-.4.1-.8-.3-1l-4.4-2.8c0-.2-.1-.3-.3-.3-.2 0-.4.1-.6.2L16.5 16c-.1.2-.4.2-.6.2h-.1c-.9-.1-2.2-1.5-4.4-3.7S7.8 9 7.7 8.1c0-.2.1-.5.2-.7l1.8-1.8c.3-.3.3-.7.1-1L7 .4C6.9.1 6.6 0 6.3 0z"/></g></g></svg><svg version="1.1" id="pin" x="0" y="0" viewBox="0 0 16.6 24.7" xml:space="preserve" xmlns="http://www.w3.org/2000/svg"><style>.azst0{fill:#273142}</style><path class="azst0" d="M8.3 0C3.7 0 0 3.7 0 8.3c0 6 7.4 15.2 7.7 15.6l.6.7.6-.7c.3-.4 7.7-9.6 7.7-15.6 0-4.6-3.7-8.3-8.3-8.3zm0 22.2c-1.7-2.3-6.8-9.4-6.8-13.9 0-3.7 3-6.8 6.8-6.8s6.8 3 6.8 6.8c0 4.6-5.1 11.6-6.8 13.9z"/><path class="azst0" d="M8.3 5.1c-1.7 0-3 1.3-3 3s1.3 3 3 3 3-1.3 3-3-1.3-3-3-3zm0 4.5c-.8 0-1.5-.7-1.5-1.5s.7-1.5 1.5-1.5 1.5.7 1.5 1.5-.7 1.5-1.5 1.5z"/></svg><svg version="1.1" id="question" x="0" y="0" viewBox="0 0 23 23" xml:space="preserve" xmlns="http://www.w3.org/2000/svg"><style>.bast0{fill:#273142}</style><path class="bast0" d="M12.4 16.3h-1.7V15c0-1.6.7-3.1 2-4.5 1-1 1.4-2 1.3-2.8-.2-1-1-2.1-2.4-2.1S9 6.8 9 8.4H7.3c0-2.6 1.9-4.5 4.4-4.5 2.1 0 3.8 1.5 4.1 3.6.2 1.4-.4 2.9-1.8 4.3-.7.7-1.5 1.9-1.5 3.3v1.2zM11.5 17.4c-.5 0-.9.4-.9.9s.4.9.9.9.9-.4.9-.9-.4-.9-.9-.9z"/><path class="bast0" d="M11.5 23C5.2 23 0 17.8 0 11.5S5.2 0 11.5 0 23 5.2 23 11.5 17.8 23 11.5 23zm0-21.3c-5.4 0-9.8 4.4-9.8 9.8s4.4 9.8 9.8 9.8 9.8-4.4 9.8-9.8-4.4-9.8-9.8-9.8z"/></svg><svg version="1.1" id="remove" x="0" y="0" viewBox="0 0 14 18" xml:space="preserve" xmlns="http://www.w3.org/2000/svg"><style>.bbst0{fill:#273142}</style><path class="bbst0" d="M1 16c0 1.1.9 2 2 2h8c1.1 0 2-.9 2-2V4H1v12zM3 6h8v10H3V6zm7.5-5l-1-1h-5l-1 1H0v2h14V1h-3.5z"/></svg><svg version="1.1" id="repeat" x="0" y="0" viewBox="0 0 19.7 21.3" xml:space="preserve" xmlns="http://www.w3.org/2000/svg"><style>.bcst0{fill:#7b818c}</style><path class="bcst0" d="M5.9 7.9L3.4 5.5h14.1v5h1.8V3.7H3.4l2.5-2.4L4.6 0 0 4.6l4.6 4.6zM15 12.1l-1.2 1.2 2.4 2.5h-14v-5H.4v6.8h15.8L13.8 20l1.2 1.3 4.7-4.6z"/></svg><svg version="1.1" id="search" x="0" y="0" viewBox="0 0 22 22" xml:space="preserve" xmlns="http://www.w3.org/2000/svg"><style>.bdst0{fill:#7b818c}</style><path class="bdst0" d="M22 20.7l-7.2-7.2-.6.6c-1.4 1.4-3.2 2.1-5.1 2.1-4 0-7.3-3.3-7.3-7.3s3.3-7.3 7.3-7.3c1.9 0 3.8.8 5.1 2.1 1.4 1.4 2.1 3.2 2.1 5.1 0 .6-.1 1.2-.2 1.8l1.7.4c.2-.7.3-1.5.3-2.2 0-2.4-.9-4.7-2.7-6.4C13.8.9 11.5 0 9.1 0 4.1 0 0 4.1 0 9.1s4.1 9.1 9.1 9.1c2.1 0 4.1-.7 5.7-2.1l5.9 5.9 1.3-1.3z"/></svg><svg version="1.1" id="star" x="0" y="0" viewBox="0 0 14.5 14" xml:space="preserve" xmlns="http://www.w3.org/2000/svg"><style>.best0{fill:#fdbf00}</style><path class="best0" d="M14.5 5.3L9.3 5l-2-5-2 5-5.3.3 4 3.5L2.7 14l4.6-2.9 4.5 2.9-1.3-5.2z"/></svg><svg version="1.1" id="table" x="0" y="0" viewBox="0 0 26 26" xml:space="preserve" xmlns="http://www.w3.org/2000/svg"><style>.bfst0{fill:#273142}</style><path class="bfst0" d="M10 10h6v6h-6v-6zM0 10h6v6H0v-6zM10 0h6v6h-6V0zM0 0h6v6H0V0zM20 10h6v6h-6v-6zM20 0h6v6h-6V0zM10 20h6v6h-6v-6zM0 20h6v6H0v-6zM20 20h6v6h-6v-6z"/></svg><svg version="1.1" id="vis" x="0" y="0" viewBox="0 0 99 62.3" xml:space="preserve" xmlns="http://www.w3.org/2000/svg"><style>.bgst0{fill:#fff}.bgst1{fill:#005098}.bgst2{fill:#f6a500}</style><path class="bgst0" d="M0 0h99v62.3H0V0z"/><path class="bgst1" d="M36.4 42.7l4-23.5h6.4l-4 23.5h-6.4zm29.7-22.9c-1.3-.5-3.3-1-5.7-1-6.3 0-10.8 3.2-10.8 7.8 0 3.4 3.2 5.3 5.6 6.4 2.5 1.2 3.3 1.9 3.3 2.9 0 1.6-2 2.3-3.8 2.3-2.6 0-3.9-.4-6-1.2l-.8-.4-.9 5.3c1.5.7 4.3 1.2 7.1 1.3 6.7 0 11.1-3.2 11.2-8 0-2.7-1.7-4.7-5.4-6.4-2.2-1.1-3.6-1.8-3.6-2.9 0-1 1.2-2 3.7-2 2.1 0 3.6.4 4.8.9l.6.3.7-5.3m8.5 14.6c.9-2.2 1.7-4.4 2.6-6.6 0 .1.5-1.4.8-2.2l.4 2s1.2 5.6 1.5 6.8h-5.3zm7.9-15.2h-5c-1.5 0-2.7.4-3.4 2l-9.5 21.6h6.7s1.1-2.9 1.3-3.5h8.2c.2.8.8 3.5.8 3.5h6l-5.1-23.6zm-51.5 0l-6.3 16-.6-3.2c-1.2-3.8-4.8-7.8-8.9-9.9l5.7 20.6h6.8l10.1-23.5H31"/><path class="bgst2" d="M18.9 19.2H8.6l-.1.5c8 1.9 13.4 6.7 15.6 12.3l-2.2-10.8c-.5-1.5-1.6-1.9-3-2"/></svg><svg version="1.1" id="vk" x="0" y="0" viewBox="0 0 24 13.2" xml:space="preserve" xmlns="http://www.w3.org/2000/svg"><style>.bhst0{fill:#ffdd4d}</style><path class="bhst0" d="M21.4 9.1c.9.9 1.6 1.5 1.9 1.9.3.4.5.7.5.8.3.6.3 1-.1 1.2-.4.2-.7.2-.7.2l-3.2.1h-.5c-.3 0-.7-.2-1.1-.4-.6-.5-1.2-1.1-1.8-1.7-.6-.7-1.1-.9-1.5-.9-.4.2-.7.6-.8 1.2-.1.6-.1.9-.1 1v-.1c0 .1-.1.2-.2.3-.1.1-.3.2-.4.2l-1.7-.1c-.1.1-.7 0-1.9-.2s-2.5-1-4-2.3c-1.6-1.7-2.9-3.6-4-5.6C.7 2.7.1 1.5.1 1.3L0 1.2C0 1 0 .9.1.8.2.7.3.6.5.6h4c.1 0 .2.1.3.2.1.1.1.2.2.3l.5 1c.2.4.5 1 .9 1.7.7 1.1 1.2 1.9 1.6 2.3.4.4.7.5.9.3.4-.3.5-.9.5-1.8V2.5c0-.4-.1-.7-.3-1-.1-.2-.3-.4-.5-.4-.2-.1-.4-.1-.5-.1C8 1 8 .9 8.1.8c.1-.2.3-.3.5-.5.4-.1.8-.2 1.3-.2.4-.1 1-.1 1.7-.1.5 0 .8 0 1 .1.2 0 .4.1.6.1.5.1.8.5.8 1.1 0 .9 0 1.9-.1 2.8v1.3c0 .4.2.8.4 1 .1.1.4 0 .8-.3s1-1.1 1.7-2.3c.4-.7.7-1.3.9-1.9l.4-.9h.3c.1-.1.2-.2.3-.2.1-.1.2-.1.3-.1h4.3c.4 0 .6.1.7.3.2.5-.4 1.7-1.9 3.5-1.2 1.5-1.9 2.4-2 2.8-.2.5.3 1.1 1.3 1.8z"/></svg><svg version="1.1" id="youtube" x="0" y="0" viewBox="0 0 24 16.8" xml:space="preserve" xmlns="http://www.w3.org/2000/svg"><style>.bist0{fill:#ffdd4d}</style><path class="bist0" d="M23.8 4.9c-.1-1-.2-1.7-.3-2.3-.3-1.1-1-1.8-2.1-2.1C20.2.2 17 0 12 0l-1.9.1C8.8.1 7.4.1 5.8.2 4.2.3 3.2.4 2.6.5 1.5.8.8 1.5.5 2.6.2 3.8 0 5.8 0 8.4l.1 1c0 .7 0 1.5.1 2.5s.2 1.7.3 2.3c.3 1.1 1 1.8 2.1 2.1 1.2.3 4.4.5 9.4.5l1.9-.1c1.3 0 2.7 0 4.3-.1 1.6-.1 2.6-.2 3.2-.3 1.1-.3 1.8-1 2.1-2.1.3-1.2.5-3.2.5-5.8l-.1-1c0-.7 0-1.6-.1-2.5zm-8 3.5L9.6 12V4.8l6.2 3.6z"/></svg></svg>